SplineFontDB: 3.0
FontName: LMRoman10-Regular
FullName: LMRoman10-Regular
FamilyName: LMRoman10
Weight: Normal
Copyright: Copyright 2003, 2009 B. Jackowski and J. M. Nowacki (on behalf of TeX users groups). This work is released under the GUST Font License --  see http://tug.org/fonts/licenses/GUST-FONT-LICENSE.txt for details.
Version: 2.004
ItalicAngle: 0
UnderlinePosition: -106
UnderlineWidth: 40
Ascent: 806
Descent: 194
sfntRevision: 0x00020106
LayerCount: 2
Layer: 0 0 "Back"  1
Layer: 1 0 "Fore"  0
NeedsXUIDChange: 1
XUID: [1021 777 149012601 16102352]
FSType: 12
OS2Version: 3
OS2_WeightWidthSlopeOnly: 0
OS2_UseTypoMetrics: 1
CreationTime: 1254995892
ModificationTime: 1347389202
PfmFamily: 81
TTFWeight: 400
TTFWidth: 5
LineGap: 0
VLineGap: 0
Panose: 0 0 5 0 0 0 0 0 0 0
OS2TypoAscent: 0
OS2TypoAOffset: 1
OS2TypoDescent: 0
OS2TypoDOffset: 1
OS2TypoLinegap: 200
OS2WinAscent: 0
OS2WinAOffset: 1
OS2WinDescent: 0
OS2WinDOffset: 1
HheadAscent: 0
HheadAOffset: 1
HheadDescent: 0
HheadDOffset: 1
OS2SubXSize: 650
OS2SubYSize: 600
OS2SubXOff: 0
OS2SubYOff: 75
OS2SupXSize: 650
OS2SupYSize: 600
OS2SupXOff: 0
OS2SupYOff: 350
OS2StrikeYSize: 40
OS2StrikeYPos: 258
OS2Vendor: 'UKWN'
OS2CodePages: 20000193.00000000
OS2UnicodeRanges: 20000007.00000000.00000000.00000000
Lookup: 1 0 0 "'aalt' Access All Alternates lookup 0"  {"'aalt' Access All Alternates lookup 0 subtable"  } ['aalt' ('DFLT' <'dflt' > 'cyrl' <'dflt' > 'latn' <'AZE ' 'CRT ' 'MOL ' 'NLD ' 'PLK ' 'ROM ' 'TRK ' 'dflt' > ) ]
Lookup: 3 0 0 "'aalt' Access All Alternates lookup 1"  {"'aalt' Access All Alternates lookup 1 subtable"  } ['aalt' ('DFLT' <'dflt' > 'cyrl' <'dflt' > 'latn' <'AZE ' 'CRT ' 'MOL ' 'NLD ' 'PLK ' 'ROM ' 'TRK ' 'dflt' > ) ]
Lookup: 1 0 0 "'locl' Localized Forms in Latin lookup 2"  {"'locl' Localized Forms in Latin lookup 2 subtable"  } ['locl' ('latn' <'MOL ' 'ROM ' > ) ]

StartChar: acute.dup
Encoding: 65537 -1 1
Width: 500
Flags: HMW
HStem: 510 21G<174 174> 678 20G<299.5 316>
LayerCount: 2
Fore
SplineSet
343 662 m 0
 343 650 335 639 326 632 c 2
 174 510 l 1
 157 528 l 1
 277 681 l 2
 281 687 292 698 307 698 c 0
 325 698 343 680 343 662 c 0
EndSplineSet
EndChar

StartChar: AE.dup
Encoding: 65538 -1 2
Width: 903
Flags: HMW
HStem: 0 31<30.5 65.5 337.5 370.5 546.5 641.5 641.5 725.5> 313 31<264.5 414.5 264.5 414.5 253.5 414.5 497.5 582.5> 652 31<256.5 301.5 256.5 816.5 523 546.5 546.5 641.5>
VStem: 173.5 83 414.5 83<76 313 344 604 604 612> 685.5 25<196 238 419 461> 819.5 25<458 458> 847.5 25<258 258>
LayerCount: 2
Fore
SplineSet
872.5 258 m 1
 830.5 0 l 1
 337.5 0 l 1
 337.5 31 l 1
 403.5 31 414.5 31 414.5 76 c 2
 414.5 313 l 1
 253.5 313 l 1
 178.5 103 l 2
 173.5 90 173.5 89 173.5 81 c 0
 173.5 56 197.5 32 247.5 31 c 1
 247.5 0 l 1
 132.5 3 l 1
 92.5 3 52.5 1 30.5 0 c 1
 30.5 31 l 1
 100.5 31 129.5 59 143.5 98 c 2
 341.5 651 l 1
 328.5 651 314.5 652 301.5 652 c 2
 256.5 652 l 1
 256.5 683 l 1
 816.5 683 l 1
 844.5 458 l 1
 819.5 458 l 1
 803.5 594 783.5 652 641.5 652 c 2
 546.5 652 l 2
 499.5 652 497.5 645 497.5 612 c 2
 497.5 344 l 1
 582.5 344 l 2
 676.5 344 685.5 377 685.5 461 c 1
 710.5 461 l 1
 710.5 196 l 1
 685.5 196 l 1
 685.5 280 676.5 313 582.5 313 c 2
 497.5 313 l 1
 497.5 71 l 2
 497.5 38 499.5 31 546.5 31 c 2
 641.5 31 l 2
 809.5 31 822.5 110 847.5 258 c 1
 872.5 258 l 1
414.5 344 m 1
 414.5 604 l 2
 414.5 620 414.5 647 373.5 648 c 1
 264.5 344 l 1
 414.5 344 l 1
EndSplineSet
EndChar

StartChar: ae.dup
Encoding: 65539 -1 3
Width: 722
Flags: HMW
HStem: -11 22<177.5 236.5> 111 21 132 22 229 21<318 318> 231 21<388 619 388 660 387 619> 288 93 426 22<194 237.5 499 564.5>
VStem: 37 77<68.5 119 68.5 140> 155 57 330 57<122.5 133.5> 619 66<252 252>
LayerCount: 2
Fore
SplineSet
685 119 m 0x4ee0
 685 100 643 -11 530 -11 c 0
 500 -11 422 -3 363 78 c 1
 339 29 277 -11 196 -11 c 0
 129 -11 37 13 37 92 c 0
 37 188 156 250 318 250 c 1x9120
 318 298 l 2
 318 385 263 426 212 426 c 0
 176 426 129 412 104 380 c 1
 150 379 155 346 155 334 c 0
 155 308 137 288 109 288 c 0
 83 288 63 305 63 335 c 0
 63 402 134 448 214 448 c 0
 278 448 338 419 367 371 c 1
 418 432 474 448 518 448 c 0
 627 448 685 363 685 252 c 0
 685 231 682 231 660 231 c 2
 387 231 l 1
 387 14 524 14 534 14 c 0
 596 14 642 61 657 111 c 0
 662 127 663 131 672 131 c 0
 677 131 685 129 685 119 c 0x4ee0
619 252 m 1
 617 291 612 426 517 426 c 0
 481 426 398 398 388 252 c 1x8b20
 619 252 l 1
330 132 m 0
 330 135 330 143 327 154 c 0
 318 185 318 205 318 229 c 1x3040
 156 223 114 146 114 92 c 0
 114 45 154 11 201 11 c 0
 273 11 330 68 330 132 c 0
EndSplineSet
EndChar

StartChar: cedilla.dup
Encoding: 65540 -1 4
Width: 444
Flags: HMW
HStem: -200 26<88.5 101.5 101.5 114.5 88.5 101.5> -92 26
VStem: 195.5 52<-66 5 -66 5 -66 5> 271.5 84<-153.5 -117>
LayerCount: 2
Fore
SplineSet
355.5 -133 m 0
 355.5 -200 222.5 -200 114.5 -200 c 2
 88.5 -200 l 1
 88.5 -174 l 1
 101.5 -174 l 2
 176.5 -174 271.5 -174 271.5 -133 c 0
 271.5 -101 232.5 -92 195.5 -92 c 1
 195.5 5 l 1
 247.5 5 l 1
 247.5 -66 l 1
 301.5 -66 355.5 -86 355.5 -133 c 0
EndSplineSet
EndChar

StartChar: circumflex.dup
Encoding: 65541 -1 5
Width: 500
Flags: MW
HStem: 516 21G<111 111 389 389> 672 20G<250 250>
LayerCount: 2
Fore
SplineSet
402 530 m 1
 389 516 l 1
 250 624 l 1
 111 516 l 1
 98 530 l 1
 250 692 l 1
 402 530 l 1
EndSplineSet
EndChar

StartChar: dieresis.dup
Encoding: 65542 -1 6
Width: 500
Flags: HMW
HStem: 557 95<147 175 146 176 325 353>
VStem: 112.5 97<593.5 616> 290.5 97<593.5 616>
LayerCount: 2
Fore
SplineSet
209.5 605 m 0
 209.5 582 191.5 557 160.5 557 c 0
 133.5 557 112.5 580 112.5 605 c 0
 112.5 627 130.5 652 161.5 652 c 0
 188.5 652 209.5 629 209.5 605 c 0
387.5 605 m 0
 387.5 582 369.5 557 338.5 557 c 0
 311.5 557 290.5 580 290.5 605 c 0
 290.5 627 308.5 652 339.5 652 c 0
 366.5 652 387.5 629 387.5 605 c 0
EndSplineSet
EndChar

StartChar: Gcedilla
Encoding: 65543 -1 7
Width: 785
Flags: HMW
HStem: -290 21G<363 369.5> -145 79<372 390.5> -22 31<386.5 433 386.5 439.5> 242 31<449 481 449 449> 674 31<383 450.5 308 466.5>
VStem: 53 103<239.5 444.5> 574 89<130 194 194 198>
LayerCount: 2
Fore
SplineSet
732 242 m 1
 667 242 663 237 663 198 c 2
 663 24 l 2
 663 9 663 1 654 1 c 0
 643 1 603 41 590 63 c 1
 556 4 476 -22 403 -22 c 0
 213 -22 53 137 53 342 c 0
 53 547 215 705 401 705 c 0
 500 705 554 651 586 619 c 1
 636 693 l 2
 644 705 648 705 652 705 c 0
 663 705 663 698 663 681 c 2
 663 444 l 2
 663 423 663 420 647 420 c 0
 633 420 633 423 631 437 c 0
 611 584 520 674 413 674 c 0
 353 674 156 641 156 342 c 0
 156 44 354 9 419 9 c 0
 447 9 574 18 574 130 c 2
 574 194 l 2
 574 231 571 242 481 242 c 2
 449 242 l 1
 449 273 l 1
 485 270 570 270 610 270 c 2
 732 273 l 1
 732 242 l 1
433 -145 m 0
 433 -231 374 -290 365 -290 c 0
 361 -290 357 -287 357 -282 c 0
 357 -279 358 -278 362 -274 c 0
 395 -238 416 -193 415 -133 c 1
 407 -141 396 -145 385 -145 c 0
 358 -145 345 -125 345 -106 c 0
 345 -86 359 -66 385 -66 c 0
 415 -66 433 -97 433 -145 c 0
EndSplineSet
EndChar

StartChar: gcedilla
Encoding: 65544 -1 8
Width: 500
Flags: HMW
HStem: -206 23<193 292.5 193 301.5> 7 58<155.5 258> 110 23 149 23<206 235.5 172 262> 419 23<195.5 226.5 169 259> 430 23 514 79<207 225.5> 718 20G<228 234.5>
VStem: 21.5 52<-105.5 -59> 53.5 75<283.5 308.5 283.5 334.5> 69.5 75 100.5 52 152.5 75<66 66> 302.5 75<282.5 307.5> 412.5 52<-106 -59.5 -116 -36> 426.5 52<392.5 431>
LayerCount: 2
Fore
SplineSet
252.5 554 m 0x07
 252.5 534 238.5 514 212.5 514 c 0
 182.5 514 164.5 545 164.5 593 c 0
 164.5 679 223.5 738 232.5 738 c 0
 236.5 738 240.5 735 240.5 730 c 0
 240.5 727 239.5 726 235.5 722 c 0
 202.5 686 181.5 641 182.5 581 c 1
 190.5 589 201.5 593 212.5 593 c 0
 239.5 593 252.5 573 252.5 554 c 0x07
478.5 404 m 0
 478.5 381 459.5 374 449.5 374 c 0
 433.5 374 420.5 386 420.5 403 c 0
 420.5 415 425.5 426 436.5 430 c 1
 433.5 431 426.5 431 426.5 431 c 1x1441
 408.5 431 372.5 426 336.5 392 c 1
 361.5 369 377.5 332 377.5 295 c 0
 377.5 218 308.5 149 215.5 149 c 0
 196.5 149 155.5 152 116.5 180 c 1
 99.5 160 99.5 137 99.5 133 c 0
 99.5 101 120.5 70 152.5 66 c 0
 159.5 65 202.5 65 227.5 65 c 0
 288.5 65 346.5 65 399.5 37 c 0
 450.5 9 464.5 -42 464.5 -77 c 0
 464.5 -155 360.5 -206 242.5 -206 c 0
 120.5 -206 21.5 -151 21.5 -79 c 0xf08e
 21.5 -39 53.5 4 113.5 21 c 1
 82.5 41 69.5 79 69.5 110 c 0x2020
 69.5 145 87.5 178 100.5 193 c 1x0010
 75.5 214 53.5 252 53.5 296 c 0
 53.5 373 122.5 442 215.5 442 c 0x0840
 237.5 442 279.5 439 321.5 406 c 1
 363.5 447 407.5 453 427.5 453 c 0
 466.5 453 478.5 421 478.5 404 c 0
302.5 296 m 0
 302.5 319 302.5 419 215.5 419 c 0
 175.5 419 152.5 391 144.5 379 c 0x8824
 129.5 354 128.5 322 128.5 295 c 0
 128.5 272 128.5 172 215.5 172 c 0
 255.5 172 278.5 200 286.5 212 c 0
 301.5 237 302.5 269 302.5 296 c 0
412.5 -79 m 0
 412.5 7 300.5 7 214.5 7 c 2
 155.5 7 l 1
 111.5 4 73.5 -33 73.5 -79 c 0x4082
 73.5 -132 142.5 -183 243.5 -183 c 0
 341.5 -183 412.5 -133 412.5 -79 c 0
EndSplineSet
EndChar

StartChar: germandbls.dup
Encoding: 65545 -1 9
Width: 500
Flags: HMW
HStem: -11 22<289 312.5 289 339.5> 0 31<28.5 62> 31 71 102 71 400 31<28.5 106.5 28.5 106.5> 409 22 683 22<262.5 293>
VStem: 106.5 66<76 400 400 400 431 556 556 558 0 606> 126.5 75<3 77.5> 172.5 72 201.5 72<54 77 54 77.5> 244.5 66 293.5 75 296.5 72 368.5 75<534 600.5 534 608> 396.5 75<118 210 118 225>
LayerCount: 2
Fore
SplineSet
471.5 174 m 0x2b12
 471.5 62 382.5 -11 296.5 -11 c 0x8005
 238.5 -11 201.5 25 201.5 65 c 0
 201.5 90 220.5 102 237.5 102 c 0
 257.5 102 273.5 88 273.5 66 c 0
 273.5 42 254.5 32 243.5 30 c 1
 261.5 13 284.5 11 293.5 11 c 0
 331.5 11 396.5 44 396.5 173 c 0
 396.5 277 356.5 399 237.5 409 c 0x9429
 228.5 410 228.5 420 228.5 420 c 1
 228.5 430 235.5 430 244.5 431 c 0
 333.5 439 368.5 500 368.5 564 c 0
 368.5 652 313.5 683 272.5 683 c 0
 252.5 683 172.5 672 172.5 558 c 2
 172.5 0 l 1x4a44
 154.5 3 137.5 3 126.5 3 c 2
 28.5 0 l 1x4080
 28.5 31 l 1
 95.5 31 106.5 31 106.5 76 c 2
 106.5 400 l 1
 28.5 400 l 1
 28.5 431 l 1
 106.5 431 l 1
 106.5 556 l 2
 106.5 656 195.5 705 272.5 705 c 0
 371.5 705 443.5 638 443.5 563 c 0
 443.5 505 399.5 444 310.5 419 c 1
 439.5 366 471.5 246 471.5 174 c 0x2b12
EndSplineSet
EndChar

StartChar: hyphen.dup
Encoding: 65546 -1 10
Width: 333
Flags: HMW
HStem: 187 58<34 299 34 299>
VStem: 34 265<187 245 187 245>
LayerCount: 2
Fore
SplineSet
299 187 m 1
 34 187 l 1
 34 245 l 1
 299 245 l 1
 299 187 l 1
EndSplineSet
EndChar

StartChar: Kcedilla
Encoding: 65547 -1 11
Width: 778
Flags: HMW
HStem: -290 21G<367.5 374> -145 79<376.5 395> 0 31<37.5 61.5> 652 31<37.5 61.5 37.5 37.5>
VStem: 140.5 89<78 253 287 605>
LayerCount: 2
Fore
SplineSet
740.5 0 m 1
 625.5 3 l 2
 587.5 3 517.5 3 482.5 0 c 1
 482.5 31 l 1
 502.5 31 541.5 31 541.5 61 c 0
 541.5 73 532.5 86 526.5 95 c 2
 345.5 363 l 1
 229.5 253 l 1
 229.5 78 l 2
 229.5 42 231.5 31 308.5 31 c 2
 332.5 31 l 1
 332.5 0 l 1
 297.5 3 222.5 3 184.5 3 c 0
 146.5 3 72.5 3 37.5 0 c 1
 37.5 31 l 1
 61.5 31 l 2
 138.5 31 140.5 42 140.5 78 c 2
 140.5 605 l 2
 140.5 641 138.5 652 61.5 652 c 2
 37.5 652 l 1
 37.5 683 l 1
 72.5 680 147.5 680 185.5 680 c 0
 223.5 680 297.5 680 332.5 683 c 1
 332.5 652 l 1
 308.5 652 l 2
 231.5 652 229.5 641 229.5 605 c 2
 229.5 287 l 1
 542.5 586 l 2
 550.5 593 560.5 603 560.5 619 c 0
 560.5 628 554.5 651 514.5 652 c 1
 514.5 683 l 1
 548.5 680 605.5 680 641.5 680 c 0
 668.5 680 700.5 680 726.5 683 c 1
 726.5 652 l 1
 645.5 651 592.5 600 584.5 592 c 2
 404.5 419 l 1
 635.5 79 l 2
 665.5 35 686.5 31 740.5 31 c 1
 740.5 0 l 1
437.5 -145 m 0
 437.5 -231 378.5 -290 369.5 -290 c 0
 365.5 -290 361.5 -287 361.5 -282 c 0
 361.5 -279 362.5 -278 366.5 -274 c 0
 399.5 -238 420.5 -193 419.5 -133 c 1
 411.5 -141 400.5 -145 389.5 -145 c 0
 362.5 -145 349.5 -125 349.5 -106 c 0
 349.5 -86 363.5 -66 389.5 -66 c 0
 419.5 -66 437.5 -97 437.5 -145 c 0
EndSplineSet
EndChar

StartChar: kcedilla
Encoding: 65548 -1 12
Width: 528
Flags: HMW
HStem: -290 21G<232.5 239> -145 79<241.5 260> 0 31<22.5 56> 400 31<300.5 300.5> 652 31<22.5 57.5> 652 42
VStem: 100.5 66<214 596 596 620.5> 241.5 66 346.5 66
LayerCount: 2
Fore
SplineSet
505.5 0 m 1x3780
 476.5 2 447.5 3 418.5 3 c 2
 310.5 0 l 1
 310.5 31 l 1
 329.5 31 346.5 35 346.5 54 c 0
 346.5 72 304.5 128 227.5 234 c 1
 163.5 179 l 1
 163.5 76 l 2
 163.5 31 174.5 31 241.5 31 c 1
 241.5 0 l 1
 131.5 3 l 1
 22.5 0 l 1
 22.5 31 l 1
 89.5 31 100.5 31 100.5 76 c 2
 100.5 596 l 2
 100.5 645 92.5 652 22.5 652 c 1
 22.5 683 l 1xeb80
 166.5 694 l 1
 166.5 214 l 1
 307.5 336 l 2
 315.5 343 329.5 355 329.5 375 c 0
 329.5 388 319.5 399 300.5 400 c 1
 300.5 431 l 1
 314.5 430 376.5 428 412.5 428 c 0
 440.5 428 453.5 428 482.5 431 c 1
 482.5 400 l 1
 461.5 399 419.5 397 356.5 346 c 0
 346.5 338 275.5 278 275.5 274 c 0
 275.5 271 280.5 265 281.5 263 c 2
 408.5 84 l 2
 446.5 31 468.5 31 505.5 31 c 1
 505.5 0 l 1x3780
302.5 -145 m 0
 302.5 -231 243.5 -290 234.5 -290 c 0
 230.5 -290 226.5 -287 226.5 -282 c 0
 226.5 -279 227.5 -278 231.5 -274 c 0
 264.5 -238 285.5 -193 284.5 -133 c 1
 276.5 -141 265.5 -145 254.5 -145 c 0
 227.5 -145 214.5 -125 214.5 -106 c 0
 214.5 -86 228.5 -66 254.5 -66 c 0
 284.5 -66 302.5 -97 302.5 -145 c 0
EndSplineSet
EndChar

StartChar: Lcedilla
Encoding: 65549 -1 13
Width: 625
Flags: HMW
HStem: -290 21G<292 298.5> -145 79<301 319.5> 0 31<38 62 62 100.5 279 361 361 449 38 62> 238 20G<562 587 587 587> 652 31<38 62 38 38>
VStem: 141 89<78 604> 190 89 562 25<258 258>
LayerCount: 2
Fore
SplineSet
587 258 m 1x33
 559 0 l 1
 38 0 l 1
 38 31 l 1
 62 31 l 2
 139 31 141 42 141 78 c 2
 141 605 l 2xf5
 141 641 139 652 62 652 c 2
 38 652 l 1
 38 683 l 1
 73 680 151 680 190 680 c 0x0a
 231 680 322 680 358 683 c 1
 358 652 l 1
 325 652 l 2
 230 652 230 638 230 604 c 2
 230 71 l 2x0c
 230 38 232 31 279 31 c 2
 361 31 l 2
 537 31 551 156 562 258 c 1
 587 258 l 1x33
362 -145 m 0
 362 -231 303 -290 294 -290 c 0
 290 -290 286 -287 286 -282 c 0
 286 -279 287 -278 291 -274 c 0
 324 -238 345 -193 344 -133 c 1
 336 -141 325 -145 314 -145 c 0
 287 -145 274 -125 274 -106 c 0
 274 -86 288 -66 314 -66 c 0
 344 -66 362 -97 362 -145 c 0
EndSplineSet
EndChar

StartChar: lcedilla
Encoding: 65550 -1 14
Width: 278
Flags: HMW
HStem: -290 21G<108 114.5> -145 79<117 135.5> 0 31<28 61.5> 652 31<28 63> 652 42
VStem: 106 66<76 596 596 620.5>
LayerCount: 2
Fore
SplineSet
250 0 m 1x2c
 139 3 l 1
 28 0 l 1
 28 31 l 1
 95 31 106 31 106 76 c 2
 106 596 l 2
 106 645 98 652 28 652 c 1
 28 683 l 1xf4
 172 694 l 1
 172 76 l 2
 172 31 183 31 250 31 c 1
 250 0 l 1x2c
178 -145 m 0
 178 -231 119 -290 110 -290 c 0
 106 -290 102 -287 102 -282 c 0
 102 -279 103 -278 107 -274 c 0
 140 -238 161 -193 160 -133 c 1
 152 -141 141 -145 130 -145 c 0
 103 -145 90 -125 90 -106 c 0
 90 -86 104 -66 130 -66 c 0
 160 -66 178 -97 178 -145 c 0
EndSplineSet
EndChar

StartChar: macron.dup
Encoding: 65551 -1 15
Width: 500
Flags: HMW
HStem: 589 31<69.5 430.5 69.5 430.5>
LayerCount: 2
Fore
SplineSet
430.5 589 m 1
 69.5 589 l 1
 69.5 620 l 1
 430.5 620 l 1
 430.5 589 l 1
EndSplineSet
EndChar

StartChar: Ncedilla
Encoding: 65552 -1 16
Width: 750
Flags: HMW
HStem: -290 21G<349.5 356> -145 79<358.5 377> 0 31<33.5 85> 652 31<33.5 62.5 33.5 203.5>
VStem: 136.5 28<105 625> 585.5 28<151 578>
LayerCount: 2
Fore
SplineSet
716.5 652 m 1
 613.5 652 613.5 605 613.5 578 c 2
 613.5 26 l 2
 613.5 7 613.5 0 599.5 0 c 0
 592.5 0 591.5 1 582.5 13 c 2
 174.5 613 l 2
 170.5 619 169.5 620 164.5 625 c 1
 164.5 105 l 2
 164.5 78 164.5 31 267.5 31 c 1
 267.5 0 l 1
 150.5 3 l 1
 33.5 0 l 1
 33.5 31 l 1
 136.5 31 136.5 78 136.5 105 c 2
 136.5 627 l 2
 136.5 646 135.5 647 112.5 650 c 0
 97.5 651 77.5 652 62.5 652 c 2
 33.5 652 l 1
 33.5 683 l 1
 203.5 683 l 2
 222.5 683 223.5 682 232.5 670 c 2
 585.5 151 l 1
 585.5 578 l 2
 585.5 605 585.5 652 482.5 652 c 1
 482.5 683 l 1
 599.5 680 l 1
 716.5 683 l 1
 716.5 652 l 1
419.5 -145 m 0
 419.5 -231 360.5 -290 351.5 -290 c 0
 347.5 -290 343.5 -287 343.5 -282 c 0
 343.5 -279 344.5 -278 348.5 -274 c 0
 381.5 -238 402.5 -193 401.5 -133 c 1
 393.5 -141 382.5 -145 371.5 -145 c 0
 344.5 -145 331.5 -125 331.5 -106 c 0
 331.5 -86 345.5 -66 371.5 -66 c 0
 401.5 -66 419.5 -97 419.5 -145 c 0
EndSplineSet
EndChar

StartChar: ncedilla
Encoding: 65553 -1 17
Width: 556
Flags: HMW
HStem: -290 21G<246.5 253> -145 79<255.5 274> 0 31<26.5 60> 400 31<26.5 61.5> 420 22<279 340>
VStem: 104.5 69<76 260> 382.5 69<76 252 61 309 61 337.5>
LayerCount: 2
Fore
SplineSet
529.5 0 m 1x2a
 417.5 3 l 1
 304.5 0 l 1
 304.5 31 l 1
 371.5 31 382.5 31 382.5 76 c 2
 382.5 309 l 2
 382.5 366 371.5 420 308.5 420 c 0xea
 244.5 420 173.5 364 173.5 260 c 2
 173.5 76 l 2
 173.5 31 184.5 31 251.5 31 c 1
 251.5 0 l 1
 139.5 3 l 1
 26.5 0 l 1
 26.5 31 l 1
 93.5 31 104.5 31 104.5 76 c 2
 104.5 344 l 2
 104.5 393 96.5 400 26.5 400 c 1
 26.5 431 l 1x34
 167.5 442 l 1
 167.5 337 l 1
 195.5 399 242.5 442 315.5 442 c 0
 373.5 442 406.5 422 420.5 405 c 0
 451.5 369 451.5 338 451.5 252 c 2
 451.5 61 l 1
 452.5 31 477.5 31 529.5 31 c 1
 529.5 0 l 1x2a
316.5 -145 m 0
 316.5 -231 257.5 -290 248.5 -290 c 0
 244.5 -290 240.5 -287 240.5 -282 c 0
 240.5 -279 241.5 -278 245.5 -274 c 0
 278.5 -238 299.5 -193 298.5 -133 c 1
 290.5 -141 279.5 -145 268.5 -145 c 0
 241.5 -145 228.5 -125 228.5 -106 c 0
 228.5 -86 242.5 -66 268.5 -66 c 0
 298.5 -66 316.5 -97 316.5 -145 c 0
EndSplineSet
EndChar

StartChar: OE.dup
Encoding: 65554 -1 18
Width: 1014
Flags: HMW
HStem: -22 22<319 392> 0 31<618.5 728.5 728.5 814> 339 31<569.5 677.5 569.5 677.5> 652 31<595 618.5 618.5 730.5> 683 22<320.5 385 293.5 427.5>
VStem: 49.5 100<255 444.5> 493.5 76<277.5 339 370 395> 791.5 25<222 265 444 487> 911.5 25<458 458> 939.5 25<258 258>
LayerCount: 2
Fore
SplineSet
964.5 258 m 1x73c0
 922.5 0 l 1
 535.5 0 l 2
 519.5 0 506.5 0 458.5 -11 c 0
 421.5 -19 404.5 -22 379.5 -22 c 0
 207.5 -22 49.5 130 49.5 339 c 0
 49.5 550 207.5 705 379.5 705 c 0xae40
 390.5 705 407.5 705 449.5 695 c 0
 504.5 683 518.5 683 535.5 683 c 2
 908.5 683 l 1
 936.5 458 l 1
 911.5 458 l 1
 895.5 593 873.5 652 730.5 652 c 2
 618.5 652 l 2
 571.5 652 569.5 645 569.5 612 c 2
 569.5 370 l 1
 677.5 370 l 2
 777.5 370 791.5 401 791.5 487 c 1
 816.5 487 l 1
 816.5 222 l 1
 791.5 222 l 1
 791.5 308 777.5 339 677.5 339 c 2
 569.5 339 l 1
 569.5 71 l 2
 569.5 38 571.5 31 618.5 31 c 2
 728.5 31 l 2
 899.5 31 914.5 109 939.5 258 c 1
 964.5 258 l 1x73c0
493.5 341 m 0
 493.5 449 493.5 534 488.5 578 c 0
 482.5 635 471.5 683 383.5 683 c 0
 257.5 683 149.5 544 149.5 354 c 0
 149.5 156 254.5 0 383.5 0 c 0
 467.5 0 482.5 43 489.5 109 c 0
 493.5 155 493.5 214 493.5 341 c 0
EndSplineSet
EndChar

StartChar: oe.dup
Encoding: 65555 -1 19
Width: 778
Flags: HMW
HStem: -11 22<231.5 258.5 231.5 281.5> -11 25<593.5 629.5 593.5 651> 231 21<452.5 683.5 452.5 724.5 451.5 683.5> 426 22<230 251.5 563.5 629>
VStem: 28.5 77<154 284> 382.5 69<127.5 231 122.5 320.5> 683.5 66<252 252>
LayerCount: 2
Fore
SplineSet
749.5 119 m 0x7e
 749.5 100 707.5 -11 594.5 -11 c 0
 533.5 -11 461.5 20 417.5 93 c 1
 384.5 37 321.5 -11 241.5 -11 c 0
 126.5 -11 28.5 89 28.5 219 c 0
 28.5 349 127.5 448 241.5 448 c 0
 317.5 448 380.5 404 416.5 347 c 1
 456.5 414 519.5 448 582.5 448 c 0
 691.5 448 749.5 363 749.5 252 c 0
 749.5 231 746.5 231 724.5 231 c 2
 451.5 231 l 1
 451.5 14 588.5 14 598.5 14 c 0
 660.5 14 706.5 61 721.5 111 c 0
 726.5 127 727.5 131 736.5 131 c 0
 741.5 131 749.5 129 749.5 119 c 0x7e
683.5 252 m 1
 681.5 291 676.5 426 581.5 426 c 0
 545.5 426 462.5 398 452.5 252 c 1
 683.5 252 l 1
382.5 223 m 0
 382.5 418 260.5 426 242.5 426 c 0
 217.5 426 105.5 416 105.5 223 c 0
 105.5 20 220.5 11 242.5 11 c 0x9c
 274.5 11 382.5 32 382.5 223 c 0
EndSplineSet
EndChar

StartChar: Oslash.dup
Encoding: 65556 -1 20
Width: 778
Flags: HMW
HStem: -56 21G<132.5 132.5> -22 22<358.5 425.5 358.5 479.5> 683 22<353.5 434.5> 719 20G<644.5 644.5>
VStem: 56.5 89<275 367 275 442> 576.5 89<642 725> 632.5 89<313.5 371>
LayerCount: 2
Fore
SplineSet
721.5 339 m 0xfc
 721.5 137 570.5 -22 388.5 -22 c 0
 300.5 -22 241.5 11 200.5 40 c 1
 132.5 -56 l 1
 112.5 -42 l 1
 120.5 -31 l 1
 180.5 58 l 1
 136.5 95 56.5 190 56.5 339 c 0
 56.5 545 209.5 705 388.5 705 c 0
 482.5 705 545.5 662 569.5 647 c 1
 574.5 642 576.5 642 576.5 642 c 1
 644.5 739 l 1
 665.5 725 l 1
 596.5 624 l 1
 671.5 554 721.5 463 721.5 339 c 0xfc
554.5 607 m 1
 535.5 627 480.5 683 388.5 683 c 0
 318.5 683 244.5 647 197.5 572 c 0
 148.5 494 145.5 395 145.5 339 c 0
 145.5 211 171.5 146 206.5 97 c 1
 554.5 607 l 1
632.5 339 m 0
 632.5 403 627.5 510 570.5 586 c 1
 223.5 76 l 1
 266.5 27 327.5 0 389.5 0 c 0
 461.5 0 530.5 38 574.5 100 c 0
 630.5 181 632.5 288 632.5 339 c 0
EndSplineSet
EndChar

StartChar: oslash.dup
Encoding: 65557 -1 21
Width: 500
Flags: HMW
HStem: -102 22<67.5 79.5> -11 22<238 270 238 309> 426 22<231.5 269.5> 514 20G<420.5 420.5>
VStem: 35.5 69<186 235 186 277.5> 60.5 69 395.5 69<197.5 234.5>
LayerCount: 2
Fore
SplineSet
464.5 213 m 0x38
 464.5 89 368.5 -11 249.5 -11 c 0
 207.5 -11 170.5 3 147.5 16 c 1
 79.5 -102 l 1
 60.5 -90 l 1
 67.5 -80 l 1
 129.5 28 l 1xc6
 75.5 66 35.5 133 35.5 213 c 0
 35.5 342 131.5 448 250.5 448 c 0
 293.5 448 331.5 433 354.5 418 c 1
 420.5 534 l 1
 439.5 522 l 1
 372.5 406 l 1
 410.5 378 464.5 311 464.5 213 c 0x38
338.5 392 m 1
 320.5 408 289.5 426 249.5 426 c 0
 213.5 426 163.5 409 133.5 357 c 0
 106.5 312 104.5 256 104.5 214 c 0x6a
 104.5 158 109.5 101 146.5 59 c 1
 338.5 392 l 1
395.5 214 m 0
 395.5 255 393.5 328 354.5 374 c 1
 163.5 42 l 1
 191.5 18 225.5 11 250.5 11 c 0
 289.5 11 337.5 29 366.5 75 c 0
 395.5 121 395.5 181 395.5 214 c 0
EndSplineSet
EndChar

StartChar: quoteleft.dup
Encoding: 65558 -1 22
Width: 278
Flags: HMW
HStem: 394 106<136 163.5> 673 20G<167.5 175.5>
VStem: 79 22<497 515 497 558>
LayerCount: 2
Fore
SplineSet
199 447 m 0
 199 421 181 394 146 394 c 0
 103 394 79 439 79 499 c 0
 79 617 162 693 173 693 c 0
 178 693 183 689 183 682 c 0
 183 679 183 677 171 665 c 0
 108 603 101 531 101 499 c 0
 101 495 103 481 103 481 c 1
 103 481 105 482 106 484 c 0
 112 490 126 500 146 500 c 0
 182 500 199 473 199 447 c 0
EndSplineSet
EndChar

StartChar: quoteright.dup
Encoding: 65559 -1 23
Width: 278
Flags: HMW
HStem: 395 21G<102.5 110.5> 588 106<114.5 142>
VStem: 177 22<573 591>
LayerCount: 2
Fore
SplineSet
199 589 m 0
 199 471 116 395 105 395 c 0
 100 395 95 399 95 406 c 0
 95 409 95 411 107 423 c 0
 170 485 177 557 177 589 c 0
 177 593 175 607 175 607 c 1
 175 607 173 606 172 604 c 0
 166 598 152 588 132 588 c 0
 96 588 79 615 79 641 c 0
 79 667 97 694 132 694 c 0
 175 694 199 649 199 589 c 0
EndSplineSet
EndChar

StartChar: Rcedilla
Encoding: 65560 -1 24
Width: 736
Flags: HMW
HStem: -290 21G<326.5 333> -145 79<335.5 354> -22 22<606.5 638> 0 31<19.5 43.5> 331 22<208.5 319.5 319.5 323.5 208.5 319.5> 652 31<19.5 43.5 19.5 333.5 279.5 333.5 333.5 334.5>
VStem: 19.5 103<0 605 31 605 78 683 78 683> 122.5 86<78 331 353 605 605 612> 208.5 103<0 78 0 331> 230.5 103 333.5 86 491.5 103<468.5 551 464 575.5> 690.5 26
LayerCount: 2
Fore
SplineSet
716.5 88 m 0x2630
 716.5 60 699.5 -22 621.5 -22 c 0xed58
 591.5 -22 536.5 -16 495.5 20 c 1
 454.5 58 454.5 98 454.5 163 c 0
 454.5 230 454.5 261 416.5 297 c 0
 381.5 331 339.5 331 323.5 331 c 2
 208.5 331 l 1
 208.5 78 l 2
 208.5 42 210.5 31 287.5 31 c 2
 311.5 31 l 1
 311.5 0 l 1
 275.5 3 204.5 3 165.5 3 c 0
 126.5 3 55.5 3 19.5 0 c 1
 19.5 31 l 1
 43.5 31 l 2x1a80
 120.5 31 122.5 42 122.5 78 c 2
 122.5 605 l 2
 122.5 641 120.5 652 43.5 652 c 2
 19.5 652 l 1
 19.5 683 l 1
 333.5 683 l 2
 480.5 683 594.5 599 594.5 503 c 0
 594.5 425 516.5 364 419.5 340 c 1
 474.5 321 523.5 288 541.5 224 c 1
 554.5 144 l 1
 568.5 51 576.5 0 625.5 0 c 0
 650.5 0 685.5 18 691.5 89 c 0
 692.5 96 692.5 105 703.5 105 c 0
 716.5 105 716.5 94 716.5 88 c 0x2630
491.5 503 m 0
 491.5 648 379.5 652 289.5 652 c 0
 269.5 652 240.5 652 230.5 650 c 0
 208.5 647 208.5 635 208.5 612 c 2
 208.5 353 l 1
 319.5 353 l 2
 467.5 353 491.5 434 491.5 503 c 0
396.5 -145 m 0
 396.5 -231 337.5 -290 328.5 -290 c 0
 324.5 -290 320.5 -287 320.5 -282 c 0
 320.5 -279 321.5 -278 325.5 -274 c 0
 358.5 -238 379.5 -193 378.5 -133 c 1
 370.5 -141 359.5 -145 348.5 -145 c 0
 321.5 -145 308.5 -125 308.5 -106 c 0
 308.5 -86 322.5 -66 348.5 -66 c 0
 378.5 -66 396.5 -97 396.5 -145 c 0
EndSplineSet
EndChar

StartChar: rcedilla
Encoding: 65561 -1 25
Width: 392
Flags: MW
HStem: -290 21G<113 119.5> -145 79<122 140.5> 0 31<28 61.5> 400 31<28 63> 420 22<253.5 293.5>
VStem: 106 66<76 78 78 232> 278 86<366 393>
LayerCount: 2
Fore
SplineSet
364 381 m 0x08
 364 349 339 337 321 337 c 0
 299 337 278 352 278 380 c 0
 278 406 298 418 301 419 c 1
 299 420 297 420 290 420 c 0xca
 214 420 172 331 172 232 c 2
 172 78 l 2
 172 42 174 31 248 31 c 2
 269 31 l 1
 269 0 l 1
 229 3 182 3 142 3 c 1
 28 0 l 1
 28 31 l 1
 95 31 106 31 106 76 c 2
 106 344 l 2
 106 393 98 400 28 400 c 1
 28 431 l 1x34
 167 442 l 1
 167 332 l 1
 181 375 217 442 290 442 c 0
 333 442 364 413 364 381 c 0x08
183 -145 m 0
 183 -231 124 -290 115 -290 c 0
 111 -290 107 -287 107 -282 c 0
 107 -279 108 -278 112 -274 c 0
 145 -238 166 -193 165 -133 c 1
 157 -141 146 -145 135 -145 c 0
 108 -145 95 -125 95 -106 c 0
 95 -86 109 -66 135 -66 c 0
 165 -66 183 -97 183 -145 c 0
EndSplineSet
EndChar

StartChar: tilde.dup
Encoding: 65562 -1 26
Width: 500
Flags: HMW
HStem: 558 45<307 327.5> 606 45<172.5 193>
LayerCount: 2
Fore
SplineSet
416.5 636 m 1
 365.5 580 346.5 558 308.5 558 c 0
 291.5 558 273.5 565 246.5 581 c 0
 229.5 591 204.5 606 181.5 606 c 0
 137.5 606 99.5 558 99.5 558 c 1
 83.5 573 l 1
 134.5 629 153.5 651 191.5 651 c 0
 208.5 651 226.5 644 253.5 628 c 0
 270.5 618 295.5 603 318.5 603 c 0
 362.5 603 400.5 651 400.5 651 c 1
 416.5 636 l 1
EndSplineSet
EndChar

StartChar: A
Encoding: 65 65 27
Width: 547
Flags: HMW
HStem: 0 31<23.4747 23.4747> 228 31<170.205 334.455 170.205 342.485 162.175 334.455> 696 20G<256.345 279.705 268.025 290.655>
LayerCount: 2
Fore
SplineSet
523.525 0 m 1
 427.895 3 l 2
 400.154 3 349.055 3 322.775 0 c 1
 322.775 31 l 1
 342.484 31 383.365 31 383.365 61 c 0
 383.365 65 381.904 71 381.174 75 c 2
 342.484 228 l 1
 162.174 228 l 1
 128.596 97 l 2
 127.865 95 127.135 85 127.135 82 c 0
 127.135 56 145.385 31 181.885 31 c 1
 181.885 0 l 1
 97.9355 3 l 1
 23.4746 0 l 1
 23.4746 31 l 1
 62.8945 32 92.0957 47 105.234 98 c 2
 256.346 696 l 2
 259.994 710 262.186 716 273.865 716 c 0
 285.545 716 287.004 709 290.654 696 c 2
 448.334 71 l 2
 456.365 38 466.584 31 510.385 31 c 2
 523.525 31 l 1
 523.525 0 l 1
334.455 259 m 1
 251.965 584 l 1
 170.205 259 l 1
 334.455 259 l 1
EndSplineSet
Position2: "'cpsp' Capital Spacing lookup 0 subtable" dx=5 dy=0 dh=10 dv=0
EndChar

StartChar: a
Encoding: 97 97 28
Width: 500
Flags: HMW
HStem: -11 22<167 214 167 217.5> -6 31<398 404> 288 90 426 22<186.5 227>
VStem: 24.5 77<71 117> 308.5 69<140 240 240 240 261 275> 450.5 25<89 145>
LayerCount: 2
Fore
SplineSet
475.5 89 m 2x7e
 475.5 8 414.5 -6 393.5 -6 c 0x42
 346.5 -6 319.5 36 315.5 76 c 1
 296.5 29 250.5 -11 184.5 -11 c 0x80
 121.5 -11 24.5 14 24.5 95 c 0
 24.5 139 49.5 191 124.5 225 c 1
 187.5 255 257.5 258 308.5 261 c 1
 308.5 298 l 2
 308.5 387 251.5 426 202.5 426 c 0
 170.5 426 121.5 415 94.5 380 c 1
 140.5 379 145.5 346 145.5 334 c 0
 145.5 308 127.5 288 99.5 288 c 0
 73.5 288 53.5 305 53.5 335 c 0
 53.5 401 122.5 448 204.5 448 c 0
 252.5 448 302.5 432 341.5 393 c 0
 377.5 356 377.5 317 377.5 275 c 2
 377.5 75 l 2
 377.5 70 381.5 25 414.5 25 c 0
 425.5 25 450.5 31 450.5 89 c 2
 450.5 145 l 1
 475.5 145 l 1
 475.5 89 l 2x7e
308.5 140 m 2
 308.5 240 l 1
 143.5 234 101.5 151 101.5 96 c 0
 101.5 46 142.5 11 191.5 11 c 0x8c
 236.5 11 308.5 45 308.5 140 c 2
EndSplineSet
EndChar

StartChar: ampersand
Encoding: 38 38 29
Width: 567
Flags: HMW
HStem: -22 31<141.15 181.665 141.15 196.63 409.425 445.56> 298 31 400 31<373.655 390.445> 409 22 694 22<209.77 244.445>
VStem: 33.4749 60.59<133 155> 121.805 45.99<562.5 608> 171.445 18.25 266.345 18.25<555 588> 510.895 18.25<121 121>
LayerCount: 2
Fore
SplineSet
533.525 400 m 1xeec0
 468.555 399 453.225 364 424.756 298 c 0
 391.176 219 361.975 151 328.395 98 c 1
 351.756 60 389.715 9 429.135 9 c 0
 461.984 9 508.705 42 510.895 121 c 1
 529.145 121 l 1
 527.686 35 481.695 -22 426.215 -22 c 0
 391.176 -22 348.105 -6 297.734 54 c 1
 270.725 21 227.654 -22 165.605 -22 c 0
 93.334 -22 33.4746 41 33.4746 128 c 0
 33.4746 182 52.4551 209 85.3047 255 c 1
 151.734 352 l 1
 126.186 441 121.805 513 121.805 555 c 0
 121.805 661 175.824 716 221.084 716 c 0
 272.914 716 284.596 633 284.596 587 c 0
 284.596 521 234.955 445 195.535 385 c 1
 227.654 270 307.225 133 316.715 118 c 1
 348.105 171 380.955 239 421.105 336 c 0
 421.834 339 425.484 346 425.484 356 c 0
 425.484 381 407.234 400 373.654 400 c 1
 373.654 431 l 1
 393.365 429 454.686 428 462.715 428 c 2
 533.525 431 l 1
 533.525 400 l 1xeec0
266.346 588 m 1
 266.346 588 266.346 694 222.545 694 c 0
 196.994 694 167.795 662 167.795 578 c 0
 167.795 547 169.984 489 189.695 409 c 1xdf80
 207.215 435 266.346 522 266.346 588 c 1
283.865 73 m 1
 256.855 110 230.574 162 216.705 190 c 0
 185.314 252 174.365 282 158.305 329 c 1
 118.885 277 94.0645 241 94.0645 160 c 0
 94.0645 106 110.855 9 171.445 9 c 0
 191.885 9 237.145 16 283.865 73 c 1
EndSplineSet
Substitution2: "'lnum' Lining Figures lookup 5 subtable" ampersand
Substitution2: "'onum' Oldstyle Figures lookup 4 subtable" ampersand
Substitution2: "'aalt' Access All Alternates lookup 0 subtable" ampersand
EndChar

StartChar: asciicircum
Encoding: 94 94 30
Width: 556
Flags: MW
HStem: 562 21G<6 6 549 549> 685 59<277 278>
VStem: -5 566<584 584>
LayerCount: 2
Fore
SplineSet
561 584 m 1
 549 562 l 1
 277 685 l 1
 6 562 l 1
 -5 584 l 1
 278 744 l 1
 561 584 l 1
EndSplineSet
EndChar

StartChar: asciitilde
Encoding: 126 126 31
Width: 556
Flags: HMW
HStem: 193 43<368.5 384> 211 43 246 43 264 43<172 187.5>
LayerCount: 2
Fore
SplineSet
555.5 290 m 1x90
 501.5 246 l 2x20
 484.5 232 464.5 221 444.5 211 c 0x40
 422.5 201 396.5 193 371.5 193 c 0
 331.5 193 300.5 210 271.5 227 c 0
 236.5 247 207.5 264 167.5 264 c 0
 116.5 264 63.5 234 14.5 193 c 1x90
 0.5 210 l 1
 54.5 254 l 2x40
 71.5 268 91.5 279 111.5 289 c 0x20
 133.5 299 159.5 307 184.5 307 c 0
 224.5 307 255.5 290 284.5 273 c 0
 319.5 253 348.5 236 388.5 236 c 0
 439.5 236 492.5 266 541.5 307 c 1
 555.5 290 l 1x90
EndSplineSet
EndChar

StartChar: asterisk
Encoding: 42 42 32
Width: 500
Flags: HMW
HStem: 319 21G<243 257.5> 730 20G<242.5 257>
VStem: 65.5 369<441 446.5 434.5 447 622.5 634.5>
LayerCount: 2
Fore
SplineSet
434.5 441 m 0
 434.5 428 423.5 413 407.5 413 c 0
 399.5 413 396.5 416 391.5 419 c 2
 261.5 514 l 1
 276.5 344 l 1
 276.5 331 265.5 319 249.5 319 c 0
 236.5 319 223.5 329 223.5 344 c 1
 238.5 514 l 1
 98.5 413 l 1
 65.5 413 65.5 441 65.5 441 c 1
 65.5 453 69.5 460 88.5 469 c 2
 227.5 535 l 1
 86.5 601 l 2
 69.5 609 65.5 617 65.5 628 c 0
 65.5 641 76.5 656 92.5 656 c 0
 98.5 656 100.5 656 114.5 645 c 2
 238.5 555 l 1
 223.5 725 l 1
 223.5 738 234.5 750 250.5 750 c 0
 263.5 750 276.5 740 276.5 725 c 1
 261.5 555 l 1
 372.5 637 l 2
 398.5 656 400.5 656 407.5 656 c 0
 423.5 656 434.5 641 434.5 628 c 0
 434.5 616 430.5 609 411.5 600 c 2
 272.5 534 l 1
 413.5 468 l 2
 430.5 460 434.5 452 434.5 441 c 0
EndSplineSet
EndChar

StartChar: at
Encoding: 64 64 33
Width: 567
Flags: HMW
HStem: -11 22<220.355 306.495> 128 22<258.315 291.895 258.315 302.115 441.91 478.775> 461 20G<399.205 411.615 411.615 420.01> 544 22<257.95 296.275> 683 22<223.275 333.14>
VStem: 40.775 18.25<257.5 442.5 257.5 446.5> 137.865 50.37<291.5 402.5 291.5 410> 368.545 50.37 378.765 50.37<262 432 432 441> 451.765 50.37 507.975 18.25<286 452.5>
LayerCount: 2
Fore
SplineSet
526.225 338 m 0xcd60
 526.225 231 516.006 128 451.766 128 c 0
 424.025 128 386.064 147 378.766 199 c 1
 356.865 157 321.824 128 282.404 128 c 0
 207.215 128 137.865 221 137.865 347 c 0
 137.865 473 207.215 566 282.404 566 c 0
 310.875 566 348.836 552 382.414 489 c 0
 386.795 482 387.525 481 399.205 481 c 2
 411.615 481 l 2
 428.404 481 429.135 480 429.135 457 c 2
 429.135 216 l 2x72e0
 429.135 201 429.135 150 454.686 150 c 0
 502.865 150 507.975 240 507.975 332 c 0
 507.975 573 383.145 683 283.135 683 c 0
 163.414 683 59.0254 538 59.0254 347 c 0
 59.0254 168 153.926 11 286.785 11 c 0
 355.404 11 423.295 35 485.346 75 c 0
 488.994 78 490.455 78 502.135 78 c 2
 508.705 78 l 2
 520.385 78 525.494 78 525.494 68 c 0
 525.494 52 437.895 17 418.914 11 c 0
 372.195 -4 325.475 -11 287.516 -11 c 0
 141.516 -11 40.7754 159 40.7754 347 c 0
 40.7754 546 150.275 705 283.865 705 c 0
 401.395 705 526.225 572 526.225 338 c 0xcd60
378.766 262 m 2
 378.766 432 l 2x0080
 378.766 450 378.766 453 369.275 472 c 0
 342.994 528 307.955 544 284.596 544 c 0
 231.305 544 188.234 458 188.234 347 c 0
 188.234 236 232.035 150 284.596 150 c 0
 299.195 150 336.426 156 368.545 219 c 0x53
 378.766 240 378.766 244 378.766 262 c 2
EndSplineSet
EndChar

StartChar: B
Encoding: 66 66 34
Width: 516
Flags: HMW
HStem: 0 31<33.5246 51.0446 51.0446 79.1496 205.075 296.325 296.325 319.685 33.5246 51.0446> 344 22<169.305 275.155 275.155 306.545 169.305 275.155> 652 31<33.5246 51.0446 33.5246 300.705 187.92 205.075 205.075 295.595>
VStem: 108.715 60.59<78 344 366 605 605 612> 391.955 70.81<482 540.5> 409.475 73<148.5 217.5>
LayerCount: 2
Fore
SplineSet
482.475 183 m 0xb8
 482.475 89 416.775 0 319.686 0 c 2
 33.5254 0 l 1
 33.5254 31 l 1
 51.0449 31 l 2
 107.254 31 108.715 42 108.715 78 c 2
 108.715 605 l 2
 108.715 641 107.254 652 51.0449 652 c 2
 33.5254 652 l 1
 33.5254 683 l 1
 300.705 683 l 2
 395.605 683 462.764 601 462.764 514 c 0
 462.764 440 412.395 376 341.584 357 c 1
 422.615 345 482.475 270 482.475 183 c 0xb8
391.955 514 m 0
 391.955 567 366.404 652 295.594 652 c 2
 205.074 652 l 2
 170.764 652 169.305 645 169.305 612 c 2
 169.305 366 l 1
 275.154 366 l 2
 356.186 366 391.955 450 391.955 514 c 0
409.475 184 m 0
 409.475 251 378.814 344 306.545 344 c 2
 169.305 344 l 1
 169.305 71 l 2
 169.305 38 170.764 31 205.074 31 c 2
 296.324 31 l 2
 371.514 31 409.475 113 409.475 184 c 0
EndSplineSet
Position2: "'cpsp' Capital Spacing lookup 0 subtable" dx=5 dy=0 dh=10 dv=0
EndChar

StartChar: b
Encoding: 98 98 35
Width: 556
Flags: HMW
HStem: -11 22<275 324.5 275 361> 72 42 420 22<295.5 330> 652 42
VStem: 109.5 66<377 596 596 620.5> 109.5 83 441.5 83<198.5 237.5>
LayerCount: 2
Fore
SplineSet
524.5 216 m 0xba
 524.5 87 420.5 -11 301.5 -11 c 0
 227.5 -11 185.5 39 170.5 62 c 1
 134.5 0 l 1
 109.5 0 l 1
 109.5 596 l 2
 109.5 645 101.5 652 31.5 652 c 1
 31.5 683 l 1
 175.5 694 l 1
 175.5 377 l 1
 191.5 395 234.5 442 312.5 442 c 0
 426.5 442 524.5 343 524.5 216 c 0xba
441.5 217 m 0
 441.5 258 438.5 315 412.5 356 c 0
 388.5 394 352.5 420 307.5 420 c 0
 283.5 420 228.5 412 189.5 356 c 0
 178.5 340 178.5 339 178.5 320 c 2
 178.5 114 l 2
 178.5 96 178.5 93 192.5 72 c 0x66
 216.5 35 252.5 11 297.5 11 c 0
 351.5 11 389.5 44 410.5 75 c 0
 439.5 120 441.5 180 441.5 217 c 0
EndSplineSet
EndChar

StartChar: backslash
Encoding: 92 92 36
Width: 500
Flags: HMW
HStem: -250 21G<416.5 429> 730 20G<56.5 83.5>
VStem: 56.5 387
LayerCount: 2
Fore
SplineSet
443.5 -230 m 1
 443.5 -241 434.5 -250 423.5 -250 c 0
 409.5 -250 405.5 -239 401.5 -228 c 2
 61.5 712 l 2
 56.5 725 56.5 730 56.5 730 c 1
 56.5 741 65.5 750 76.5 750 c 0
 90.5 750 94.5 739 98.5 728 c 2
 438.5 -212 l 2
 443.5 -225 443.5 -230 443.5 -230 c 1
EndSplineSet
EndChar

StartChar: bar
Encoding: 124 124 37
Width: 278
Flags: MW
HStem: -250 21G<129 149> 730 20G<129 149>
VStem: 119 40<-217 717>
LayerCount: 2
Fore
SplineSet
159 -217 m 2
 159 -231 159 -250 139 -250 c 0
 119 -250 119 -231 119 -217 c 2
 119 717 l 2
 119 731 119 750 139 750 c 0
 159 750 159 731 159 717 c 2
 159 -217 l 2
EndSplineSet
EndChar

StartChar: braceleft
Encoding: 123 123 38
Width: 500
Flags: HMW
HStem: -250 21G<392 413.5> 237 24 730 20G<357.5 413.5>
VStem: 216.5 67<-83 56 444 563>
LayerCount: 2
Fore
SplineSet
427.5 -239 m 0
 427.5 -250 419.5 -250 407.5 -250 c 0
 376.5 -250 311.5 -242 268.5 -212 c 0
 216.5 -175 216.5 -141 216.5 -83 c 2
 216.5 115 l 2
 216.5 215 131.5 236 88.5 239 c 0
 78.5 240 72.5 240 72.5 250 c 0
 72.5 260 79.5 261 86.5 261 c 0
 149.5 265 176.5 292 190.5 306 c 0
 216.5 334 216.5 350 216.5 444 c 2
 216.5 627 l 1
 218.5 699 307.5 750 407.5 750 c 0
 419.5 750 427.5 750 427.5 739 c 0
 427.5 733 423.5 729 418.5 728 c 0
 348.5 724 325.5 700 307.5 682 c 0
 283.5 657 283.5 635 283.5 563 c 2
 283.5 383 l 2
 283.5 355 283.5 284 165.5 250 c 1
 204.5 239 268.5 213 281.5 147 c 0
 283.5 137 283.5 86 283.5 56 c 2
 283.5 -94 l 2
 283.5 -129 283.5 -131 286.5 -142 c 0
 295.5 -178 332.5 -223 411.5 -228 c 0
 421.5 -229 427.5 -229 427.5 -239 c 0
EndSplineSet
EndChar

StartChar: braceright
Encoding: 125 125 39
Width: 500
Flags: HMW
HStem: -250 21G<87.5 142.5> 239 21G<413.5 417> 730 20G<87.5 108.5>
VStem: 216.5 67<-63 56 -127 117 -127 131 444 583>
LayerCount: 2
Fore
SplineSet
427.5 250 m 0
 427.5 240 420.5 239 413.5 239 c 0
 350.5 235 323.5 208 309.5 194 c 0
 283.5 166 283.5 150 283.5 56 c 2
 283.5 -127 l 1
 281.5 -199 192.5 -250 92.5 -250 c 0
 82.5 -250 72.5 -250 72.5 -239 c 0
 72.5 -233 76.5 -229 81.5 -228 c 0
 151.5 -224 174.5 -200 192.5 -182 c 0
 216.5 -157 216.5 -135 216.5 -63 c 2
 216.5 117 l 2
 216.5 145 216.5 216 334.5 250 c 1
 295.5 261 231.5 287 218.5 353 c 0
 216.5 363 216.5 414 216.5 444 c 2
 216.5 594 l 2
 216.5 629 216.5 631 213.5 642 c 0
 204.5 678 167.5 723 88.5 728 c 0
 78.5 729 72.5 729 72.5 739 c 0
 72.5 750 82.5 750 92.5 750 c 0
 124.5 750 188.5 741 231.5 712 c 1
 283.5 675 283.5 641 283.5 583 c 2
 283.5 385 l 2
 283.5 285 368.5 264 411.5 261 c 0
 421.5 260 427.5 260 427.5 250 c 0
EndSplineSet
EndChar

StartChar: bracketleft
Encoding: 91 91 40
Width: 278
Flags: HMW
HStem: -250 40<110.5 207.5 110.5 207.5> 710 40<110.5 207.5 110.5 110.5>
VStem: 70.5 40<-210 710 -210 750>
LayerCount: 2
Fore
SplineSet
207.5 -250 m 1
 70.5 -250 l 1
 70.5 750 l 1
 207.5 750 l 1
 207.5 710 l 1
 110.5 710 l 1
 110.5 -210 l 1
 207.5 -210 l 1
 207.5 -250 l 1
EndSplineSet
EndChar

StartChar: bracketright
Encoding: 93 93 41
Width: 278
Flags: HMW
HStem: -250 40<70.5 167.5 70.5 207.5 70.5 167.5> 710 40<70.5 167.5 70.5 207.5>
VStem: 167.5 40<-210 710 710 710>
LayerCount: 2
Fore
SplineSet
207.5 -250 m 1
 70.5 -250 l 1
 70.5 -210 l 1
 167.5 -210 l 1
 167.5 710 l 1
 70.5 710 l 1
 70.5 750 l 1
 207.5 750 l 1
 207.5 -250 l 1
EndSplineSet
EndChar

StartChar: C
Encoding: 67 67 42
Width: 527
Flags: HMW
HStem: -22 31<281.75 343.8 281.75 354.75> 674 31<281.02 330.295 227 343.07>
VStem: 41.215 75.19<238.5 444> 463.885 21.9
LayerCount: 2
Fore
SplineSet
485.785 233 m 0
 485.785 117 414.245 -22 295.255 -22 c 0
 159.475 -22 41.2148 135 41.2148 342 c 0
 41.2148 546 158.745 705 295.255 705 c 0
 365.335 705 402.565 655 429.575 619 c 1
 466.075 693 l 2
 471.915 705 474.835 705 477.755 705 c 0
 485.785 705 485.785 698 485.785 681 c 2
 485.785 444 l 2
 485.785 423 485.785 420 474.104 420 c 0
 463.885 420 463.885 423 462.425 437 c 0
 447.825 583 382.854 674 303.285 674 c 0
 258.755 674 116.405 640 116.405 341 c 0
 116.405 43 259.485 9 304.015 9 c 0
 383.585 9 461.695 91 467.535 234 c 0
 468.265 244 468.265 250 476.295 250 c 0
 485.785 250 485.785 243 485.785 233 c 0
EndSplineSet
Position2: "'cpsp' Capital Spacing lookup 0 subtable" dx=5 dy=0 dh=10 dv=0
EndChar

StartChar: c
Encoding: 99 99 43
Width: 444
Flags: HMW
HStem: -11 25<229 274 229 313.5> 294 92<355.5 355.5> 423 25<223 254>
VStem: 31.5 83<152 278> 309.5 92<327 346.5>
LayerCount: 2
Fore
SplineSet
412.5 119 m 0
 412.5 109 380.5 -11 246.5 -11 c 0
 130.5 -11 31.5 88 31.5 216 c 0
 31.5 340 123.5 448 248.5 448 c 0
 325.5 448 401.5 409 401.5 341 c 0
 401.5 311 381.5 294 355.5 294 c 0
 327.5 294 309.5 314 309.5 340 c 0
 309.5 353 315.5 383 356.5 386 c 1
 321.5 422 258.5 423 249.5 423 c 0
 196.5 423 114.5 381 114.5 218 c 0
 114.5 57 202.5 14 255.5 14 c 0
 292.5 14 357.5 26 386.5 119 c 0
 388.5 125 390.5 129 399.5 129 c 0
 402.5 129 412.5 129 412.5 119 c 0
EndSplineSet
EndChar

StartChar: colon
Encoding: 58 58 44
Width: 278
Flags: MW
HStem: 0 106<124.5 153.5> 325 106<124.5 153.5>
VStem: 86 106<38.5 67.5 363.5 392.5>
LayerCount: 2
Fore
SplineSet
192 378 m 0
 192 349 168 325 139 325 c 0
 110 325 86 349 86 378 c 0
 86 407 110 431 139 431 c 0
 168 431 192 407 192 378 c 0
192 53 m 0
 192 24 168 0 139 0 c 0
 110 0 86 24 86 53 c 0
 86 82 110 106 139 106 c 0
 168 106 192 82 192 53 c 0
EndSplineSet
EndChar

StartChar: comma
Encoding: 44 44 45
Width: 278
Flags: HMW
HStem: -193 21G<104 112.5> 0 106<116 141>
VStem: 175.5 22
LayerCount: 2
Fore
SplineSet
197.5 1 m 0
 197.5 -114 118.5 -193 106.5 -193 c 0
 101.5 -193 96.5 -189 96.5 -182 c 0
 96.5 -178 97.5 -177 103.5 -171 c 0
 147.5 -124 175.5 -63 173.5 16 c 1
 162.5 6 148.5 0 133.5 0 c 0
 97.5 0 80.5 27 80.5 53 c 0
 80.5 79 98.5 106 133.5 106 c 0
 173.5 106 197.5 65 197.5 1 c 0
EndSplineSet
EndChar

StartChar: D
Encoding: 68 68 46
Width: 557
Flags: HMW
HStem: 0 31<33.2199 50.7399 50.7399 78.8449 206.96 280.69 280.69 300.4 33.2199 50.7399> 652 31<33.2199 50.7399 33.2199 300.4 189.805 206.96 206.96 279.96>
VStem: 108.41 62.78<78 605 605 612> 206.96 73<652 652> 450.78 73<280.5 375>
LayerCount: 2
Fore
SplineSet
523.78 336 m 0
 523.78 148 423.04 0 300.4 0 c 2
 33.2197 0 l 1
 33.2197 31 l 1
 50.7402 31 l 2
 106.95 31 108.41 42 108.41 78 c 2
 108.41 605 l 2
 108.41 641 106.95 652 50.7402 652 c 2
 33.2197 652 l 1
 33.2197 683 l 1
 300.4 683 l 2
 425.229 683 523.78 526 523.78 336 c 0
450.78 336 m 0
 450.78 414 444.21 500 412.82 559 c 0
 375.59 630 325.22 652 279.96 652 c 2
 206.96 652 l 2
 172.65 652 171.189 645 171.189 612 c 2
 171.189 71 l 2
 171.189 38 172.65 31 206.96 31 c 2
 280.689 31 l 2
 354.42 31 396.03 89 410.63 116 c 0
 436.91 165 450.78 225 450.78 336 c 0
EndSplineSet
Position2: "'cpsp' Capital Spacing lookup 0 subtable" dx=5 dy=0 dh=10 dv=0
EndChar

StartChar: d
Encoding: 100 100 47
Width: 556
Flags: HMW
HStem: -11 22<226 270 226 275.5> 0 31<489.5 524.5> 87 31 420 22<231.5 276> 652 31<302.5 337.5> 652 42
VStem: 31.5 83<193.5 232.5 193.5 279.5> 380.5 66<380 596 596 620.5>
LayerCount: 2
Fore
SplineSet
524.5 0 m 1x65
 377.5 -11 l 1
 377.5 55 l 1
 352.5 23 307.5 -11 243.5 -11 c 0
 129.5 -11 31.5 88 31.5 215 c 0
 31.5 344 136.5 442 254.5 442 c 0
 308.5 442 351.5 416 380.5 380 c 1
 380.5 596 l 2
 380.5 645 372.5 652 302.5 652 c 1
 302.5 683 l 1x9b
 446.5 694 l 1
 446.5 87 l 2
 446.5 38 454.5 31 524.5 31 c 1
 524.5 0 l 1x65
377.5 118 m 2x40
 377.5 323 l 2
 377.5 341 377.5 343 366.5 360 c 0
 335.5 405 293.5 420 258.5 420 c 0
 204.5 420 166.5 387 145.5 356 c 0
 116.5 311 114.5 251 114.5 214 c 0
 114.5 173 117.5 116 143.5 75 c 0
 167.5 37 203.5 11 248.5 11 c 0xb2
 291.5 11 336.5 33 366.5 81 c 0
 377.5 98 377.5 100 377.5 118 c 2x40
EndSplineSet
EndChar

StartChar: dollar
Encoding: 36 36 48
Width: 500
Flags: HMW
HStem: -56 21G<234.5 265.5 234.5 234.5> -10 31<265.5 265.5> 137 92<100.5 115 99.5 116> 311 92<265.5 265.5> 319 92<234.5 234.5> 479 92<387 399> 673 31<234.5 234.5> 730 20G<234.5 265.5 265.5 265.5>
VStem: 56.5 51<533 558.5> 234.5 31<-56 -11 -11 -11 21 311 411 673 705 750> 392.5 51<143.5 177>
CounterMasks: 1 00e0
LayerCount: 2
Fore
SplineSet
443.5 195 m 0x17e0
 443.5 92 370.5 -1 265.5 -10 c 1
 265.5 -56 l 1
 234.5 -56 l 1
 234.5 -11 l 1
 109.5 -3 56.5 89 56.5 178 c 0
 56.5 227 96.5 229 102.5 229 c 0
 127.5 229 148.5 211 148.5 183 c 0
 148.5 156 129.5 137 102.5 137 c 0
 98.5 137 90.5 138 86.5 139 c 1
 99.5 77 146.5 26 234.5 21 c 1
 234.5 319 l 1xe8e0
 183.5 332 149.5 340 111.5 379 c 1
 93.5 396 56.5 444 56.5 513 c 0
 56.5 604 123.5 694 234.5 704 c 1
 234.5 750 l 1
 265.5 750 l 1
 265.5 705 l 1
 377.5 699 443.5 626 443.5 529 c 0
 443.5 480 400.5 479 397.5 479 c 0
 376.5 479 351.5 494 351.5 525 c 0
 351.5 553 371.5 571 397.5 571 c 0
 407.5 571 409.5 570 413.5 569 c 1
 398.5 625 350.5 669 265.5 673 c 1
 265.5 403 l 1
 313.5 391 349.5 382 389.5 338 c 0
 398.5 329 443.5 278 443.5 195 c 0x17e0
392.5 165 m 0
 392.5 189 385.5 286 265.5 311 c 1x12e0
 265.5 21 l 1
 344.5 31 392.5 98 392.5 165 c 0
234.5 411 m 1
 234.5 673 l 1
 154.5 665 107.5 603 107.5 543 c 0
 107.5 523 111.5 437 234.5 411 c 1
EndSplineSet
Substitution2: "'onum' Oldstyle Figures lookup 4 subtable" dollar.oldstyle
Substitution2: "'aalt' Access All Alternates lookup 0 subtable" dollar.oldstyle
EndChar

StartChar: E
Encoding: 69 69 49
Width: 497
Flags: HMW
HStem: 0 31<22.5651 40.0851 40.0851 68.1901 198.495 295.585 295.585 358.365 22.5651 40.0851> 338 31<162.725 228.425 162.725 228.425> 455 31 649 31<22.5651 40.0851 22.5651 433.555 181.34 198.495 198.495 292.665>
VStem: 97.7551 64.97<78 338 369 602 602 609> 307.265 18.25<221 263.5 443 486> 435.745 18.25<455 455> 456.185 18.25<258 258>
LayerCount: 2
Fore
SplineSet
474.436 258 m 1
 443.775 0 l 1
 22.5645 0 l 1
 22.5645 31 l 1
 40.0859 31 l 2
 96.2949 31 97.7559 42 97.7559 78 c 2
 97.7559 602 l 2
 97.7559 638 96.2949 649 40.0859 649 c 2
 22.5645 649 l 1
 22.5645 680 l 1
 433.555 680 l 1
 453.994 455 l 1
 435.744 455 l 1
 424.064 594 404.355 649 292.666 649 c 2
 198.494 649 l 2
 164.186 649 162.725 642 162.725 609 c 2
 162.725 369 l 1
 228.426 369 l 2
 299.234 369 307.266 400 307.266 486 c 1
 325.516 486 l 1
 325.516 221 l 1
 307.266 221 l 1
 307.266 306 299.234 338 228.426 338 c 2
 162.725 338 l 1
 162.725 71 l 2
 162.725 38 164.186 31 198.494 31 c 2
 295.586 31 l 2
 421.145 31 437.936 104 456.186 258 c 1
 474.436 258 l 1
EndSplineSet
Position2: "'cpsp' Capital Spacing lookup 0 subtable" dx=5 dy=0 dh=10 dv=0
EndChar

StartChar: e
Encoding: 101 101 50
Width: 444
Flags: HMW
HStem: -11 25<229.5 259.5 229.5 309.5> 231 21<112.5 349.5 112.5 390.5 111.5 349.5> 426 22<219.5 288>
VStem: 28.5 83<213 231 213 282.5> 349.5 66<252 271.5>
LayerCount: 2
Fore
SplineSet
415.5 119 m 0
 415.5 100 370.5 -11 248.5 -11 c 0
 133.5 -11 28.5 86 28.5 220 c 0
 28.5 345 120.5 448 236.5 448 c 0
 361.5 448 415.5 351 415.5 252 c 0
 415.5 231 412.5 231 390.5 231 c 2
 111.5 231 l 1
 111.5 195 111.5 129 141.5 81 c 0
 164.5 44 204.5 14 254.5 14 c 0
 264.5 14 354.5 14 389.5 117 c 0
 391.5 125 393.5 131 402.5 131 c 0
 407.5 131 415.5 129 415.5 119 c 0
349.5 252 m 1
 349.5 291 339.5 426 236.5 426 c 0
 202.5 426 118.5 401 112.5 252 c 1
 349.5 252 l 1
EndSplineSet
EndChar

StartChar: eight
Encoding: 56 56 51
Width: 500
Flags: HMW
HStem: -22 28<207.5 291.5 207.5 306> 641 25<214 286>
VStem: 42.5 50<109.5 180 109.5 200.5> 113.5 50 407.5 50<114.5 162.5>
LayerCount: 2
Fore
SplineSet
457.5 168 m 0
 457.5 61 362.5 -22 249.5 -22 c 0
 144.5 -22 42.5 45 42.5 151 c 0
 42.5 250 128.5 306 186.5 335 c 1
 161.5 352 124.5 377 113.5 389 c 0
 71.5 436 69.5 481 69.5 499 c 0
 69.5 592 150.5 666 250.5 666 c 0
 341.5 666 430.5 609 430.5 517 c 0
 430.5 451 381.5 399 309.5 362 c 1
 373.5 322 389.5 312 408.5 291 c 0
 446.5 249 457.5 204 457.5 168 c 0
386.5 517 m 0
 386.5 589 322.5 641 249.5 641 c 0
 178.5 641 113.5 599 113.5 538 c 0
 113.5 521 117.5 487 163.5 457 c 2
 287.5 377 l 1
 347.5 412 386.5 460 386.5 517 c 0
407.5 132 m 0
 407.5 193 360.5 223 332.5 242 c 1
 209.5 320 l 1
 124.5 273 92.5 209 92.5 151 c 0
 92.5 68 164.5 6 250.5 6 c 0
 332.5 6 407.5 58 407.5 132 c 0
EndSplineSet
Substitution2: "'pnum' Proportional Numbers lookup 6 subtable" eight.prop
Substitution2: "'onum' Oldstyle Figures lookup 4 subtable" eight.oldstyle
AlternateSubs2: "'aalt' Access All Alternates lookup 1 subtable" eight.oldstyle eight.prop
EndChar

StartChar: equal
Encoding: 61 61 52
Width: 567
Flags: HMW
HStem: 133 40<59.755 501.405 65.595 501.405 501.405 502.135> 327 40<64.865 65.595 65.595 501.405>
VStem: 40.775 485.45<143 163 337 357>
LayerCount: 2
Fore
SplineSet
526.225 347 m 0
 526.225 327 512.355 327 501.404 327 c 2
 65.5957 327 l 2
 54.6445 327 40.7754 327 40.7754 347 c 0
 40.7754 367 54.6445 367 64.8652 367 c 2
 502.135 367 l 2
 512.355 367 526.225 367 526.225 347 c 0
526.225 153 m 0
 526.225 133 512.355 133 502.135 133 c 2
 64.8652 133 l 2
 54.6445 133 40.7754 133 40.7754 153 c 0
 40.7754 173 54.6445 173 65.5957 173 c 2
 501.404 173 l 2
 512.355 173 526.225 173 526.225 153 c 0
EndSplineSet
EndChar

StartChar: exclam
Encoding: 33 33 53
Width: 278
Flags: MW
HStem: 0 106<124.5 153.5>
LayerCount: 2
Fore
SplineSet
192 665 m 1
 153 209 l 2
 152 192 149 187 139 187 c 0
 127 187 126 195 125 210 c 2
 86 665 l 1
 86 698 113 716 139 716 c 0
 165 716 192 698 192 665 c 1
192 53 m 0
 192 24 168 0 139 0 c 0
 110 0 86 24 86 53 c 0
 86 82 110 106 139 106 c 0
 168 106 192 82 192 53 c 0
EndSplineSet
EndChar

StartChar: F
Encoding: 70 70 54
Width: 476
Flags: HMW
HStem: 0 31<27.3952 44.9152> 325 31<167.555 230.335 167.555 230.335> 649 31<27.3952 44.9152 27.3952 428.165 186.17 203.325 203.325 290.925>
VStem: 102.585 64.97<78 79 79 325 356 602 602 609> 138.355 64.97 260.995 64.97 307.715 18.25<208 250.5 431 473> 430.355 18.25<455 455>
LayerCount: 2
Fore
SplineSet
448.605 455 m 1xb0
 430.355 455 l 1
 418.676 593 400.426 649 290.926 649 c 2
 203.324 649 l 2x29
 169.016 649 167.555 642 167.555 609 c 2
 167.555 356 l 1
 230.336 356 l 2
 300.416 356 307.715 389 307.715 473 c 1
 325.965 473 l 1
 325.965 208 l 1
 307.715 208 l 1
 307.715 293 300.416 325 230.336 325 c 2
 167.555 325 l 1
 167.555 79 l 2x52
 167.555 44 167.555 31 236.904 31 c 2
 260.996 31 l 1
 260.996 0 l 1
 234.715 3 168.285 3 138.355 3 c 0x8c
 109.885 3 52.9453 3 27.3945 0 c 1
 27.3945 31 l 1
 44.916 31 l 2
 101.125 31 102.586 42 102.586 78 c 2
 102.586 602 l 2
 102.586 638 101.125 649 44.916 649 c 2
 27.3945 649 l 1
 27.3945 680 l 1
 428.166 680 l 1
 448.605 455 l 1xb0
EndSplineSet
Position2: "'cpsp' Capital Spacing lookup 0 subtable" dx=5 dy=0 dh=10 dv=0
EndChar

StartChar: f
Encoding: 102 102 55
Width: 306
Flags: HMW
HStem: 0 31<-8 25.5> 400 31<-9 70 -9 70 136 250 136 136> 591 84 683 22<203 226.5>
VStem: 70 66<76 78 78 400> 228 87<623 646.5>
LayerCount: 2
Fore
SplineSet
315 635 m 0
 315 611 300 591 271 591 c 0
 244 591 228 611 228 634 c 0
 228 659 246 672 258 676 c 1
 243 683 228 683 225 683 c 0
 181 683 133 635 133 547 c 2
 133 431 l 1
 250 431 l 1
 250 400 l 1
 136 400 l 1
 136 78 l 2
 136 42 138 31 212 31 c 2
 233 31 l 1
 233 0 l 1
 193 3 146 3 106 3 c 1
 -8 0 l 1
 -8 31 l 1
 59 31 70 31 70 76 c 2
 70 400 l 1
 -9 400 l 1
 -9 431 l 1
 70 431 l 1
 70 546 l 2
 70 652 155 705 225 705 c 0
 278 705 315 672 315 635 c 0
EndSplineSet
EndChar

StartChar: five
Encoding: 53 53 56
Width: 500
Flags: HMW
HStem: -22 28<193 252.5 193 289.5> 116 98<94 116> 118 83 398 22<235.5 283.5> 551 83<236.5 279> 564 98 634 28 641 22 646 20G<400.5 404>
VStem: 50.5 99<153 177 153 184> 128.5 89 132.5 99 360.5 89<190.5 233>
LayerCount: 2
Fore
SplineSet
449.5 201 m 0x1410
 449.5 74 347.5 -22 231.5 -22 c 0xa018
 119.5 -22 50.5 75 50.5 161 c 0
 50.5 207 85.5 214 99.5 214 c 0
 132.5 214 149.5 189 149.5 165 c 0
 149.5 141 132.5 116 99.5 116 c 0x4040
 88.5 116 85.5 117 82.5 118 c 1
 99.5 59 156.5 6 229.5 6 c 0
 275.5 6 312.5 32 336.5 71 c 1
 360.5 113 360.5 173 360.5 208 c 0
 360.5 258 358.5 297 342.5 334 c 0
 334.5 352 309.5 398 257.5 398 c 0
 176.5 398 139.5 344 128.5 328 c 0
 124.5 322 122.5 319 115.5 319 c 0
 101.5 319 101.5 327 101.5 345 c 2
 101.5 641 l 2xb128
 101.5 657 101.5 665 111.5 665 c 1
 111.5 665 115.5 665 123.5 662 c 0x02
 170.5 641 216.5 634 256.5 634 c 0
 323.5 634 372.5 654 392.5 663 c 0x09
 397.5 666 400.5 666 400.5 666 c 1
 407.5 666 410.5 661 410.5 655 c 0
 410.5 642 340.5 551 217.5 551 c 0x08a0
 185.5 551 152.5 558 132.5 564 c 1
 132.5 369 l 1
 168.5 404 211.5 420 259.5 420 c 0
 367.5 420 449.5 320 449.5 201 c 0x1410
EndSplineSet
Substitution2: "'pnum' Proportional Numbers lookup 6 subtable" five.prop
Substitution2: "'onum' Oldstyle Figures lookup 4 subtable" five.oldstyle
AlternateSubs2: "'aalt' Access All Alternates lookup 1 subtable" five.oldstyle five.prop
EndChar

StartChar: four
Encoding: 52 52 57
Width: 500
Flags: HMW
HStem: 0 31<197.5 218.5> 165 31<56.5 294.5 28.5 28.5 371.5 471.5> 657 20G<351 363.5>
VStem: 300.5 71<196 569 569 569>
LayerCount: 2
Fore
SplineSet
471.5 165 m 1
 371.5 165 l 1
 371.5 78 l 2
 371.5 42 373.5 31 447.5 31 c 2
 468.5 31 l 1
 468.5 0 l 1
 427.5 3 374.5 3 332.5 3 c 0
 290.5 3 238.5 3 197.5 0 c 1
 197.5 31 l 1
 218.5 31 l 2
 292.5 31 294.5 42 294.5 78 c 2
 294.5 165 l 1
 28.5 165 l 1
 28.5 196 l 1
 335.5 665 l 2
 343.5 677 346.5 677 355.5 677 c 0
 371.5 677 371.5 671 371.5 651 c 2
 371.5 196 l 1
 471.5 196 l 1
 471.5 165 l 1
300.5 196 m 1
 300.5 569 l 1
 56.5 196 l 1
 300.5 196 l 1
EndSplineSet
Substitution2: "'pnum' Proportional Numbers lookup 6 subtable" four.prop
Substitution2: "'onum' Oldstyle Figures lookup 4 subtable" four.oldstyle
AlternateSubs2: "'aalt' Access All Alternates lookup 1 subtable" four.oldstyle four.prop
EndChar

StartChar: G
Encoding: 71 71 58
Width: 573
Flags: HMW
HStem: -22 31<282.12 316.065 282.12 320.81> 242 31<327.745 351.105 327.745 327.745> 674 31<279.565 328.84 224.815 340.52>
VStem: 38.6652 75.19<239.5 444.5> 418.995 64.97<130 194 194 198>
LayerCount: 2
Fore
SplineSet
534.335 242 m 1
 486.885 242 483.965 237 483.965 198 c 2
 483.965 24 l 2
 483.965 9 483.965 1 477.396 1 c 0
 469.365 1 440.165 41 430.675 63 c 1
 405.855 4 347.455 -22 294.165 -22 c 0
 155.465 -22 38.665 137 38.665 342 c 0
 38.665 547 156.925 705 292.705 705 c 0
 364.976 705 404.396 651 427.755 619 c 1
 464.255 693 l 2
 470.095 705 473.016 705 475.936 705 c 0
 483.965 705 483.965 698 483.965 681 c 2
 483.965 444 l 2
 483.965 423 483.965 420 472.285 420 c 0
 462.065 420 462.065 423 460.605 437 c 0
 446.005 584 379.575 674 301.465 674 c 0
 257.665 674 113.855 641 113.855 342 c 0
 113.855 44 258.396 9 305.845 9 c 0
 326.285 9 418.995 18 418.995 130 c 2
 418.995 194 l 2
 418.995 231 416.805 242 351.105 242 c 2
 327.745 242 l 1
 327.745 273 l 1
 354.025 270 416.075 270 445.275 270 c 2
 534.335 273 l 1
 534.335 242 l 1
EndSplineSet
Position2: "'cpsp' Capital Spacing lookup 0 subtable" dx=5 dy=0 dh=10 dv=0
EndChar

StartChar: g
Encoding: 103 103 59
Width: 500
Flags: HMW
HStem: -206 23<193 292.5 193 301.5> 7 58<155.5 258> 110 23 149 23<206 235.5 172 262> 419 23<195.5 226.5 169 259> 430 23
VStem: 152.5 75<66 66> 227.5 75 302.5 75<282.5 307.5>
CounterMasks: 1 0380
LayerCount: 2
Fore
SplineSet
478.5 404 m 0x0780
 478.5 381 459.5 374 449.5 374 c 0
 433.5 374 420.5 386 420.5 403 c 0
 420.5 415 425.5 426 436.5 430 c 1x1780
 433.5 431 426.5 431 426.5 431 c 1
 408.5 431 372.5 426 336.5 392 c 1
 361.5 369 377.5 332 377.5 295 c 0
 377.5 218 308.5 149 215.5 149 c 0
 196.5 149 155.5 152 116.5 180 c 1
 99.5 160 99.5 137 99.5 133 c 0
 99.5 101 120.5 70 152.5 66 c 0
 159.5 65 202.5 65 227.5 65 c 0
 288.5 65 346.5 65 399.5 37 c 0
 450.5 9 464.5 -42 464.5 -77 c 0
 464.5 -155 360.5 -206 242.5 -206 c 0
 120.5 -206 21.5 -151 21.5 -79 c 0
 21.5 -39 53.5 4 113.5 21 c 1
 82.5 41 69.5 79 69.5 110 c 0
 69.5 145 87.5 178 100.5 193 c 1
 75.5 214 53.5 252 53.5 296 c 0
 53.5 373 122.5 442 215.5 442 c 0xfb80
 237.5 442 279.5 439 321.5 406 c 1
 363.5 447 407.5 453 427.5 453 c 0
 466.5 453 478.5 421 478.5 404 c 0x0780
302.5 296 m 0
 302.5 319 302.5 419 215.5 419 c 0xcb80
 175.5 419 152.5 391 144.5 379 c 0
 129.5 354 128.5 322 128.5 295 c 0
 128.5 272 128.5 172 215.5 172 c 0
 255.5 172 278.5 200 286.5 212 c 0
 301.5 237 302.5 269 302.5 296 c 0
412.5 -79 m 0
 412.5 7 300.5 7 214.5 7 c 2
 155.5 7 l 1
 111.5 4 73.5 -33 73.5 -79 c 0
 73.5 -132 142.5 -183 243.5 -183 c 0
 341.5 -183 412.5 -133 412.5 -79 c 0
EndSplineSet
EndChar

StartChar: grave
Encoding: 96 96 60
Width: 500
Flags: HMW
HStem: 510 21G<326 326> 678 20G<184 200.5>
LayerCount: 2
Fore
SplineSet
343 528 m 1
 326 510 l 1
 174 632 l 2
 165 639 157 650 157 662 c 0
 157 680 175 698 193 698 c 0
 208 698 219 687 223 681 c 2
 343 528 l 1
EndSplineSet
EndChar

StartChar: greater
Encoding: 62 62 61
Width: 567
Flags: HMW
VStem: 60.485 446.03<-25.5 256 244 525.5>
LayerCount: 2
Fore
SplineSet
506.516 250 m 0
 506.516 238 500.676 233 492.645 228 c 2
 88.2246 -33 l 2
 78.7344 -40 77.2754 -40 75.0859 -40 c 0
 67.0547 -40 60.4844 -31 60.4844 -20 c 0
 60.4844 -11 64.1348 -5 74.3555 2 c 2
 457.605 250 l 1
 74.3555 498 l 2
 64.1348 505 60.4844 511 60.4844 520 c 0
 60.4844 531 67.0547 540 75.0859 540 c 0
 77.2754 540 78.7344 540 88.2246 533 c 2
 492.645 272 l 2
 500.676 267 506.516 262 506.516 250 c 0
EndSplineSet
EndChar

StartChar: H
Encoding: 72 72 62
Width: 547
Flags: HMW
HStem: 0 31<24.2052 41.7252> 340 31<164.365 382.635 164.365 382.635> 652 31<24.2052 41.7252 24.2052 24.2052>
VStem: 99.3952 64.97<78 340 371 605> 382.635 64.97<78 340 340 340 371 605>
LayerCount: 2
Fore
SplineSet
522.795 0 m 1
 497.245 3 442.495 3 414.755 3 c 0
 387.016 3 332.995 3 307.445 0 c 1
 307.445 31 l 1
 324.965 31 l 2
 381.175 31 382.635 42 382.635 78 c 2
 382.635 340 l 1
 164.365 340 l 1
 164.365 78 l 2
 164.365 42 165.825 31 222.035 31 c 2
 239.556 31 l 1
 239.556 0 l 1
 214.005 3 159.255 3 131.516 3 c 0
 103.775 3 49.7549 3 24.2051 0 c 1
 24.2051 31 l 1
 41.7256 31 l 2
 97.9355 31 99.3955 42 99.3955 78 c 2
 99.3955 605 l 2
 99.3955 641 97.9355 652 41.7256 652 c 2
 24.2051 652 l 1
 24.2051 683 l 1
 49.7549 680 104.505 680 132.245 680 c 0
 159.985 680 214.005 680 239.556 683 c 1
 239.556 652 l 1
 222.035 652 l 2
 165.825 652 164.365 641 164.365 605 c 2
 164.365 371 l 1
 382.635 371 l 1
 382.635 605 l 2
 382.635 641 381.175 652 324.965 652 c 2
 307.445 652 l 1
 307.445 683 l 1
 332.995 680 387.745 680 415.485 680 c 0
 443.226 680 497.245 680 522.795 683 c 1
 522.795 652 l 1
 505.275 652 l 2
 449.065 652 447.605 641 447.605 605 c 2
 447.605 78 l 2
 447.605 42 449.065 31 505.275 31 c 2
 522.795 31 l 1
 522.795 0 l 1
EndSplineSet
Position2: "'cpsp' Capital Spacing lookup 0 subtable" dx=5 dy=0 dh=10 dv=0
EndChar

StartChar: h
Encoding: 104 104 63
Width: 556
Flags: HMW
HStem: 0 31<26.5 60> 420 22<276.5 340> 652 31<26.5 61.5> 652 42
VStem: 104.5 69<76 260> 382.5 69<76 252 61 309 61 337.5>
LayerCount: 2
Fore
SplineSet
529.5 0 m 1xd4
 417.5 3 l 1
 304.5 0 l 1
 304.5 31 l 1
 371.5 31 382.5 31 382.5 76 c 2
 382.5 309 l 2
 382.5 366 371.5 420 308.5 420 c 0
 244.5 420 173.5 364 173.5 260 c 2
 173.5 76 l 2
 173.5 31 184.5 31 251.5 31 c 1
 251.5 0 l 1
 139.5 3 l 1
 26.5 0 l 1
 26.5 31 l 1
 93.5 31 104.5 31 104.5 76 c 2
 104.5 596 l 2
 104.5 645 96.5 652 26.5 652 c 1
 26.5 683 l 1xec
 170.5 694 l 1
 170.5 346 l 1
 171.5 346 l 1
 187.5 382 231.5 442 315.5 442 c 0
 373.5 442 406.5 422 420.5 405 c 0
 451.5 369 451.5 338 451.5 252 c 2
 451.5 61 l 1
 452.5 31 477.5 31 529.5 31 c 1
 529.5 0 l 1xd4
EndSplineSet
EndChar

StartChar: hyphen
Encoding: 45 45 64
Width: 333
Flags: HMW
HStem: 187 58<34 299 34 299>
VStem: 34 265<187 245 187 245>
LayerCount: 2
Fore
SplineSet
299 187 m 1
 34 187 l 1
 34 245 l 1
 299 245 l 1
 299 187 l 1
EndSplineSet
EndChar

StartChar: I
Encoding: 73 73 65
Width: 263
Flags: HMW
HStem: 0 31<20.1749 39.1549> 652 31<20.1749 39.1549 20.1749 20.1749>
VStem: 99.0149 64.97<78 605>
LayerCount: 2
Fore
SplineSet
242.824 0 m 1
 217.275 3 159.605 3 131.135 3 c 0
 103.395 3 45.7246 3 20.1758 0 c 1
 20.1758 31 l 1
 39.1543 31 l 2
 96.8242 31 99.0156 42 99.0156 78 c 2
 99.0156 605 l 2
 99.0156 641 96.8242 652 39.1543 652 c 2
 20.1758 652 l 1
 20.1758 683 l 1
 45.7246 680 103.395 680 131.865 680 c 0
 159.605 680 217.275 680 242.824 683 c 1
 242.824 652 l 1
 223.846 652 l 2
 166.176 652 163.984 641 163.984 605 c 2
 163.984 78 l 2
 163.984 42 166.176 31 223.846 31 c 2
 242.824 31 l 1
 242.824 0 l 1
EndSplineSet
Position2: "'cpsp' Capital Spacing lookup 0 subtable" dx=5 dy=0 dh=10 dv=0
EndChar

StartChar: i
Encoding: 105 105 66
Width: 278
Flags: HMW
HStem: 0 31<32 65.5> 400 31<36 68.5> 400 42 551 106<122 153 121 154>
VStem: 84 107<591.5 616.5> 110 66<76 345 345 369.5>
LayerCount: 2
Fore
SplineSet
246 0 m 1xa4
 212 1 177 3 142 3 c 2
 32 0 l 1
 32 31 l 1
 99 31 110 31 110 76 c 2
 110 345 l 2
 110 394 101 400 36 400 c 1
 36 431 l 1xc4
 176 442 l 1
 176 75 l 2
 176 36 180 31 246 31 c 1
 246 0 l 1xa4
191 604 m 0x18
 191 579 171 551 137 551 c 0
 107 551 84 577 84 604 c 0
 84 629 104 657 138 657 c 0
 168 657 191 631 191 604 c 0x18
EndSplineSet
EndChar

StartChar: J
Encoding: 74 74 67
Width: 375
Flags: HMW
HStem: -22 22<145.89 167.425 145.89 186.77> 0 112 58 112<67.7801 83.8401 65.5901 86.7601> 148 22 652 31<125.45 151.73 125.45 125.45>
VStem: 32.7401 81.76<101 132 101 134> 67.7801 81.76 223.27 62.78<150 167 167 604 604 611>
LayerCount: 2
Fore
SplineSet
342.26 652 m 1x59
 296.27 652 286.051 652 286.051 611 c 2
 286.051 167 l 2
 286.051 133 286.051 131 285.32 123 c 0
 277.291 48 224 -22 149.541 -22 c 0x8b
 84.5703 -22 32.7402 38 32.7402 112 c 0x44
 32.7402 156 57.5605 170 73.6191 170 c 0
 94.0605 170 114.5 150 114.5 114 c 0x24
 114.5 88 105.74 58 67.7793 58 c 1x22
 94.0605 0 143.699 0 148.08 0 c 0
 186.77 0 223.27 56 223.27 148 c 2
 223.27 604 l 2
 223.27 639 223.27 652 151.73 652 c 2
 125.449 652 l 1
 125.449 683 l 1
 153.189 680 217.43 680 248.09 680 c 2
 342.26 683 l 1
 342.26 652 l 1x59
EndSplineSet
Position2: "'cpsp' Capital Spacing lookup 0 subtable" dx=5 dy=0 dh=10 dv=0
EndChar

StartChar: j
Encoding: 106 106 68
Width: 306
Flags: HMW
HStem: -205 22<136.5 171 136.5 178.5> -167 88 400 42 551 106<209 240 208 241>
VStem: 28 92<-138.5 -112 -138.5 -112> 171 107<591.5 616.5> 212 66<-52 -50 -50 344 344 368.5>
LayerCount: 2
Fore
SplineSet
278 -50 m 2xea
 278 -141 216 -205 141 -205 c 0
 84 -205 28 -177 28 -125 c 0
 28 -99 46 -79 74 -79 c 0
 102 -79 120 -99 120 -125 c 0
 120 -152 100 -166 85 -170 c 1
 111 -183 134 -183 139 -183 c 0
 203 -183 212 -97 212 -52 c 2
 212 344 l 2
 212 393 203 400 126 400 c 1
 126 431 l 1
 278 442 l 1
 278 -50 l 2xea
278 604 m 0x14
 278 579 258 551 224 551 c 0
 194 551 171 577 171 604 c 0
 171 629 191 657 225 657 c 0
 255 657 278 631 278 604 c 0x14
EndSplineSet
EndChar

StartChar: K
Encoding: 75 75 69
Width: 567
Flags: HMW
HStem: 0 31<26.9049 44.4249> 652 31<26.9049 44.4249 26.9049 26.9049>
VStem: 102.095 64.97<78 253 287 605>
LayerCount: 2
Fore
SplineSet
540.096 0 m 1
 456.145 3 l 2
 428.404 3 377.305 3 351.756 0 c 1
 351.756 31 l 1
 366.355 31 394.824 31 394.824 61 c 0
 394.824 73 388.256 86 383.875 95 c 2
 251.744 363 l 1
 167.064 253 l 1
 167.064 78 l 2
 167.064 42 168.525 31 224.734 31 c 2
 242.256 31 l 1
 242.256 0 l 1
 216.705 3 161.955 3 134.215 3 c 0
 106.475 3 52.4551 3 26.9043 0 c 1
 26.9043 31 l 1
 44.4258 31 l 2
 100.635 31 102.096 42 102.096 78 c 2
 102.096 605 l 2
 102.096 641 100.635 652 44.4258 652 c 2
 26.9043 652 l 1
 26.9043 683 l 1
 52.4551 680 107.205 680 134.945 680 c 0
 162.686 680 216.705 680 242.256 683 c 1
 242.256 652 l 1
 224.734 652 l 2
 168.525 652 167.064 641 167.064 605 c 2
 167.064 287 l 1
 395.555 586 l 2
 401.395 593 408.695 603 408.695 619 c 0
 408.695 628 404.314 651 375.115 652 c 1
 375.115 683 l 1
 399.936 680 441.545 680 467.824 680 c 0
 487.535 680 510.895 680 529.875 683 c 1
 529.875 652 l 1
 470.744 651 432.055 600 426.215 592 c 2
 294.814 419 l 1
 463.445 79 l 2
 485.346 35 500.676 31 540.096 31 c 1
 540.096 0 l 1
EndSplineSet
Position2: "'cpsp' Capital Spacing lookup 0 subtable" dx=5 dy=0 dh=10 dv=0
EndChar

StartChar: k
Encoding: 107 107 70
Width: 528
Flags: HMW
HStem: 0 31<22.5 56> 400 31<300.5 300.5> 652 31<22.5 57.5> 652 42
VStem: 100.5 66<214 596 596 620.5> 241.5 66 346.5 66
LayerCount: 2
Fore
SplineSet
505.5 0 m 1xde
 476.5 2 447.5 3 418.5 3 c 2
 310.5 0 l 1
 310.5 31 l 1
 329.5 31 346.5 35 346.5 54 c 0
 346.5 72 304.5 128 227.5 234 c 1
 163.5 179 l 1
 163.5 76 l 2
 163.5 31 174.5 31 241.5 31 c 1
 241.5 0 l 1
 131.5 3 l 1
 22.5 0 l 1
 22.5 31 l 1
 89.5 31 100.5 31 100.5 76 c 2
 100.5 596 l 2
 100.5 645 92.5 652 22.5 652 c 1
 22.5 683 l 1xae
 166.5 694 l 1
 166.5 214 l 1
 307.5 336 l 2
 315.5 343 329.5 355 329.5 375 c 0
 329.5 388 319.5 399 300.5 400 c 1
 300.5 431 l 1
 314.5 430 376.5 428 412.5 428 c 0
 440.5 428 453.5 428 482.5 431 c 1
 482.5 400 l 1
 461.5 399 419.5 397 356.5 346 c 0
 346.5 338 275.5 278 275.5 274 c 0
 275.5 271 280.5 265 281.5 263 c 2
 408.5 84 l 2
 446.5 31 468.5 31 505.5 31 c 1
 505.5 0 l 1xde
EndSplineSet
EndChar

StartChar: L
Encoding: 76 76 71
Width: 456
Flags: HMW
HStem: 0 31<27.6149 45.1349 45.1349 73.2399 203.545 263.405 263.405 327.645 27.6149 45.1349> 238 20G<410.135 428.385 428.385 428.385> 652 31<27.6149 45.1349 27.6149 27.6149>
VStem: 102.805 64.97<78 604> 138.575 64.97 410.135 18.25<258 258>
LayerCount: 2
Fore
SplineSet
428.385 258 m 1xcc
 407.945 0 l 1
 27.6152 0 l 1
 27.6152 31 l 1
 45.1348 31 l 2
 101.346 31 102.805 42 102.805 78 c 2
 102.805 605 l 2xd4
 102.805 641 101.346 652 45.1348 652 c 2
 27.6152 652 l 1
 27.6152 683 l 1
 53.1641 680 110.105 680 138.574 680 c 0x28
 168.506 680 234.936 680 261.215 683 c 1
 261.215 652 l 1
 237.125 652 l 2
 167.775 652 167.775 638 167.775 604 c 2
 167.775 71 l 2x30
 167.775 38 169.234 31 203.545 31 c 2
 263.404 31 l 2
 391.885 31 402.105 156 410.135 258 c 1
 428.385 258 l 1xcc
EndSplineSet
Position2: "'cpsp' Capital Spacing lookup 0 subtable" dx=5 dy=0 dh=10 dv=0
EndChar

StartChar: l
Encoding: 108 108 72
Width: 278
Flags: HMW
HStem: 0 31<28 61.5> 652 31<28 63> 652 42
VStem: 106 66<76 596 596 620.5>
LayerCount: 2
Fore
SplineSet
250 0 m 1xb0
 139 3 l 1
 28 0 l 1
 28 31 l 1
 95 31 106 31 106 76 c 2
 106 596 l 2
 106 645 98 652 28 652 c 1
 28 683 l 1xd0
 172 694 l 1
 172 76 l 2
 172 31 183 31 250 31 c 1
 250 0 l 1xb0
EndSplineSet
EndChar

StartChar: less
Encoding: 60 60 73
Width: 567
Flags: HMW
VStem: 60.485 446.03<-25.5 256>
LayerCount: 2
Fore
SplineSet
506.516 -20 m 0
 506.516 -31 499.945 -40 491.914 -40 c 0
 489.725 -40 488.266 -40 478.775 -33 c 2
 74.3555 228 l 2
 66.3242 233 60.4844 238 60.4844 250 c 0
 60.4844 262 66.3242 267 74.3555 272 c 2
 478.775 533 l 2
 488.266 540 489.725 540 491.914 540 c 0
 499.945 540 506.516 531 506.516 520 c 0
 506.516 509 501.404 504 492.645 498 c 2
 109.395 250 l 1
 492.645 2 l 2
 501.404 -4 506.516 -9 506.516 -20 c 0
EndSplineSet
EndChar

StartChar: M
Encoding: 77 77 74
Width: 669
Flags: HMW
HStem: 0 31<27.1702 64.7652> 652 31<27.1702 44.6902 27.1702 150.54 596.205 624.31 624.31 641.83>
VStem: 102.36 20.44<105 605 605 623> 314.06 20.44 507.51 59.13<78 605>
LayerCount: 2
Fore
SplineSet
641.83 0 m 1
 614.82 3 565.91 3 537.44 3 c 0
 508.97 3 459.33 3 432.32 0 c 1
 432.32 31 l 1
 449.84 31 l 2
 506.05 31 507.51 42 507.51 78 c 2
 507.51 652 l 1
 506.78 652 l 1
 327.2 19 l 2
 324.28 8 322.09 0 314.061 0 c 0
 306.76 0 303.11 9 299.46 22 c 2
 123.53 644 l 1
 122.8 644 l 1
 122.8 105 l 2
 122.8 78 122.8 31 197.99 31 c 1
 197.99 0 l 1
 112.58 3 l 1
 27.1699 0 l 1
 27.1699 31 l 1
 102.36 31 102.36 78 102.36 105 c 2
 102.36 605 l 2
 102.36 641 100.9 652 44.6904 652 c 2
 27.1699 652 l 1
 27.1699 683 l 1
 150.54 683 l 2
 167.33 683 169.521 683 176.09 661 c 2
 334.5 101 l 1
 494.37 664 l 2
 499.48 682 499.48 683 518.46 683 c 2
 641.83 683 l 1
 641.83 652 l 1
 624.311 652 l 2
 568.101 652 566.641 641 566.641 605 c 2
 566.641 78 l 2
 566.641 42 568.101 31 624.311 31 c 2
 641.83 31 l 1
 641.83 0 l 1
EndSplineSet
Position2: "'cpsp' Capital Spacing lookup 0 subtable" dx=5 dy=0 dh=10 dv=0
EndChar

StartChar: m
Encoding: 109 109 75
Width: 549
Flags: HMW
HStem: 0 31<17.16 39.27> 400 31<17.16 40.26> 420 22<183.81 222.75 365.64 407.55>
VStem: 68.64 45.54<76 260> 252.12 45.54<76 260> 435.6 45.54<76 252 61 309 61 337.5>
CounterMasks: 1 1c
LayerCount: 2
Fore
SplineSet
532.62 0 m 1xbc
 458.7 3 l 1
 384.12 0 l 1
 384.12 31 l 1
 428.34 31 435.6 31 435.6 76 c 2
 435.6 309 l 2
 435.6 366 428.34 420 386.76 420 c 0
 344.52 420 297.66 364 297.66 260 c 2
 297.66 76 l 2
 297.66 31 304.92 31 349.14 31 c 1
 349.14 0 l 1
 275.22 3 l 1
 200.64 0 l 1
 200.64 31 l 1
 244.86 31 252.12 31 252.12 76 c 2
 252.12 309 l 2
 252.12 366 244.86 420 203.28 420 c 0xbc
 161.04 420 114.18 364 114.18 260 c 2
 114.18 76 l 2
 114.18 31 121.44 31 165.66 31 c 1
 165.66 0 l 1
 91.7402 3 l 1
 17.1602 0 l 1
 17.1602 31 l 1
 61.3799 31 68.6396 31 68.6396 76 c 2
 68.6396 344 l 2
 68.6396 393 63.3604 400 17.1602 400 c 1
 17.1602 431 l 1xdc
 110.22 442 l 1
 110.22 337 l 1
 128.7 399 159.72 442 207.9 442 c 0
 237.6 442 286.44 431 295.68 344 c 1
 306.9 382 335.94 442 391.38 442 c 0
 429.66 442 451.44 422 460.68 405 c 0
 481.14 369 481.14 338 481.14 252 c 2
 481.14 61 l 1
 481.8 31 498.3 31 532.62 31 c 1
 532.62 0 l 1xbc
EndSplineSet
EndChar

StartChar: N
Encoding: 78 78 76
Width: 547
Flags: HMW
HStem: 0 31<24.2052 61.8002> 652 31<24.2052 45.3752 24.2052 148.305>
VStem: 99.3952 20.44<105 625> 427.165 20.44<151 578>
LayerCount: 2
Fore
SplineSet
522.795 652 m 1
 447.605 652 447.605 605 447.605 578 c 2
 447.605 26 l 2
 447.605 7 447.605 0 437.385 0 c 0
 432.275 0 431.545 1 424.976 13 c 2
 127.135 613 l 2
 124.215 619 123.485 620 119.835 625 c 1
 119.835 105 l 2
 119.835 78 119.835 31 195.025 31 c 1
 195.025 0 l 1
 109.615 3 l 1
 24.2051 0 l 1
 24.2051 31 l 1
 99.3955 31 99.3955 78 99.3955 105 c 2
 99.3955 627 l 2
 99.3955 646 98.665 647 81.875 650 c 0
 70.9248 651 56.3252 652 45.375 652 c 2
 24.2051 652 l 1
 24.2051 683 l 1
 148.306 683 l 2
 162.175 683 162.905 682 169.476 670 c 2
 427.165 151 l 1
 427.165 578 l 2
 427.165 605 427.165 652 351.976 652 c 1
 351.976 683 l 1
 437.385 680 l 1
 522.795 683 l 1
 522.795 652 l 1
EndSplineSet
Position2: "'cpsp' Capital Spacing lookup 0 subtable" dx=5 dy=0 dh=10 dv=0
EndChar

StartChar: n
Encoding: 110 110 77
Width: 556
Flags: HMW
HStem: 0 31<26.5 60> 400 31<26.5 61.5> 420 22<279 340>
VStem: 104.5 69<76 260> 382.5 69<76 252 61 309 61 337.5>
LayerCount: 2
Fore
SplineSet
529.5 0 m 1xa8
 417.5 3 l 1
 304.5 0 l 1
 304.5 31 l 1
 371.5 31 382.5 31 382.5 76 c 2
 382.5 309 l 2
 382.5 366 371.5 420 308.5 420 c 0xa8
 244.5 420 173.5 364 173.5 260 c 2
 173.5 76 l 2
 173.5 31 184.5 31 251.5 31 c 1
 251.5 0 l 1
 139.5 3 l 1
 26.5 0 l 1
 26.5 31 l 1
 93.5 31 104.5 31 104.5 76 c 2
 104.5 344 l 2
 104.5 393 96.5 400 26.5 400 c 1
 26.5 431 l 1xd0
 167.5 442 l 1
 167.5 337 l 1
 195.5 399 242.5 442 315.5 442 c 0
 373.5 442 406.5 422 420.5 405 c 0
 451.5 369 451.5 338 451.5 252 c 2
 451.5 61 l 1
 452.5 31 477.5 31 529.5 31 c 1
 529.5 0 l 1xa8
EndSplineSet
EndChar

StartChar: nine
Encoding: 57 57 78
Width: 500
Flags: HMW
HStem: -22 28<197 234.5 197 271> 42 92<107.5 124.5 105.5 129.5> 218 23<235.5 273> 304 25 329 92 578 25 641 25<236 276.5>
VStem: 42.5 90<415.5 467 415.5 478.5> 153.5 90 367.5 90<286 318 318 318>
LayerCount: 2
Fore
SplineSet
457.5 329 m 0xefc0
 457.5 114 335.5 -22 206.5 -22 c 0
 121.5 -22 67.5 19 67.5 86 c 0
 67.5 125 97.5 134 113.5 134 c 0
 135.5 134 159.5 119 159.5 88 c 0
 159.5 71 151.5 42 107.5 42 c 1
 134.5 8 188.5 6 205.5 6 c 0
 263.5 6 367.5 52 367.5 286 c 2
 367.5 318 l 1
 344.5 260 303.5 218 242.5 218 c 0
 130.5 218 42.5 316 42.5 441 c 0
 42.5 516 65.5 558 106.5 603 c 1
 149.5 648 198.5 666 253.5 666 c 0
 342.5 666 457.5 598 457.5 329 c 0xefc0
365.5 421 m 0
 365.5 467 361.5 530 349.5 562 c 0
 332.5 607 299.5 641 253.5 641 c 0
 218.5 641 180.5 628 153.5 578 c 0
 132.5 541 132.5 494 132.5 440 c 0
 132.5 391 132.5 341 150.5 304 c 0x1780
 181.5 241 227.5 241 243.5 241 c 0
 331.5 241 365.5 338 365.5 421 c 0
EndSplineSet
Substitution2: "'pnum' Proportional Numbers lookup 6 subtable" nine.prop
Substitution2: "'onum' Oldstyle Figures lookup 4 subtable" nine.oldstyle
AlternateSubs2: "'aalt' Access All Alternates lookup 1 subtable" nine.oldstyle nine.prop
EndChar

StartChar: numbersign
Encoding: 35 35 79
Width: 833
Flags: HMW
HStem: -194 21G<182 195.5 411 424.5> 133 40<82.5 261.5 90.5 249.5 302.5 478.5 90.5 290.5 531.5 742.5 742.5 743.5> 327 40<89.5 90.5 90.5 301.5 89.5 342.5 354.5 530.5 583.5 742.5> 674 20G<408.5 422 637.5 651>
VStem: 56.5 720<143 163 337 357>
LayerCount: 2
Fore
SplineSet
776.5 153 m 0
 776.5 133 757.5 133 743.5 133 c 2
 519.5 133 l 1
 438.5 -170 l 2
 435.5 -181 432.5 -194 416.5 -194 c 0
 405.5 -194 396.5 -185 396.5 -174 c 0
 396.5 -170 399.5 -158 400.5 -156 c 2
 478.5 133 l 1
 290.5 133 l 1
 209.5 -170 l 2
 206.5 -181 203.5 -194 187.5 -194 c 0
 176.5 -194 167.5 -185 167.5 -174 c 0
 167.5 -170 170.5 -158 171.5 -156 c 2
 249.5 133 l 1
 89.5 133 l 2
 75.5 133 56.5 133 56.5 153 c 0
 56.5 173 75.5 173 90.5 173 c 2
 261.5 173 l 1
 301.5 327 l 1
 90.5 327 l 2
 75.5 327 56.5 327 56.5 347 c 0
 56.5 367 75.5 367 89.5 367 c 2
 313.5 367 l 1
 394.5 670 l 2
 397.5 681 400.5 694 416.5 694 c 0
 427.5 694 436.5 685 436.5 674 c 0
 436.5 670 433.5 658 432.5 656 c 2
 354.5 367 l 1
 542.5 367 l 1
 623.5 670 l 2
 626.5 681 629.5 694 645.5 694 c 0
 656.5 694 665.5 685 665.5 674 c 0
 665.5 670 662.5 658 661.5 656 c 2
 583.5 367 l 1
 743.5 367 l 2
 757.5 367 776.5 367 776.5 347 c 0
 776.5 327 757.5 327 742.5 327 c 2
 571.5 327 l 1
 531.5 173 l 1
 742.5 173 l 2
 757.5 173 776.5 173 776.5 153 c 0
530.5 327 m 1
 342.5 327 l 1
 302.5 173 l 1
 490.5 173 l 1
 530.5 327 l 1
EndSplineSet
EndChar

StartChar: O
Encoding: 79 79 80
Width: 567
Flags: HMW
HStem: -22 26<248.825 317.445 248.825 349.565> 680 25<252.84 314.89>
VStem: 40.775 75.19<236.5 442> 451.035 75.19<238 441 238 481>
LayerCount: 2
Fore
SplineSet
526.225 339 m 0
 526.225 137 415.994 -22 283.135 -22 c 0
 153.195 -22 40.7754 134 40.7754 339 c 0
 40.7754 545 152.465 705 283.135 705 c 0
 415.994 705 526.225 543 526.225 339 c 0
451.035 353 m 0
 451.035 609 346.645 680 283.135 680 c 0
 222.545 680 115.965 612 115.965 353 c 0
 115.965 92 213.785 4 283.865 4 c 0
 351.025 4 451.035 88 451.035 353 c 0
EndSplineSet
Position2: "'cpsp' Capital Spacing lookup 0 subtable" dx=5 dy=0 dh=10 dv=0
EndChar

StartChar: o
Encoding: 111 111 81
Width: 500
Flags: HMW
HStem: -11 25<229 275.5 229 310> 426 22<229.5 271.5>
VStem: 28.5 83<204 241.5 204 276.5> 388.5 83<204 241>
LayerCount: 2
Fore
SplineSet
471.5 214 m 0
 471.5 87 370.5 -11 249.5 -11 c 0
 132.5 -11 28.5 85 28.5 214 c 0
 28.5 339 125.5 448 250.5 448 c 0
 371.5 448 471.5 342 471.5 214 c 0
388.5 222 m 0
 388.5 260 388.5 318 362.5 361 c 0
 336.5 404 293.5 426 249.5 426 c 0
 209.5 426 162.5 405 135.5 359 c 1
 111.5 315 111.5 261 111.5 222 c 0
 111.5 186 111.5 125 136.5 81 c 0
 163.5 35 207.5 14 250.5 14 c 0
 300.5 14 344.5 43 366.5 88 c 0
 388.5 132 388.5 186 388.5 222 c 0
EndSplineSet
EndChar

StartChar: one
Encoding: 49 49 82
Width: 500
Flags: HMW
HStem: 0 31<91 123> 571 31<85 95> 646 20G<267 278.5>
VStem: 216 74<79 597 597 597>
LayerCount: 2
Fore
SplineSet
415 0 m 1
 380 3 293 3 253 3 c 0
 213 3 126 3 91 0 c 1
 91 31 l 1
 123 31 l 2
 213 31 216 43 216 79 c 2
 216 597 l 1
 164 571 105 571 85 571 c 1
 85 602 l 1
 117 602 205 602 267 666 c 1
 290 666 290 664 290 640 c 2
 290 79 l 2
 290 42 293 31 383 31 c 2
 415 31 l 1
 415 0 l 1
EndSplineSet
Substitution2: "'pnum' Proportional Numbers lookup 6 subtable" one.prop
Substitution2: "'onum' Oldstyle Figures lookup 4 subtable" one.oldstyle
AlternateSubs2: "'aalt' Access All Alternates lookup 1 subtable" one.oldstyle one.prop
EndChar

StartChar: P
Encoding: 80 80 83
Width: 497
Flags: HMW
HStem: 0 31<33.5153 51.0353> 316 26<173.675 272.225 272.225 297.045 173.675 173.675> 652 31<33.5153 51.0353 33.5153 291.205 190.1 207.255 207.255 272.225>
VStem: 33.5153 75.19<0 605 31 605 78 683 78 683> 108.705 62.78<342 605 605 612 342 623> 173.675 75.19<0 78 0 316> 388.295 75.19<473.5 521.5>
LayerCount: 2
Fore
SplineSet
463.484 497 m 0xf6
 463.484 397 384.645 316 297.045 316 c 2
 173.676 316 l 1
 173.676 78 l 2
 173.676 42 175.135 31 231.346 31 c 2
 248.865 31 l 1
 248.865 0 l 1
 223.314 3 168.564 3 140.826 3 c 0
 113.086 3 59.0645 3 33.5156 0 c 1
 33.5156 31 l 1
 51.0352 31 l 2
 107.246 31 108.705 42 108.705 78 c 2
 108.705 605 l 2
 108.705 641 107.246 652 51.0352 652 c 2
 33.5156 652 l 1
 33.5156 683 l 1
 291.205 683 l 2
 391.215 683 463.484 595 463.484 497 c 0xf6
388.295 497 m 0
 388.295 546 388.295 652 272.225 652 c 2
 207.256 652 l 2
 172.945 652 171.484 645 171.484 612 c 2
 171.484 342 l 1x6a
 272.225 342 l 2
 388.295 342 388.295 450 388.295 497 c 0
EndSplineSet
Position2: "'cpsp' Capital Spacing lookup 0 subtable" dx=5 dy=0 dh=10 dv=0
EndChar

StartChar: p
Encoding: 112 112 84
Width: 556
Flags: HMW
HStem: -194 31<31.5 65> -11 22<277.5 334.5 277.5 361> 400 31<31.5 67> 417 25<282 344>
VStem: 109.5 69<-118 50 50 59 104 114 114 337> 441.5 83<155.5 272.5>
LayerCount: 2
Fore
SplineSet
524.5 216 m 0x10
 524.5 87 420.5 -11 301.5 -11 c 0
 225.5 -11 183.5 43 178.5 59 c 1
 178.5 50 l 1
 178.5 -118 l 2
 178.5 -163 189.5 -163 256.5 -163 c 1
 256.5 -194 l 1
 143.5 -191 l 1
 31.5 -194 l 1
 31.5 -163 l 1
 98.5 -163 109.5 -163 109.5 -118 c 2
 109.5 350 l 2
 109.5 394 102.5 400 31.5 400 c 1
 31.5 431 l 1xec
 175.5 442 l 1
 175.5 376 l 1
 195.5 398 237.5 442 315.5 442 c 0
 427.5 442 524.5 343 524.5 216 c 0x10
441.5 216 m 0
 441.5 329 380.5 417 307.5 417 c 0x14
 256.5 417 207.5 388 178.5 337 c 1
 178.5 114 l 2
 178.5 94 178.5 93 192.5 72 c 0
 219.5 31 257.5 11 297.5 11 c 0
 371.5 11 441.5 95 441.5 216 c 0
EndSplineSet
EndChar

StartChar: parenleft
Encoding: 40 40 85
Width: 389
Flags: HMW
HStem: -250 21G<295.5 303.5> 730 20G<295.5 303.5>
VStem: 78.5 58<211 292>
LayerCount: 2
Fore
SplineSet
310.5 -240 m 0
 310.5 -247 306.5 -250 300.5 -250 c 0
 290.5 -250 204.5 -185 144.5 -62 c 0
 89.5 51 78.5 172 78.5 250 c 0
 78.5 334 90.5 445 141.5 555 c 0
 200.5 682 290.5 750 300.5 750 c 0
 306.5 750 310.5 747 310.5 740 c 0
 310.5 737 310.5 735 297.5 723 c 0
 174.5 598 136.5 424 136.5 250 c 0
 136.5 97 168.5 -92 293.5 -218 c 0
 310.5 -235 310.5 -237 310.5 -240 c 0
EndSplineSet
EndChar

StartChar: parenright
Encoding: 41 41 86
Width: 389
Flags: HMW
HStem: -250 21G<85.5 93.5> 730 20G<85.5 93.5>
VStem: 252.5 58<208 289 208 354.5>
LayerCount: 2
Fore
SplineSet
310.5 250 m 0
 310.5 166 298.5 55 247.5 -55 c 0
 188.5 -182 98.5 -250 88.5 -250 c 0
 82.5 -250 78.5 -246 78.5 -240 c 0
 78.5 -237 78.5 -235 91.5 -223 c 0
 215.5 -97 252.5 79 252.5 250 c 0
 252.5 459 195.5 618 97.5 717 c 0
 78.5 735 78.5 737 78.5 740 c 0
 78.5 746 82.5 750 88.5 750 c 0
 98.5 750 184.5 685 244.5 562 c 0
 299.5 449 310.5 328 310.5 250 c 0
EndSplineSet
EndChar

StartChar: percent
Encoding: 37 37 87
Width: 608
Flags: HMW
HStem: -56 22<465.33 491.61 465.33 498.545> 325 22<464.965 491.975> 347 22<141.94 168.22 141.94 175.155> 619 22<325.17 364.225 312.03 366.05> 728 22<141.575 160.19 120.77 168.585>
VStem: 41.1998 45.26<488.5 607.5> 130.99 18.25 225.16 18.25<495 555 492 601.5> 364.59 45.26<85.5 204.5> 548.55 18.25<92 198.5>
LayerCount: 2
Fore
SplineSet
506.209 730 m 0xbfc0
 506.209 724 504.75 721 500.369 712 c 2
 130.99 -41 l 2
 125.15 -52 123.689 -56 116.391 -56 c 0
 109.09 -56 101.789 -47 101.789 -36 c 1
 101.789 -36 101.789 -29 108.359 -16 c 2
 436.129 653 l 1
 435.4 654 l 1
 431.02 650 393.789 619 338.311 619 c 0
 312.029 619 275.529 624 228.08 661 c 1
 243.41 609 243.41 562 243.41 548 c 0
 243.41 436 201.801 347 148.51 347 c 0
 93.7598 347 41.1992 428 41.1992 549 c 0
 41.1992 666 93.0293 750 148.51 750 c 0
 171.869 750 187.199 735 201.07 718 c 0
 241.221 666 286.48 641 337.58 641 c 0
 390.869 641 439.779 668 476.279 736 c 0
 480.66 743 484.311 750 491.609 750 c 0
 499.641 750 506.209 741 506.209 730 c 0xbfc0
566.801 145 m 0
 566.801 33 525.189 -56 471.9 -56 c 0
 417.15 -56 364.59 25 364.59 146 c 0
 364.59 263 416.42 347 471.9 347 c 0
 523.73 347 566.801 260 566.801 145 c 0
225.16 549 m 0
 225.16 654 187.93 728 149.24 728 c 0
 133.91 728 86.459 715 86.459 548 c 0
 86.459 382 134.641 369 149.24 369 c 0
 187.199 369 225.16 441 225.16 549 c 0
548.551 146 m 0
 548.551 251 511.32 325 472.629 325 c 0x4040
 457.301 325 409.85 312 409.85 145 c 0
 409.85 -21 458.029 -34 472.629 -34 c 0
 510.59 -34 548.551 38 548.551 146 c 0
EndSplineSet
EndChar

StartChar: period
Encoding: 46 46 88
Width: 278
Flags: MW
HStem: 0 106<124.5 153.5>
VStem: 86 106<38.5 67.5>
LayerCount: 2
Fore
SplineSet
192 53 m 0
 192 24 168 0 139 0 c 0
 110 0 86 24 86 53 c 0
 86 82 110 106 139 106 c 0
 168 106 192 82 192 53 c 0
EndSplineSet
EndChar

StartChar: plus
Encoding: 43 43 89
Width: 778
Flags: HMW
HStem: -83 21G<379.5 399.5> 230 40<82.5 369.5 89.5 369.5 409.5 688.5> 563 20G<379.5 399.5>
VStem: 369.5 40<-50 230 270 550>
LayerCount: 2
Fore
SplineSet
721.5 250 m 0
 721.5 230 702.5 230 688.5 230 c 2
 409.5 230 l 1
 409.5 -50 l 2
 409.5 -64 409.5 -83 389.5 -83 c 0
 369.5 -83 369.5 -64 369.5 -50 c 2
 369.5 230 l 1
 89.5 230 l 2
 75.5 230 56.5 230 56.5 250 c 0
 56.5 270 75.5 270 89.5 270 c 2
 369.5 270 l 1
 369.5 550 l 2
 369.5 564 369.5 583 389.5 583 c 0
 409.5 583 409.5 564 409.5 550 c 2
 409.5 270 l 1
 688.5 270 l 2
 702.5 270 721.5 270 721.5 250 c 0
EndSplineSet
EndChar

StartChar: Q
Encoding: 81 81 90
Width: 567
Flags: HMW
HStem: -194 103<428.77 461.62 428.77 477.315> -22 25<263.06 289.705 263.06 292.99> 42 22 126 22<268.17 302.115> 680 25<247.365 316.35>
VStem: 38.5851 73<238 442> 222.545 16.06<56.5 78.5 56.5 84.5> 451.035 73<300 441 263.5 466.5> 512.355 16.06
LayerCount: 2
Fore
SplineSet
528.415 -10 m 0x8080
 528.415 -61 514.545 -194 440.085 -194 c 0
 372.195 -194 361.975 -102 351.025 -7 c 1
 329.855 -16 304.305 -22 281.675 -22 c 0
 148.815 -22 38.585 137 38.585 339 c 0
 38.585 545 150.275 705 280.945 705 c 0
 413.805 705 524.035 543 524.035 339 c 0xcd
 524.035 188 461.985 60 375.845 7 c 1
 393.365 -57 411.615 -91 445.925 -91 c 0
 477.315 -91 507.975 -61 512.355 -7 c 0
 513.085 3 513.815 11 520.385 11 c 0
 528.415 11 528.415 0 528.415 -10 c 0x8080
451.035 339 m 0
 451.035 594 351.755 680 280.945 680 c 0
 213.785 680 111.585 599 111.585 339 c 0
 111.585 109 193.345 36 232.765 16 c 1
 232.035 18 222.545 37 222.545 64 c 0
 222.545 105 245.175 148 282.405 148 c 0
 325.475 148 348.835 98 364.896 42 c 1
 442.275 120 451.035 261 451.035 339 c 0
345.915 26 m 1
 337.885 84 321.825 126 282.405 126 c 0
 253.936 126 238.605 93 238.605 64 c 0
 238.605 49 244.445 3 281.675 3 c 0
 297.735 3 321.095 7 345.915 26 c 1
EndSplineSet
Position2: "'cpsp' Capital Spacing lookup 0 subtable" dx=5 dy=0 dh=10 dv=0
EndChar

StartChar: q
Encoding: 113 113 91
Width: 528
Flags: HMW
HStem: -194 31<285.5 319> -11 22<198 258 198 265.5> 417 25<207.5 278.5 180.5 284.5>
VStem: 17.5 83<157.5 274.5 157.5 280> 363.5 69<-118 61 61 61>
LayerCount: 2
Fore
SplineSet
510.5 -194 m 1
 397.5 -191 l 1
 285.5 -194 l 1
 285.5 -163 l 1
 352.5 -163 363.5 -163 363.5 -118 c 2
 363.5 61 l 1
 341.5 32 300.5 -11 230.5 -11 c 0
 114.5 -11 17.5 90 17.5 215 c 0
 17.5 345 122.5 442 238.5 442 c 0
 318.5 442 359.5 379 372.5 351 c 1
 410.5 442 l 1
 432.5 442 l 1
 432.5 -118 l 2
 432.5 -163 443.5 -163 510.5 -163 c 1
 510.5 -194 l 1
366.5 136 m 2
 366.5 277 l 2
 366.5 330 324.5 417 244.5 417 c 0
 170.5 417 100.5 334 100.5 215 c 0
 100.5 100 161.5 11 234.5 11 c 0
 281.5 11 313.5 38 326.5 52 c 0
 348.5 76 366.5 104 366.5 136 c 2
EndSplineSet
EndChar

StartChar: question
Encoding: 63 63 92
Width: 472
Flags: HMW
HStem: 0 106<208 237> 187 21G<216.5 229> 481 91 524 91<92.5 99.5 92.5 116.5> 683 22<202.5 278>
VStem: 56.5 92<557 592.5 557 604.5> 169.5 106<38.5 67.5> 226.5 106 275.5 92 332.5 83<549 595.5>
LayerCount: 2
Fore
SplineSet
415.5 570 m 0x2d
 415.5 528 394.5 492 367.5 472 c 0
 332.5 446 235.5 375 235.5 249 c 2
 235.5 214 l 2
 235.5 196 235.5 187 222.5 187 c 0
 210.5 187 210.5 193 210.5 211 c 2
 210.5 256 l 2
 210.5 317 232.5 409 298.5 481 c 1x6080
 316.5 499 332.5 517 332.5 576 c 0
 332.5 615 332.5 683 223.5 683 c 0
 181.5 683 123.5 668 92.5 615 c 1
 106.5 615 148.5 615 148.5 570 c 0
 148.5 544 130.5 524 102.5 524 c 0x1c40
 79.5 524 56.5 538 56.5 572 c 0
 56.5 637 118.5 705 226.5 705 c 0
 375.5 705 415.5 628 415.5 570 c 0x2d
275.5 53 m 0
 275.5 24 251.5 0 222.5 0 c 0
 193.5 0 169.5 24 169.5 53 c 0
 169.5 82 193.5 106 222.5 106 c 0
 251.5 106 275.5 82 275.5 53 c 0
EndSplineSet
EndChar

StartChar: quotedbl
Encoding: 34 34 93
Width: 374
Flags: MW
HStem: 423 21G<126 152 126 126 222 222 222 248> 685 20G<129 149 225 245>
LayerCount: 2
Fore
SplineSet
174 670 m 2
 152 423 l 1
 126 423 l 1
 104 670 l 2
 102 690 119 705 139 705 c 0
 159 705 176 690 174 670 c 2
270 670 m 2
 248 423 l 1
 222 423 l 1
 200 670 l 2
 198 690 215 705 235 705 c 0
 255 705 272 690 270 670 c 2
EndSplineSet
EndChar

StartChar: quotesingle
Encoding: 39 39 94
Width: 278
Flags: MW
HStem: 423 21G<126 152 126 126> 685 20G<129 149>
VStem: 126 26<423 423>
LayerCount: 2
Fore
SplineSet
174 670 m 2
 152 423 l 1
 126 423 l 1
 104 670 l 2
 102 690 119 705 139 705 c 0
 159 705 176 690 174 670 c 2
EndSplineSet
EndChar

StartChar: R
Encoding: 82 82 95
Width: 537
Flags: HMW
HStem: -22 22<442.605 465.6> 0 31<14.0949 31.6149> 331 22<152.065 233.095 233.095 236.015 152.065 233.095> 652 31<14.0949 31.6149 14.0949 243.315 203.895 243.315 243.315 244.045>
VStem: 14.0949 75.19<0 605 31 605 78 683 78 683> 89.2849 62.78<78 331 353 605 605 612> 152.065 75.19<0 78 0 331>
CounterMasks: 1 0e
LayerCount: 2
Fore
SplineSet
522.905 88 m 0x9e
 522.905 60 510.495 -22 453.555 -22 c 0xbe
 431.655 -22 391.505 -16 361.575 20 c 1
 331.645 58 331.645 98 331.645 163 c 0
 331.645 230 331.645 261 303.905 297 c 0
 278.354 331 247.695 331 236.015 331 c 2
 152.064 331 l 1
 152.064 78 l 2
 152.064 42 153.525 31 209.735 31 c 2
 227.255 31 l 1
 227.255 0 l 1
 200.975 3 149.145 3 120.675 3 c 0
 92.2051 3 40.375 3 14.0947 0 c 1
 14.0947 31 l 1
 31.6152 31 l 2x6e
 87.8252 31 89.2852 42 89.2852 78 c 2
 89.2852 605 l 2
 89.2852 641 87.8252 652 31.6152 652 c 2
 14.0947 652 l 1
 14.0947 683 l 1
 243.314 683 l 2
 350.625 683 433.845 599 433.845 503 c 0
 433.845 425 376.905 364 306.095 340 c 1
 346.245 321 382.015 288 395.155 224 c 1
 404.645 144 l 1
 414.865 51 420.705 0 456.475 0 c 0
 474.725 0 500.275 18 504.655 89 c 0
 505.385 96 505.385 105 513.415 105 c 0
 522.905 105 522.905 94 522.905 88 c 0x9e
358.655 503 m 0
 358.655 648 276.895 652 211.195 652 c 0
 196.595 652 175.425 652 168.125 650 c 0
 152.064 647 152.064 635 152.064 612 c 2
 152.064 353 l 1
 233.095 353 l 2
 341.135 353 358.655 434 358.655 503 c 0
EndSplineSet
Position2: "'cpsp' Capital Spacing lookup 0 subtable" dx=5 dy=0 dh=10 dv=0
EndChar

StartChar: r
Encoding: 114 114 96
Width: 392
Flags: MW
HStem: 0 31<28 61.5> 400 31<28 63> 420 22<253.5 293.5>
VStem: 106 66<76 78 78 232> 278 86<366 393>
LayerCount: 2
Fore
SplineSet
364 381 m 0x20
 364 349 339 337 321 337 c 0
 299 337 278 352 278 380 c 0
 278 406 298 418 301 419 c 1
 299 420 297 420 290 420 c 0x28
 214 420 172 331 172 232 c 2
 172 78 l 2
 172 42 174 31 248 31 c 2
 269 31 l 1
 269 0 l 1
 229 3 182 3 142 3 c 1
 28 0 l 1
 28 31 l 1
 95 31 106 31 106 76 c 2
 106 344 l 2
 106 393 98 400 28 400 c 1
 28 431 l 1xd0
 167 442 l 1
 167 332 l 1
 181 375 217 442 290 442 c 0
 333 442 364 413 364 381 c 0x20
EndSplineSet
EndChar

StartChar: S
Encoding: 83 83 97
Width: 405
Flags: HMW
HStem: -22 31<209.07 250.315 209.07 263.09> 186 31 388 31 480 31 677 28<155.415 215.64 142.64 244.84>
VStem: 40.8053 46.72<517 564> 136.435 46.72 317.475 46.72<131 168.5>
LayerCount: 2
Fore
SplineSet
364.195 186 m 0
 364.195 76 305.795 -22 220.385 -22 c 0
 155.416 -22 108.695 14 86.0645 48 c 1
 61.9746 -5 59.7852 -9 59.7852 -9 c 2
 54.6758 -20 53.9453 -22 48.8359 -22 c 0
 40.8047 -22 40.8047 -15 40.8047 2 c 2
 40.8047 202 l 2
 40.8047 220 40.8047 227 50.2949 227 c 0
 52.4844 227 58.3262 227 59.0547 217 c 0
 59.7852 181 61.9746 117 104.314 63 c 0
 143.006 14 198.484 9 219.656 9 c 0
 280.975 9 317.475 81 317.475 152 c 0
 317.475 185 310.176 218 294.846 244 c 1
 274.406 281 252.506 288 232.795 295 c 0
 181.695 312 144.465 324 136.436 328 c 0
 79.4961 355 40.8047 428 40.8047 511 c 0
 40.8047 617 102.125 705 183.156 705 c 0
 248.125 705 278.055 664 299.955 635 c 1
 325.506 692 l 2
 330.615 704 331.346 705 336.455 705 c 0
 344.484 705 344.484 698 344.484 681 c 2
 344.484 480 l 2
 344.484 461 344.484 456 334.996 456 c 0
 326.965 456 326.965 462 326.234 468 c 0
 321.855 513 305.795 677 183.885 677 c 0
 126.945 677 87.5254 616 87.5254 546 c 0
 87.5254 488 115.996 434 161.256 419 c 2
 254.695 388 l 2
 316.016 368 364.195 286 364.195 186 c 0
EndSplineSet
Position2: "'cpsp' Capital Spacing lookup 0 subtable" dx=5 dy=0 dh=10 dv=0
EndChar

StartChar: s
Encoding: 115 115 98
Width: 394
Flags: HMW
HStem: -11 22<189 238.5 157.5 257> 13 19 429 19<150.5 201 132.5 248.5>
VStem: 33.5 48<324 353> 287.5 48 312.5 48<92 138>
LayerCount: 2
Fore
SplineSet
360.5 128 m 0x38
 360.5 56 314.5 -11 199.5 -11 c 0
 178.5 -11 133.5 -10 89.5 32 c 1
 71.5 13 71.5 11 69.5 9 c 0
 50.5 -10 49.5 -11 44.5 -11 c 0
 33.5 -11 33.5 -4 33.5 13 c 2
 33.5 145 l 2
 33.5 163 33.5 170 46.5 170 c 0
 56.5 170 57.5 166 60.5 153 c 0
 79.5 68 115.5 11 199.5 11 c 0
 277.5 11 312.5 51 312.5 102 c 0xd4
 312.5 174 230.5 190 208.5 194 c 0
 136.5 208 108.5 214 76.5 240 c 0
 49.5 262 33.5 290 33.5 325 c 0
 33.5 381 71.5 448 193.5 448 c 0
 208.5 448 249.5 448 287.5 420 c 1
 291.5 423 301.5 432 304.5 436 c 0
 317.5 448 319.5 448 324.5 448 c 0
 335.5 448 335.5 441 335.5 424 c 2
 335.5 323 l 2
 335.5 304 335.5 299 322.5 299 c 1
 322.5 299 311.5 299 310.5 308 c 0
 308.5 339 303.5 429 193.5 429 c 0
 107.5 429 81.5 388 81.5 353 c 0
 81.5 295 148.5 282 204.5 271 c 0
 246.5 263 285.5 255 318.5 223 c 0
 330.5 211 360.5 181 360.5 128 c 0x38
EndSplineSet
EndChar

StartChar: semicolon
Encoding: 59 59 99
Width: 278
Flags: HMW
HStem: -193 21G<108 116> 0 106<120 140> 325 106<123 152>
VStem: 84.5 106<363.5 392.5>
LayerCount: 2
Fore
SplineSet
190.5 378 m 0
 190.5 349 166.5 325 137.5 325 c 0
 108.5 325 84.5 349 84.5 378 c 0
 84.5 407 108.5 431 137.5 431 c 0
 166.5 431 190.5 407 190.5 378 c 0
193.5 3 m 0
 193.5 -113 121.5 -193 110.5 -193 c 0
 105.5 -193 100.5 -189 100.5 -182 c 0
 100.5 -179 100.5 -177 107.5 -169 c 0
 171.5 -95 171.5 -17 171.5 11 c 1
 163.5 4 152.5 2 145.5 1 c 2
 145.5 1 142.5 0 137.5 0 c 0
 101.5 0 84.5 27 84.5 53 c 0
 84.5 79 102.5 106 137.5 106 c 0
 191.5 106 193.5 32 193.5 3 c 0
EndSplineSet
EndChar

StartChar: seven
Encoding: 55 55 100
Width: 500
Flags: HMW
HStem: -22 21G<178.5 224.5> 567 77<177 464.5 221.5 390.5> 656 20G<68.5 93.5 93.5 93.5>
VStem: 155.5 92<28 33 33 84>
LayerCount: 2
Fore
SplineSet
464.5 644 m 1
 464.5 623 464.5 621 455.5 609 c 2
 320.5 419 l 2
 276.5 357 262.5 271 258.5 248 c 0
 250.5 194 247.5 139 247.5 84 c 2
 247.5 33 l 2
 247.5 23 247.5 -22 201.5 -22 c 0
 155.5 -22 155.5 23 155.5 33 c 0
 155.5 135 188.5 274 278.5 409 c 1
 390.5 567 l 1
 183.5 567 l 2
 170.5 567 92.5 567 85.5 561 c 0
 72.5 549 63.5 486 60.5 470 c 1
 35.5 470 l 1
 68.5 676 l 1
 93.5 676 l 1
 97.5 657 99.5 644 221.5 644 c 2
 464.5 644 l 1
EndSplineSet
Substitution2: "'pnum' Proportional Numbers lookup 6 subtable" seven.prop
Substitution2: "'onum' Oldstyle Figures lookup 4 subtable" seven.oldstyle
AlternateSubs2: "'aalt' Access All Alternates lookup 1 subtable" seven.oldstyle seven.prop
EndChar

StartChar: six
Encoding: 54 54 101
Width: 500
Flags: HMW
HStem: -22 28<220 263 220 307> 404 23<223.5 264.5> 510 91<388 394.5> 641 25<282 319.5>
VStem: 42.5 90<328 352 328 426.5> 305.5 90 367.5 90<181 229.5>
LayerCount: 2
Fore
SplineSet
457.5 204 m 0xfc
 457.5 72 362.5 -22 251.5 -22 c 0
 158.5 -22 42.5 49 42.5 316 c 0
 42.5 537 177.5 666 305.5 666 c 0
 388.5 666 432.5 618 432.5 558 c 0
 432.5 519 402.5 510 386.5 510 c 0
 364.5 510 340.5 525 340.5 556 c 0
 340.5 601 380.5 601 395.5 601 c 1
 373.5 635 331.5 641 307.5 641 c 0
 256.5 641 132.5 605 132.5 352 c 2
 132.5 328 l 1
 152.5 376 189.5 427 257.5 427 c 0
 368.5 427 457.5 331 457.5 204 c 0xfc
367.5 205 m 0
 367.5 254 367.5 305 349.5 342 c 0
 318.5 404 272.5 404 256.5 404 c 0
 166.5 404 134.5 304 134.5 226 c 0
 134.5 208 134.5 128 152.5 81 c 0
 158.5 66 188.5 6 251.5 6 c 0
 274.5 6 320.5 11 350.5 71 c 0
 367.5 107 367.5 157 367.5 205 c 0
EndSplineSet
Substitution2: "'pnum' Proportional Numbers lookup 6 subtable" six.prop
Substitution2: "'onum' Oldstyle Figures lookup 4 subtable" six.oldstyle
AlternateSubs2: "'aalt' Access All Alternates lookup 1 subtable" six.oldstyle six.prop
EndChar

StartChar: slash
Encoding: 47 47 102
Width: 500
Flags: HMW
HStem: -250 21G<71 83.5> 730 20G<402.5 429 416.5 443.5>
VStem: 56.5 387
LayerCount: 2
Fore
SplineSet
443.5 730 m 1
 443.5 730 443.5 725 438.5 712 c 2
 97.5 -230 l 2
 94.5 -240 90.5 -250 76.5 -250 c 0
 65.5 -250 56.5 -241 56.5 -230 c 1
 56.5 -230 56.5 -225 61.5 -212 c 2
 402.5 730 l 2
 405.5 740 409.5 750 423.5 750 c 0
 434.5 750 443.5 741 443.5 730 c 1
EndSplineSet
EndChar

StartChar: T
Encoding: 84 84 104
Width: 527
Flags: HMW
HStem: 0 31<125.165 154.365> 452 21G<26.615 44.865 26.615 26.615 482.135 500.385 482.135 482.135> 646 31<121.15 182.835 343.8 405.85>
VStem: 26.615 18.25<452 452> 231.015 64.97<79 606> 482.135 18.25<452 452>
CounterMasks: 1 1c
LayerCount: 2
Fore
SplineSet
500.385 452 m 1
 482.135 452 l 1
 471.915 613 460.965 646 350.735 646 c 0
 336.865 646 317.155 646 309.125 644 c 0
 295.985 640 295.985 626 295.985 606 c 2
 295.985 79 l 2
 295.985 45 295.985 31 372.635 31 c 2
 401.835 31 l 1
 401.835 0 l 1
 371.905 3 296.715 3 263.135 3 c 0
 229.555 3 155.095 3 125.165 0 c 1
 125.165 31 l 1
 154.365 31 l 2
 231.015 31 231.015 45 231.015 79 c 2
 231.015 606 l 2
 231.015 629 231.015 640 215.685 644 c 0
 208.385 646 189.405 646 176.265 646 c 0
 66.0352 646 55.085 613 44.8652 452 c 1
 26.6152 452 l 1
 40.4854 677 l 1
 486.515 677 l 1
 500.385 452 l 1
EndSplineSet
Position2: "'cpsp' Capital Spacing lookup 0 subtable" dx=5 dy=0 dh=10 dv=0
EndChar

StartChar: t
Encoding: 116 116 105
Width: 389
Flags: HMW
HStem: -11 25<234 277.5 225.5 287.5> 161 20G<326 351 351 351> 400 31<192 335 192 335> 595 20G<167 192 192 192>
VStem: 123 69<124 400> 167 25<615 615> 326 25<126 181>
LayerCount: 2
Fore
SplineSet
351 124 m 2xfa
 351 60 323 -11 252 -11 c 0
 216 -11 123 1 123 124 c 2
 123 400 l 1xaa
 38 400 l 1
 38 422 l 1
 136 426 166 533 167 615 c 1x34
 192 615 l 1
 192 431 l 1
 335 431 l 1
 335 400 l 1
 192 400 l 1
 192 122 l 2
 192 105 192 14 259 14 c 0
 296 14 326 52 326 126 c 2
 326 181 l 1
 351 181 l 1
 351 124 l 2xfa
EndSplineSet
EndChar

StartChar: three
Encoding: 51 51 106
Width: 500
Flags: HMW
HStem: -22 28<220 263.5 220 305.5> 77 116 337 23<183 186 182.5 191.5 182.5 235.5> 478 101<109.5 117 109.5 136> 641 25<224.5 263>
VStem: 154.5 92 246.5 92 338.5 92<523 569 488.5 574>
CounterMasks: 1 07
LayerCount: 2
Fore
SplineSet
457.5 171 m 0
 457.5 69 366.5 -22 244.5 -22 c 0
 135.5 -22 42.5 44 42.5 135 c 0
 42.5 179 74.5 193 98.5 193 c 0
 127.5 193 154.5 173 154.5 137 c 0
 154.5 99 123.5 77 88.5 82 c 1
 123.5 23 198.5 6 241.5 6 c 0
 285.5 6 354.5 35 354.5 171 c 0
 354.5 269 317.5 337 235.5 337 c 2
 191.5 337 l 2
 174.5 337 167.5 337 167.5 348 c 0
 167.5 358 174.5 359 182.5 360 c 0
 189.5 360 213.5 362 221.5 363 c 0
 246.5 364 280.5 367 310.5 415 c 1
 336.5 459 338.5 517 338.5 529 c 0
 338.5 619 283.5 641 242.5 641 c 0
 206.5 641 140.5 628 109.5 579 c 1
 124.5 579 171.5 579 171.5 529 c 0
 171.5 500 151.5 478 120.5 478 c 0
 91.5 478 69.5 497 69.5 530 c 0
 69.5 606 145.5 666 246.5 666 c 0
 342.5 666 430.5 610 430.5 528 c 0
 430.5 449 372.5 379 290.5 352 c 1
 394.5 331 457.5 253 457.5 171 c 0
EndSplineSet
Substitution2: "'pnum' Proportional Numbers lookup 6 subtable" three.prop
Substitution2: "'onum' Oldstyle Figures lookup 4 subtable" three.oldstyle
AlternateSubs2: "'aalt' Access All Alternates lookup 1 subtable" three.oldstyle three.prop
EndChar

StartChar: two
Encoding: 50 50 107
Width: 500
Flags: HMW
HStem: 0 77<127.5 307.5 307.5 318.5 127.5 421.5> 174 77 429 105<102 112> 635 31<195.5 270>
VStem: 50.5 105<461.5 495 461.5 529.5> 253.5 105 358.5 91<432 513>
LayerCount: 2
Fore
SplineSet
449.5 174 m 1xfa
 421.5 0 l 1
 50.5 0 l 1
 50.5 24 50.5 26 61.5 37 c 2
 253.5 251 l 2xcc
 308.5 313 358.5 392 358.5 472 c 0
 358.5 554 315.5 635 224.5 635 c 0
 166.5 635 112.5 598 89.5 533 c 1
 92.5 534 94.5 534 102.5 534 c 0
 137.5 534 155.5 508 155.5 482 c 0
 155.5 441 120.5 429 103.5 429 c 0
 100.5 429 50.5 429 50.5 485 c 0
 50.5 574 124.5 666 237.5 666 c 0
 359.5 666 449.5 586 449.5 472 c 0
 449.5 372 389.5 318 233.5 180 c 1
 127.5 77 l 1
 307.5 77 l 2
 329.5 77 395.5 77 402.5 85 c 1
 412.5 100 419.5 144 424.5 174 c 1
 449.5 174 l 1xfa
EndSplineSet
Substitution2: "'pnum' Proportional Numbers lookup 6 subtable" two.prop
Substitution2: "'onum' Oldstyle Figures lookup 4 subtable" two.oldstyle
AlternateSubs2: "'aalt' Access All Alternates lookup 1 subtable" two.oldstyle two.prop
EndChar

StartChar: U
Encoding: 85 85 108
Width: 547
Flags: HMW
HStem: -22 31<267.66 319.49 267.66 325.33> 574 31 652 31<24.2052 41.7252 24.2052 24.2052>
VStem: 99.3952 64.97<228 605> 284.815 64.97 424.975 22.63<234 254 254 574>
LayerCount: 2
Fore
SplineSet
522.795 652 m 1
 447.605 652 447.605 607 447.605 574 c 2
 447.605 254 l 2
 447.605 214 447.605 205 445.415 185 c 0
 433.005 71 367.306 -22 283.355 -22 c 0
 184.075 -22 99.3955 87 99.3955 228 c 2
 99.3955 605 l 2
 99.3955 641 97.9355 652 41.7256 652 c 2
 24.2051 652 l 1
 24.2051 683 l 1
 49.7549 680 104.505 680 132.245 680 c 0
 159.985 680 214.005 680 239.556 683 c 1
 239.556 652 l 1
 222.035 652 l 2
 165.825 652 164.365 641 164.365 605 c 2
 164.365 224 l 2
 164.365 34 250.505 9 284.815 9 c 0
 354.165 9 424.976 89 424.976 231 c 2
 424.976 578 l 2
 424.976 605 424.976 652 349.785 652 c 1
 349.785 683 l 1
 436.655 680 l 1
 522.795 683 l 1
 522.795 652 l 1
EndSplineSet
Position2: "'cpsp' Capital Spacing lookup 0 subtable" dx=5 dy=0 dh=10 dv=0
EndChar

StartChar: u
Encoding: 117 117 109
Width: 556
Flags: HMW
HStem: -11 22<219.5 284.5> 0 31<494.5 529.5> 79 31 400 31<26.5 65.5> 400 42
VStem: 104.5 69<158 308 308 352.5> 382.5 69<166 344 344 368.5>
LayerCount: 2
Fore
SplineSet
529.5 0 m 1x4a
 385.5 -11 l 1
 385.5 79 l 1
 356.5 17 312.5 -11 256.5 -11 c 0
 104.5 -11 104.5 80 104.5 158 c 2
 104.5 308 l 2
 104.5 397 104.5 400 26.5 400 c 1
 26.5 431 l 1xb4
 173.5 442 l 1x0c
 173.5 110 l 2
 173.5 58 177.5 11 261.5 11 c 0
 334.5 11 382.5 79 382.5 166 c 2
 382.5 344 l 2
 382.5 393 374.5 400 304.5 400 c 1
 304.5 431 l 1xb6
 451.5 442 l 1
 451.5 87 l 2
 451.5 38 459.5 31 529.5 31 c 1
 529.5 0 l 1x4a
EndSplineSet
EndChar

StartChar: underscore
Encoding: 95 95 110
Width: 750
Flags: MW
HStem: -138 26<0 750 0 750>
LayerCount: 2
Fore
SplineSet
750 -138 m 1
 0 -138 l 1
 0 -112 l 1
 750 -112 l 1
 750 -138 l 1
EndSplineSet
EndChar

StartChar: V
Encoding: 86 86 111
Width: 547
Flags: HMW
HStem: -22 21G<268.39 279.34> 652 31<13.9847 37.7097>
VStem: 13.9847 519.03<652 683 652 683>
LayerCount: 2
Fore
SplineSet
533.016 652 m 1
 483.375 651 463.664 622 453.445 585 c 2
 290.654 -3 l 2
 287.004 -17 285.545 -22 273.135 -22 c 0
 263.645 -22 259.994 -19 254.885 0 c 2
 85.5254 614 l 2
 75.3047 652 61.4355 652 13.9844 652 c 1
 13.9844 683 l 1
 106.695 680 l 2
 134.436 680 184.805 680 211.084 683 c 1
 211.084 652 l 1
 192.834 652 151.225 652 151.225 623 c 1
 151.225 623 151.225 619 155.605 605 c 2
 295.035 100 l 1
 428.625 582 l 2
 430.084 588 432.275 594 432.275 602 c 0
 432.275 625 416.945 651 378.984 652 c 1
 378.984 683 l 1
 462.205 680 l 2
 481.186 680 510.385 681 533.016 683 c 1
 533.016 652 l 1
EndSplineSet
Position2: "'cpsp' Capital Spacing lookup 0 subtable" dx=5 dy=0 dh=10 dv=0
EndChar

StartChar: v
Encoding: 118 118 112
Width: 528
Flags: HMW
HStem: -11 21G<258 271> 400 31<19.5 51>
VStem: 19.5 489<400 431 400 431>
LayerCount: 2
Fore
SplineSet
508.5 400 m 1
 442.5 399 425.5 356 416.5 333 c 2
 285.5 8 l 2
 281.5 -2 277.5 -11 264.5 -11 c 0
 251.5 -11 249.5 -6 243.5 8 c 2
 99.5 363 l 2
 86.5 394 82.5 400 19.5 400 c 1
 19.5 431 l 1
 49.5 429 89.5 428 116.5 428 c 2
 225.5 431 l 1
 225.5 400 l 1
 207.5 400 168.5 400 168.5 374 c 1
 168.5 374 168.5 370 174.5 357 c 2
 286.5 78 l 1
 388.5 333 l 2
 392.5 344 394.5 348 394.5 357 c 0
 394.5 376 383.5 399 346.5 400 c 1
 346.5 431 l 1
 433.5 428 l 2
 456.5 428 485.5 429 508.5 431 c 1
 508.5 400 l 1
EndSplineSet
EndChar

StartChar: W
Encoding: 87 87 113
Width: 544
Flags: HMW
HStem: -22 21G<170.24 177.395 366.34 373.495> 579 31 585 31 652 31<9.38521 29.2602>
VStem: 9.38521 525.23<652 683 652 683>
LayerCount: 2
Fore
SplineSet
534.615 652 m 1x58
 513.945 652 491.154 642 481.615 585 c 2x38
 380.385 -2 l 2
 378.266 -15 377.205 -22 369.785 -22 c 0
 362.895 -22 361.305 -12 359.715 -3 c 2
 271.734 506 l 1
 184.285 -2 l 2
 182.166 -15 181.105 -22 173.686 -22 c 0
 166.795 -22 165.205 -12 163.615 -3 c 2
 57.6152 610 l 2xc0
 51.2559 647 49.1348 652 9.38477 652 c 1
 9.38477 683 l 1
 74.0449 680 l 2
 94.1855 680 130.225 680 149.305 683 c 1
 149.305 652 l 1
 135.525 652 104.785 652 104.785 622 c 0
 104.785 619 105.314 612 105.846 609 c 2
 191.176 117 l 1
 264.846 546 l 1
 253.186 616 l 2x38
 246.826 652 235.695 652 205.484 652 c 1
 205.484 683 l 1
 270.145 680 l 2
 290.285 680 326.326 680 345.404 683 c 1
 345.404 652 l 1
 331.625 652 300.885 652 300.885 622 c 0
 300.885 617 301.945 611 302.475 607 c 2
 387.275 117 l 1
 466.775 579 l 2
 467.836 585 469.426 593 469.426 599 c 0
 469.426 618 458.826 651 423.314 652 c 1
 423.314 683 l 1
 486.385 680 l 2
 502.285 680 518.715 681 534.615 683 c 1
 534.615 652 l 1x58
EndSplineSet
Position2: "'cpsp' Capital Spacing lookup 0 subtable" dx=4 dy=0 dh=7 dv=0
EndChar

StartChar: w
Encoding: 119 119 114
Width: 548
Flags: HMWO
HStem: -11 21G<177.08 186.96 361.76 371.64> 354 31 400 31<14.06 33.06>
VStem: 14.06 520.6<400 431 400 431>
LayerCount: 2
Fore
SplineSet
534.66 400 m 1
 508.06 399 484.5 386 470.82 336 c 2
 381.9 8 l 2
 378.86 -2 376.58 -11 366.7 -11 c 0
 356.82 -11 354.54 -3 351.5 8 c 2
 273.98 292 l 1
 197.22 9 l 2
 193.42 -5 191.9 -11 182.02 -11 c 0
 172.14 -11 169.86 -3 166.06 11 c 2
 70.2998 365 l 2
 61.1797 397 52.0596 400 14.0596 400 c 1
 14.0596 431 l 1
 84.7402 428 l 1
 167.58 431 l 1
 167.58 400 l 1
 152.38 400 122.74 400 122.74 373 c 0
 122.74 369 122.74 367 126.54 355 c 2
 198.74 88 l 1
 264.1 330 l 1
 258.78 349 250.42 379 246.62 385 c 0
 239.02 398 226.86 400 198.74 400 c 1
 198.74 431 l 1
 221.54 429 243.58 428 266.38 428 c 2
 345.42 431 l 1
 345.42 400 l 1
 330.22 400 300.58 400 300.58 373 c 0
 300.58 368 301.34 366 304.38 354 c 2
 379.62 75 l 1
 448.78 331 l 2
 452.58 344 452.58 346 452.58 352 c 0
 452.58 381 435.86 399 408.5 400 c 1
 408.5 431 l 1
 479.18 428 l 2
 495.9 428 517.94 429 534.66 431 c 1
 534.66 400 l 1
EndSplineSet
EndChar

StartChar: X
Encoding: 88 88 115
Width: 547
Flags: HMW
HStem: 0 31<17.27 54.135> 652 31<26.76 40.63 26.76 26.76>
VStem: 17.27 512.46<0 31 0 31>
LayerCount: 2
Fore
SplineSet
529.73 0 m 1
 434.83 3 l 2
 407.09 3 353.8 3 328.25 0 c 1
 328.25 31 l 1
 359.64 32 375.7 49 375.7 61 c 0
 375.7 64 373.51 68 372.05 72 c 2
 256.71 311 l 1
 153.05 101 l 2
 147.94 90 145.75 86 145.75 77 c 0
 145.75 59 158.16 32 191.74 31 c 1
 191.74 0 l 1
 165.46 3 125.31 3 98.2998 3 c 2
 17.2695 0 l 1
 17.2695 31 l 1
 91 31 112.9 77 123.12 97 c 2
 242.84 339 l 1
 108.52 617 l 2
 94.6504 645 80.7803 652 40.6299 652 c 2
 26.7598 652 l 1
 26.7598 683 l 1
 121.66 680 l 2
 149.4 680 202.69 680 228.24 683 c 1
 228.24 652 l 1
 196.85 651 180.79 634 180.79 622 c 0
 180.79 618 184.44 610 185.9 607 c 2
 280.07 414 l 1
 363.29 583 l 2
 368.4 594 369.86 596 369.86 606 c 0
 369.86 629 353.8 651 324.6 652 c 1
 324.6 683 l 1
 353.8 680 388.84 680 418.04 680 c 1
 499.07 683 l 1
 499.07 652 l 1
 434.1 651 409.28 619 393.22 587 c 2
 293.21 386 l 1
 447.24 67 l 2
 462.57 36 477.9 31 515.86 31 c 2
 529.73 31 l 1
 529.73 0 l 1
EndSplineSet
Position2: "'cpsp' Capital Spacing lookup 0 subtable" dx=5 dy=0 dh=10 dv=0
EndChar

StartChar: x
Encoding: 120 120 116
Width: 528
Flags: MW
HStem: 0 31<12 22.5> 31 31 369 31 400 31<17 52>
VStem: 12 504<0 31 0 31>
LayerCount: 2
Fore
SplineSet
516 0 m 1x88
 486 2 447 3 420 3 c 2
 312 0 l 1x88
 312 31 l 1
 339 32 348 47 348 56 c 0
 348 62 335 78 327 89 c 2
 251 189 l 1
 190 117 161 84 161 62 c 0x40
 161 47 168 34 190 31 c 1
 190 0 l 1
 95 3 l 2
 69 3 38 2 12 0 c 1
 12 31 l 1
 33 31 92 33 140 91 c 0
 187 148 187 150 234 210 c 1
 135 339 l 2
 88 399 87 400 17 400 c 1
 17 431 l 1
 44 429 91 428 112 428 c 2
 220 431 l 1x98
 220 400 l 1
 200 399 185 390 185 375 c 0
 185 369 185 367 194 357 c 1
 272 256 l 1
 334 334 l 2
 339 340 349 353 349 369 c 0x20
 349 385 341 398 320 400 c 1
 320 431 l 1
 333 430 386 428 416 428 c 0
 442 428 472 429 498 431 c 1
 498 400 l 1
 451 399 410 384 379 348 c 1
 355 322 317 273 287 235 c 1
 421 62 l 2x50
 444 33 462 31 516 31 c 1
 516 0 l 1x88
EndSplineSet
EndChar

StartChar: Y
Encoding: 89 89 117
Width: 547
Flags: HMW
HStem: 0 31<166.555 184.075> 652 31<8.14475 21.2847 8.14475 8.14475>
VStem: 241.745 62.78<78 80 80 273>
LayerCount: 2
Fore
SplineSet
538.855 652 m 1
 515.494 652 472.424 648 445.414 587 c 2
 304.525 273 l 1
 304.525 80 l 2
 304.525 41 306.715 31 362.924 31 c 2
 379.715 31 l 1
 379.715 0 l 1
 353.436 3 301.605 3 273.135 3 c 0
 244.664 3 192.834 3 166.555 0 c 1
 166.555 31 l 1
 184.074 31 l 2
 240.285 31 241.744 42 241.744 78 c 2
 241.744 273 l 1
 88.4453 615 l 2
 76.7656 641 70.9238 652 21.2852 652 c 2
 8.14453 652 l 1
 8.14453 683 l 1
 103.045 680 l 2
 131.516 680 184.805 680 211.084 683 c 1
 211.084 652 l 1
 178.234 652 159.984 648 159.984 627 c 0
 159.984 622 159.984 620 165.096 610 c 2
 297.225 315 l 1
 417.674 583 l 2
 420.596 589 424.975 602 424.975 613 c 0
 424.975 633 413.295 652 383.365 652 c 1
 383.365 683 l 1
 467.314 680 l 2
 487.025 680 516.225 681 538.855 683 c 1
 538.855 652 l 1
EndSplineSet
Position2: "'cpsp' Capital Spacing lookup 0 subtable" dx=5 dy=0 dh=10 dv=0
EndChar

StartChar: y
Encoding: 121 121 118
Width: 528
Flags: HMW
HStem: -205 22<109 143> -165 84 -81 22 400 31<19.5 43.5>
VStem: 19.5 84<-131 -110 -131 -109>
LayerCount: 2
Fore
SplineSet
508.5 400 m 1xb8
 492.5 400 441.5 399 415.5 336 c 2
 239.5 -91 l 2
 215.5 -148 174.5 -205 111.5 -205 c 0
 61.5 -205 19.5 -169 19.5 -124 c 0
 19.5 -94 41.5 -81 61.5 -81 c 0
 84.5 -81 103.5 -97 103.5 -123 c 0
 103.5 -139 95.5 -161 64.5 -165 c 1xd8
 83.5 -183 106.5 -183 111.5 -183 c 0
 175.5 -183 203.5 -114 225.5 -59 c 1
 250.5 0 l 1
 100.5 365 l 2
 86.5 400 67.5 400 19.5 400 c 1
 19.5 431 l 1
 49.5 429 89.5 428 116.5 428 c 2
 225.5 431 l 1
 225.5 400 l 1
 206.5 400 169.5 400 169.5 374 c 0
 169.5 370 171.5 366 175.5 356 c 2
 286.5 87 l 1
 387.5 333 l 2
 392.5 345 393.5 347 393.5 357 c 0
 393.5 382 377.5 399 346.5 400 c 1
 346.5 431 l 1
 433.5 428 l 2
 456.5 428 485.5 429 508.5 431 c 1
 508.5 400 l 1xb8
EndSplineSet
EndChar

StartChar: Z
Encoding: 90 90 119
Width: 446
Flags: HMW
HStem: 0 34<114.23 233.95 233.95 301.475> 652 31<153.65 213.51 213.51 328.12>
VStem: 39.0402 367.92<8.5 267>
LayerCount: 2
Fore
SplineSet
406.96 267 m 1
 394.55 0 l 1
 58.0205 0 l 2
 42.6904 0 39.04 0 39.04 17 c 0
 39.04 25 39.04 26 44.1504 37 c 2
 328.12 652 l 1
 213.51 652 l 2
 93.79 652 71.8906 571 66.7803 458 c 1
 48.5303 458 l 1
 56.5605 683 l 1
 383.601 683 l 2
 398.2 683 402.58 683 402.58 667 c 0
 402.58 660 402.58 659 397.47 648 c 2
 114.23 34 l 1
 233.95 34 l 2
 369 34 382.87 128 388.71 267 c 1
 406.96 267 l 1
EndSplineSet
Position2: "'cpsp' Capital Spacing lookup 0 subtable" dx=5 dy=0 dh=10 dv=0
EndChar

StartChar: z
Encoding: 122 122 120
Width: 444
Flags: HMW
HStem: 0 25<119.5 237.5 237.5 295.5> 409 22<154.5 209.5 209.5 323.5>
VStem: 35.5 373<7 187>
LayerCount: 2
Fore
SplineSet
408.5 187 m 1
 391.5 0 l 1
 61.5 0 l 2
 42.5 0 35.5 0 35.5 14 c 0
 35.5 19 35.5 21 44.5 32 c 2
 323.5 409 l 1
 209.5 409 l 2
 99.5 409 80.5 372 74.5 270 c 1
 49.5 270 l 1
 60.5 431 l 1
 380.5 431 l 2
 398.5 431 406.5 431 406.5 418 c 0
 406.5 414 406.5 412 397.5 401 c 2
 119.5 25 l 1
 237.5 25 l 2
 353.5 25 374.5 69 383.5 187 c 1
 408.5 187 l 1
EndSplineSet
EndChar

StartChar: zero
Encoding: 48 48 121
Width: 500
Flags: HMW
HStem: -22 22<230 272 230 276.5> 644 22<237 266>
VStem: 39.5 83<302.5 360> 377.5 83<294.5 360 280.5 363.5>
LayerCount: 2
Fore
SplineSet
460.5 320 m 0
 460.5 241 455.5 163 423.5 94 c 0
 379.5 -1 303.5 -22 249.5 -22 c 0
 200.5 -22 127.5 -2 84.5 79 c 0
 43.5 155 39.5 245 39.5 320 c 0
 39.5 400 44.5 478 76.5 547 c 1
 117.5 640 190.5 666 250.5 666 c 0
 292.5 666 374.5 650 420.5 554 c 0
 455.5 480 460.5 400 460.5 320 c 0
377.5 332 m 0
 377.5 395 377.5 471 367.5 527 c 0
 348.5 626 282.5 644 249.5 644 c 0
 224.5 644 149.5 635 130.5 516 c 0
 122.5 462 122.5 396 122.5 332 c 0
 122.5 273 122.5 181 133.5 121 c 0
 151.5 25 210.5 0 249.5 0 c 0
 294.5 0 351.5 30 366.5 125 c 0
 377.5 189 377.5 257 377.5 332 c 0
EndSplineSet
Substitution2: "'zero' Slashed Zero lookup 14 subtable" zero.slash
Substitution2: "'pnum' Proportional Numbers lookup 6 subtable" zero.prop
Substitution2: "'onum' Oldstyle Figures lookup 4 subtable" zero.oldstyle
AlternateSubs2: "'aalt' Access All Alternates lookup 1 subtable" zero.oldstyle zero.prop zero.slash
EndChar

StartChar: f_f
Encoding: 64256 64256 122
Width: 583
Flags: HMW
HStem: 0 31<-8 25.5> 400 31<-9 70 -9 70 136 346 136 136 412 527 412 412> 683 22<247.5 294.5 233.5 304.5 479.5 503.5>
VStem: 214 66 280 66 346 66<76 78 78 400>
CounterMasks: 1 1c
LayerCount: 2
Fore
SplineSet
592 635 m 0
 592 611 577 591 548 591 c 0
 521 591 505 611 505 634 c 0
 505 659 523 672 535 676 c 1
 520 683 505 683 502 683 c 0
 457 683 409 636 409 547 c 2
 409 431 l 1
 527 431 l 1
 527 400 l 1
 412 400 l 1
 412 78 l 2
 412 42 414 31 488 31 c 2
 509 31 l 1
 509 0 l 1
 469 3 422 3 382 3 c 1
 268 0 l 1
 268 31 l 1
 335 31 346 31 346 76 c 2
 346 400 l 1
 136 400 l 1
 136 76 l 2
 136 31 147 31 214 31 c 1
 214 0 l 1
 103 3 l 1
 -8 0 l 1
 -8 31 l 1
 59 31 70 31 70 76 c 2
 70 400 l 1
 -9 400 l 1
 -9 431 l 1
 70 431 l 1
 70 545 l 2
 70 653 186 705 281 705 c 0
 308 705 364 700 393 663 c 1
 398 667 442 705 501 705 c 0
 557 705 592 671 592 635 c 0
357 664 m 1
 357 664 329 683 280 683 c 0
 215 683 133 641 133 544 c 2
 133 431 l 1
 346 431 l 1
 346 546 l 2
 346 558 346 567 349 580 c 1
 322 589 321 614 321 620 c 0
 321 648 341 661 357 664 c 1
EndSplineSet
Ligature2: "'liga' Standard Ligatures lookup 8 subtable" f f
EndChar

StartChar: f_f_i
Encoding: 64259 64259 123
Width: 833
Flags: HMW
HStem: 0 31<29 62.5> 400 31<28 107 28 107 173 384 173 173 450 565 565 572 450 450> 558 92 683 22<286.5 328 564 610>
VStem: 107 66<76 400> 384 66<76 400> 661 66<76 346 346 366.5>
CounterMasks: 1 0e
LayerCount: 2
Fore
SplineSet
805 0 m 1
 694 3 l 1
 583 0 l 1
 583 31 l 1
 650 31 661 31 661 76 c 2
 661 346 l 2
 661 387 654 400 608 400 c 2
 450 400 l 1
 450 76 l 2
 450 31 461 31 528 31 c 1
 528 0 l 1
 417 3 l 1
 306 0 l 1
 306 31 l 1
 373 31 384 31 384 76 c 2
 384 400 l 1
 173 400 l 1
 173 76 l 2
 173 31 184 31 251 31 c 1
 251 0 l 1
 140 3 l 1
 29 0 l 1
 29 31 l 1
 96 31 107 31 107 76 c 2
 107 400 l 1
 28 400 l 1
 28 431 l 1
 107 431 l 1
 107 545 l 2
 107 654 224 705 318 705 c 0
 368 705 410 685 433 650 c 1
 451 665 508 705 596 705 c 0
 670 705 725 663 725 604 c 0
 725 574 702 558 679 558 c 0
 660 558 634 571 634 604 c 0
 634 620 640 648 681 650 c 1
 661 673 625 683 595 683 c 0
 533 683 447 643 447 544 c 2
 447 431 l 1
 565 431 l 2
 579 431 581 431 583 432 c 2
 688 440 l 1
 727 443 l 1
 727 76 l 2
 727 31 738 31 805 31 c 1
 805 0 l 1
402 650 m 1
 375 678 340 683 316 683 c 0
 257 683 170 644 170 544 c 2
 170 431 l 1
 384 431 l 1
 384 561 l 1
 366 566 354 582 354 604 c 0
 354 624 363 648 402 650 c 1
EndSplineSet
Ligature2: "'liga' Standard Ligatures in Latin lookup 12 subtable" f_f i
Ligature2: "'liga' Standard Ligatures in Latin lookup 11 subtable" f_f i
Ligature2: "'liga' Standard Ligatures lookup 9 subtable" f_f i
EndChar

StartChar: f_f_l
Encoding: 64260 64260 124
Width: 833
Flags: HMW
HStem: 0 31<29 62.5> 400 31<28 107 28 107 173 384 173 173 450 661 450 450> 674 31 683 22<284.5 326.5 563 601.5>
VStem: 107 66<76 400> 384 66<76 400> 661 66<76 400 400 400 431 595 595 595>
CounterMasks: 1 0e
LayerCount: 2
Fore
SplineSet
805 0 m 1xee
 694 3 l 1
 583 0 l 1
 583 31 l 1
 650 31 661 31 661 76 c 2
 661 400 l 1
 450 400 l 1
 450 76 l 2
 450 31 461 31 528 31 c 1
 528 0 l 1
 417 3 l 1
 306 0 l 1
 306 31 l 1
 373 31 384 31 384 76 c 2
 384 400 l 1
 173 400 l 1
 173 76 l 2
 173 31 184 31 251 31 c 1
 251 0 l 1
 140 3 l 1
 29 0 l 1
 29 31 l 1
 96 31 107 31 107 76 c 2
 107 400 l 1
 28 400 l 1
 28 431 l 1
 107 431 l 1
 107 545 l 2
 107 652 221 705 319 705 c 0
 360 705 416 694 437 653 c 1
 474 683 528 705 598 705 c 0
 609 705 650 705 682 691 c 0
 686 689 687 688 691 688 c 2
 727 694 l 1
 727 76 l 2
 727 31 738 31 805 31 c 1
 805 0 l 1xee
395 664 m 1
 369 680 335 683 318 683 c 0x5e
 251 683 170 641 170 544 c 2
 170 431 l 1
 384 431 l 1
 384 545 l 2
 384 556 384 569 387 580 c 1
 365 588 359 605 359 620 c 0
 359 653 385 662 395 664 c 1
661 431 m 1
 661 595 l 1
 644 601 636 616 636 634 c 0
 636 660 652 670 661 674 c 1x6e
 633 683 606 683 597 683 c 0
 523 683 447 637 447 544 c 2
 447 431 l 1
 661 431 l 1
EndSplineSet
Ligature2: "'liga' Standard Ligatures lookup 8 subtable" f f l
EndChar

StartChar: f_i
Encoding: 64257 64257 125
Width: 556
Flags: HMW
HStem: 0 31<29 62.5> 400 31<28 107 28 107 173 288 288 295 173 173> 558 89 683 22<287 333>
VStem: 107 66<76 400> 318 66 384 66<76 346 346 366.5>
LayerCount: 2
Fore
SplineSet
528 0 m 1xc2
 417 3 l 1
 306 0 l 1
 306 31 l 1
 373 31 384 31 384 76 c 2
 384 346 l 2
 384 387 377 400 331 400 c 2
 173 400 l 1
 173 76 l 2
 173 31 184 31 251 31 c 1
 251 0 l 1
 140 3 l 1
 29 0 l 1
 29 31 l 1
 96 31 107 31 107 76 c 2
 107 400 l 1
 28 400 l 1
 28 431 l 1
 107 431 l 1
 107 545 l 2
 107 654 226 705 319 705 c 0
 393 705 448 663 448 604 c 0
 448 574 425 558 402 558 c 0
 383 558 357 571 357 604 c 0
 357 620 363 648 404 650 c 1
 384 673 348 683 318 683 c 0xfc
 256 683 170 643 170 544 c 2
 170 431 l 1
 288 431 l 2
 302 431 304 431 306 432 c 2
 306 432 308 433 324 434 c 2
 450 443 l 1
 450 76 l 2
 450 31 461 31 528 31 c 1
 528 0 l 1xc2
EndSplineSet
Ligature2: "'liga' Standard Ligatures in Latin lookup 12 subtable" f i
Ligature2: "'liga' Standard Ligatures in Latin lookup 11 subtable" f i
Ligature2: "'liga' Standard Ligatures lookup 9 subtable" f i
EndChar

StartChar: f_l
Encoding: 64258 64258 126
Width: 556
Flags: HMW
HStem: 0 31<29 62.5> 400 31<28 107 28 107 173 384 173 173> 674 31 683 22<283 324.5>
VStem: 107 66<76 400> 384 66<76 400 400 400 431 595 595 595>
LayerCount: 2
Fore
SplineSet
528 0 m 1xec
 417 3 l 1
 306 0 l 1
 306 31 l 1
 373 31 384 31 384 76 c 2
 384 400 l 1
 173 400 l 1
 173 76 l 2
 173 31 184 31 251 31 c 1
 251 0 l 1
 140 3 l 1
 29 0 l 1
 29 31 l 1
 96 31 107 31 107 76 c 2
 107 400 l 1
 28 400 l 1
 28 431 l 1
 107 431 l 1
 107 545 l 2
 107 649 216 705 321 705 c 0
 332 705 373 705 405 691 c 0
 409 689 410 688 414 688 c 2
 450 694 l 1
 450 76 l 2
 450 31 461 31 528 31 c 1
 528 0 l 1xec
384 431 m 1
 384 595 l 1
 367 601 359 616 359 634 c 0
 359 660 375 670 384 674 c 1x64
 356 683 329 683 320 683 c 0x10
 246 683 170 637 170 544 c 2
 170 431 l 1
 384 431 l 1
EndSplineSet
Ligature2: "'liga' Standard Ligatures lookup 8 subtable" f l
EndChar

StartChar: Aacute
Encoding: 193 193 127
Width: 547
Flags: HMW
HStem: 0 31<23.4747 23.4747> 228 31<170.205 334.455 170.205 342.485 162.175 334.455> 696 20G<256.345 279.705 268.025 290.655> 746 21G<223.495 233.715> 889 20G<343.945 356.355>
LayerCount: 2
Fore
SplineSet
523.525 0 m 1
 427.895 3 l 2
 400.154 3 349.055 3 322.775 0 c 1
 322.775 31 l 1
 342.484 31 383.365 31 383.365 61 c 0
 383.365 65 381.904 71 381.174 75 c 2
 342.484 228 l 1
 162.174 228 l 1
 128.596 97 l 2
 127.865 95 127.135 85 127.135 82 c 0
 127.135 56 145.385 31 181.885 31 c 1
 181.885 0 l 1
 97.9355 3 l 1
 23.4746 0 l 1
 23.4746 31 l 1
 62.8945 32 92.0957 47 105.234 98 c 2
 256.346 696 l 2
 259.994 710 262.186 716 273.865 716 c 0
 285.545 716 287.004 709 290.654 696 c 2
 448.334 71 l 2
 456.365 38 466.584 31 510.385 31 c 2
 523.525 31 l 1
 523.525 0 l 1
334.455 259 m 1
 251.965 584 l 1
 170.205 259 l 1
 334.455 259 l 1
373.875 867 m 0x18
 372.414 855 365.846 845 357.814 840 c 2
 233.715 746 l 1
 223.494 767 l 1
 329.346 897 l 2
 332.266 901 339.564 909 348.324 909 c 0
 364.385 909 376.795 889 373.875 867 c 0x18
EndSplineSet
Position2: "'cpsp' Capital Spacing lookup 0 subtable" dx=5 dy=0 dh=10 dv=0
EndChar

StartChar: aacute
Encoding: 225 225 128
Width: 500
Flags: HMW
HStem: -11 22<167 214 167 217.5> -6 31<398 404> 288 90 426 22<186.5 227> 510 21G<197.5 197.5> 678 20G<323 339.5>
VStem: 24.5 77<71 117> 308.5 69<140 240 240 240 261 275> 450.5 25<89 145>
LayerCount: 2
Fore
SplineSet
475.5 89 m 2x7380
 475.5 8 414.5 -6 393.5 -6 c 0x4080
 346.5 -6 319.5 36 315.5 76 c 1
 296.5 29 250.5 -11 184.5 -11 c 0x80
 121.5 -11 24.5 14 24.5 95 c 0
 24.5 139 49.5 191 124.5 225 c 1
 187.5 255 257.5 258 308.5 261 c 1
 308.5 298 l 2
 308.5 387 251.5 426 202.5 426 c 0
 170.5 426 121.5 415 94.5 380 c 1
 140.5 379 145.5 346 145.5 334 c 0
 145.5 308 127.5 288 99.5 288 c 0
 73.5 288 53.5 305 53.5 335 c 0
 53.5 401 122.5 448 204.5 448 c 0
 252.5 448 302.5 432 341.5 393 c 0
 377.5 356 377.5 317 377.5 275 c 2
 377.5 75 l 2
 377.5 70 381.5 25 414.5 25 c 0
 425.5 25 450.5 31 450.5 89 c 2
 450.5 145 l 1
 475.5 145 l 1
 475.5 89 l 2x7380
308.5 140 m 2
 308.5 240 l 1
 143.5 234 101.5 151 101.5 96 c 0
 101.5 46 142.5 11 191.5 11 c 0x83
 236.5 11 308.5 45 308.5 140 c 2
366.5 662 m 0x0c
 366.5 650 358.5 639 349.5 632 c 2
 197.5 510 l 1
 180.5 528 l 1
 300.5 681 l 2
 304.5 687 315.5 698 330.5 698 c 0
 348.5 698 366.5 680 366.5 662 c 0x0c
EndSplineSet
EndChar

StartChar: Abreve
Encoding: 258 258 129
Width: 750
Flags: HMW
HStem: 0 31<32.5 32.5> 228 31<233.5 458.5 233.5 469.5 222.5 458.5> 696 20G<351.5 383.5 367.5 398.5> 746 38<345 406 345 414.5> 898 20G<226.5 248.5 248.5 248.5 503.5 525.5 525.5 525.5>
LayerCount: 2
Fore
SplineSet
717.5 0 m 1
 586.5 3 l 2
 548.5 3 478.5 3 442.5 0 c 1
 442.5 31 l 1
 469.5 31 525.5 31 525.5 61 c 0
 525.5 65 523.5 71 522.5 75 c 2
 469.5 228 l 1
 222.5 228 l 1
 176.5 97 l 2
 175.5 95 174.5 85 174.5 82 c 0
 174.5 56 199.5 31 249.5 31 c 1
 249.5 0 l 1
 134.5 3 l 1
 32.5 0 l 1
 32.5 31 l 1
 86.5 32 126.5 47 144.5 98 c 2
 351.5 696 l 2
 356.5 710 359.5 716 375.5 716 c 0
 391.5 716 393.5 709 398.5 696 c 2
 614.5 71 l 2
 625.5 38 639.5 31 699.5 31 c 2
 717.5 31 l 1
 717.5 0 l 1
458.5 259 m 1
 345.5 584 l 1
 233.5 259 l 1
 458.5 259 l 1
525.5 918 m 1x18
 523.5 813 453.5 746 375.5 746 c 0
 301.5 746 228.5 810 226.5 918 c 1
 248.5 918 l 1
 250.5 833 313.5 784 376.5 784 c 0
 435.5 784 501.5 831 503.5 918 c 1
 525.5 918 l 1x18
EndSplineSet
Position2: "'cpsp' Capital Spacing lookup 0 subtable" dx=5 dy=0 dh=10 dv=0
EndChar

StartChar: abreve
Encoding: 259 259 130
Width: 500
Flags: HMW
HStem: -11 22<167 214 167 217.5> -6 31<398 404> 288 90 426 22<186.5 227> 518 38<212 273 212 281.5> 670 20G<93.5 115.5 115.5 115.5 370.5 392.5 392.5 392.5>
VStem: 24.5 77<71 117> 308.5 69<140 240 240 240 261 275> 450.5 25<89 145>
LayerCount: 2
Fore
SplineSet
475.5 89 m 2x7380
 475.5 8 414.5 -6 393.5 -6 c 0x4080
 346.5 -6 319.5 36 315.5 76 c 1
 296.5 29 250.5 -11 184.5 -11 c 0x80
 121.5 -11 24.5 14 24.5 95 c 0
 24.5 139 49.5 191 124.5 225 c 1
 187.5 255 257.5 258 308.5 261 c 1
 308.5 298 l 2
 308.5 387 251.5 426 202.5 426 c 0
 170.5 426 121.5 415 94.5 380 c 1
 140.5 379 145.5 346 145.5 334 c 0
 145.5 308 127.5 288 99.5 288 c 0
 73.5 288 53.5 305 53.5 335 c 0
 53.5 401 122.5 448 204.5 448 c 0
 252.5 448 302.5 432 341.5 393 c 0
 377.5 356 377.5 317 377.5 275 c 2
 377.5 75 l 2
 377.5 70 381.5 25 414.5 25 c 0
 425.5 25 450.5 31 450.5 89 c 2
 450.5 145 l 1
 475.5 145 l 1
 475.5 89 l 2x7380
308.5 140 m 2
 308.5 240 l 1
 143.5 234 101.5 151 101.5 96 c 0
 101.5 46 142.5 11 191.5 11 c 0x83
 236.5 11 308.5 45 308.5 140 c 2
392.5 690 m 1x0c
 390.5 585 320.5 518 242.5 518 c 0
 168.5 518 95.5 582 93.5 690 c 1
 115.5 690 l 1
 117.5 605 180.5 556 243.5 556 c 0
 302.5 556 368.5 603 370.5 690 c 1
 392.5 690 l 1x0c
EndSplineSet
EndChar

StartChar: Abreveacute
Encoding: 7854 7854 131
Width: 750
Flags: HMW
HStem: 0 31<32.5 32.5> 228 31<233.5 458.5 233.5 469.5 222.5 458.5> 696 20G<351.5 383.5 367.5 398.5> 746 38<345 406 345 414.5> 1081 20G<437.5 454.5>
LayerCount: 2
Fore
SplineSet
717.5 0 m 1
 586.5 3 l 2
 548.5 3 478.5 3 442.5 0 c 1
 442.5 31 l 1
 469.5 31 525.5 31 525.5 61 c 0
 525.5 65 523.5 71 522.5 75 c 2
 469.5 228 l 1
 222.5 228 l 1
 176.5 97 l 2
 175.5 95 174.5 85 174.5 82 c 0
 174.5 56 199.5 31 249.5 31 c 1
 249.5 0 l 1
 134.5 3 l 1
 32.5 0 l 1
 32.5 31 l 1
 86.5 32 126.5 47 144.5 98 c 2
 351.5 696 l 2
 356.5 710 359.5 716 375.5 716 c 0
 391.5 716 393.5 709 398.5 696 c 2
 614.5 71 l 2
 625.5 38 639.5 31 699.5 31 c 2
 717.5 31 l 1
 717.5 0 l 1
458.5 259 m 1
 345.5 584 l 1
 233.5 259 l 1
 458.5 259 l 1
525.5 918 m 1x18
 523.5 813 453.5 746 375.5 746 c 0
 301.5 746 228.5 810 226.5 918 c 1
 248.5 918 l 1
 250.5 833 313.5 784 376.5 784 c 0
 435.5 784 501.5 831 503.5 918 c 1
 525.5 918 l 1x18
478.5 1059 m 0
 476.5 1047 467.5 1037 456.5 1032 c 2
 286.5 938 l 1
 272.5 959 l 1
 417.5 1089 l 2
 421.5 1093 431.5 1101 443.5 1101 c 0
 465.5 1101 482.5 1081 478.5 1059 c 0
EndSplineSet
Position2: "'cpsp' Capital Spacing lookup 0 subtable" dx=7 dy=0 dh=14 dv=0
EndChar

StartChar: abreveacute
Encoding: 7855 7855 132
Width: 500
Flags: HMW
HStem: -11 22<167 214 167 217.5> -6 31<398 404> 288 90 426 22<186.5 227> 518 38<212 273 212 281.5> 853 20G<304.5 321.5>
VStem: 24.5 77<71 117> 308.5 69<140 240 240 240 261 275> 450.5 25<89 145>
LayerCount: 2
Fore
SplineSet
475.5 89 m 2x7380
 475.5 8 414.5 -6 393.5 -6 c 0x4080
 346.5 -6 319.5 36 315.5 76 c 1
 296.5 29 250.5 -11 184.5 -11 c 0x80
 121.5 -11 24.5 14 24.5 95 c 0
 24.5 139 49.5 191 124.5 225 c 1
 187.5 255 257.5 258 308.5 261 c 1
 308.5 298 l 2
 308.5 387 251.5 426 202.5 426 c 0
 170.5 426 121.5 415 94.5 380 c 1
 140.5 379 145.5 346 145.5 334 c 0
 145.5 308 127.5 288 99.5 288 c 0
 73.5 288 53.5 305 53.5 335 c 0
 53.5 401 122.5 448 204.5 448 c 0
 252.5 448 302.5 432 341.5 393 c 0
 377.5 356 377.5 317 377.5 275 c 2
 377.5 75 l 2
 377.5 70 381.5 25 414.5 25 c 0
 425.5 25 450.5 31 450.5 89 c 2
 450.5 145 l 1
 475.5 145 l 1
 475.5 89 l 2x7380
308.5 140 m 2
 308.5 240 l 1
 143.5 234 101.5 151 101.5 96 c 0
 101.5 46 142.5 11 191.5 11 c 0x83
 236.5 11 308.5 45 308.5 140 c 2
392.5 690 m 1x0c
 390.5 585 320.5 518 242.5 518 c 0
 168.5 518 95.5 582 93.5 690 c 1
 115.5 690 l 1
 117.5 605 180.5 556 243.5 556 c 0
 302.5 556 368.5 603 370.5 690 c 1
 392.5 690 l 1x0c
345.5 831 m 0
 343.5 819 334.5 809 323.5 804 c 2
 153.5 710 l 1
 139.5 731 l 1
 284.5 861 l 2
 288.5 865 298.5 873 310.5 873 c 0
 332.5 873 349.5 853 345.5 831 c 0
EndSplineSet
EndChar

StartChar: Abrevedotbelow
Encoding: 7862 7862 133
Width: 750
Flags: HMW
HStem: -200 106<359.5 390.5 358.5 391.5> 0 31<32.5 32.5> 228 31<233.5 458.5 233.5 469.5 222.5 458.5> 696 20G<351.5 383.5 367.5 398.5> 746 38<345 406 345 414.5> 898 20G<226.5 248.5 248.5 248.5 503.5 525.5 525.5 525.5>
VStem: 321.5 107<-159.5 -134.5>
LayerCount: 2
Fore
SplineSet
717.5 0 m 1
 586.5 3 l 2
 548.5 3 478.5 3 442.5 0 c 1
 442.5 31 l 1
 469.5 31 525.5 31 525.5 61 c 0
 525.5 65 523.5 71 522.5 75 c 2
 469.5 228 l 1
 222.5 228 l 1
 176.5 97 l 2
 175.5 95 174.5 85 174.5 82 c 0
 174.5 56 199.5 31 249.5 31 c 1
 249.5 0 l 1
 134.5 3 l 1
 32.5 0 l 1
 32.5 31 l 1
 86.5 32 126.5 47 144.5 98 c 2
 351.5 696 l 2
 356.5 710 359.5 716 375.5 716 c 0
 391.5 716 393.5 709 398.5 696 c 2
 614.5 71 l 2
 625.5 38 639.5 31 699.5 31 c 2
 717.5 31 l 1
 717.5 0 l 1
458.5 259 m 1
 345.5 584 l 1
 233.5 259 l 1
 458.5 259 l 1
525.5 918 m 1
 523.5 813 453.5 746 375.5 746 c 0
 301.5 746 228.5 810 226.5 918 c 1
 248.5 918 l 1
 250.5 833 313.5 784 376.5 784 c 0
 435.5 784 501.5 831 503.5 918 c 1
 525.5 918 l 1
428.5 -147 m 0x82
 428.5 -172 408.5 -200 374.5 -200 c 0
 344.5 -200 321.5 -174 321.5 -147 c 0
 321.5 -122 341.5 -94 375.5 -94 c 0
 405.5 -94 428.5 -120 428.5 -147 c 0x82
EndSplineSet
Position2: "'cpsp' Capital Spacing lookup 0 subtable" dx=7 dy=0 dh=14 dv=0
EndChar

StartChar: abrevedotbelow
Encoding: 7863 7863 134
Width: 500
Flags: HMW
HStem: -200 106<226.5 257.5 225.5 258.5> -11 22<167 214 167 217.5> -6 31<398 404> 288 90 426 22<186.5 227> 518 38<212 273 212 281.5> 670 20G<93.5 115.5 115.5 115.5 370.5 392.5 392.5 392.5>
VStem: 24.5 77<71 117> 188.5 107<-159.5 -134.5> 308.5 69<140 240 240 240 261 275> 450.5 25<89 145>
LayerCount: 2
Fore
SplineSet
475.5 89 m 2x3960
 475.5 8 414.5 -6 393.5 -6 c 0x2020
 346.5 -6 319.5 36 315.5 76 c 1
 296.5 29 250.5 -11 184.5 -11 c 0x40
 121.5 -11 24.5 14 24.5 95 c 0
 24.5 139 49.5 191 124.5 225 c 1
 187.5 255 257.5 258 308.5 261 c 1
 308.5 298 l 2
 308.5 387 251.5 426 202.5 426 c 0
 170.5 426 121.5 415 94.5 380 c 1
 140.5 379 145.5 346 145.5 334 c 0
 145.5 308 127.5 288 99.5 288 c 0
 73.5 288 53.5 305 53.5 335 c 0
 53.5 401 122.5 448 204.5 448 c 0
 252.5 448 302.5 432 341.5 393 c 0
 377.5 356 377.5 317 377.5 275 c 2
 377.5 75 l 2
 377.5 70 381.5 25 414.5 25 c 0
 425.5 25 450.5 31 450.5 89 c 2
 450.5 145 l 1
 475.5 145 l 1
 475.5 89 l 2x3960
308.5 140 m 2
 308.5 240 l 1
 143.5 234 101.5 151 101.5 96 c 0
 101.5 46 142.5 11 191.5 11 c 0x4740
 236.5 11 308.5 45 308.5 140 c 2
392.5 690 m 1
 390.5 585 320.5 518 242.5 518 c 0
 168.5 518 95.5 582 93.5 690 c 1
 115.5 690 l 1
 117.5 605 180.5 556 243.5 556 c 0
 302.5 556 368.5 603 370.5 690 c 1
 392.5 690 l 1
295.5 -147 m 0x8080
 295.5 -172 275.5 -200 241.5 -200 c 0
 211.5 -200 188.5 -174 188.5 -147 c 0
 188.5 -122 208.5 -94 242.5 -94 c 0
 272.5 -94 295.5 -120 295.5 -147 c 0x8080
EndSplineSet
EndChar

StartChar: Abrevegrave
Encoding: 7856 7856 135
Width: 750
Flags: HMW
HStem: 0 31<32.5 32.5> 228 31<233.5 458.5 233.5 469.5 222.5 458.5> 696 20G<351.5 383.5 367.5 398.5> 746 38<345 406 345 414.5> 898 20G<226.5 248.5 248.5 248.5 503.5 525.5 525.5 525.5>
LayerCount: 2
Fore
SplineSet
717.5 0 m 1
 586.5 3 l 2
 548.5 3 478.5 3 442.5 0 c 1
 442.5 31 l 1
 469.5 31 525.5 31 525.5 61 c 0
 525.5 65 523.5 71 522.5 75 c 2
 469.5 228 l 1
 222.5 228 l 1
 176.5 97 l 2
 175.5 95 174.5 85 174.5 82 c 0
 174.5 56 199.5 31 249.5 31 c 1
 249.5 0 l 1
 134.5 3 l 1
 32.5 0 l 1
 32.5 31 l 1
 86.5 32 126.5 47 144.5 98 c 2
 351.5 696 l 2
 356.5 710 359.5 716 375.5 716 c 0
 391.5 716 393.5 709 398.5 696 c 2
 614.5 71 l 2
 625.5 38 639.5 31 699.5 31 c 2
 717.5 31 l 1
 717.5 0 l 1
458.5 259 m 1
 345.5 584 l 1
 233.5 259 l 1
 458.5 259 l 1
525.5 918 m 1x18
 523.5 813 453.5 746 375.5 746 c 0
 301.5 746 228.5 810 226.5 918 c 1
 248.5 918 l 1
 250.5 833 313.5 784 376.5 784 c 0
 435.5 784 501.5 831 503.5 918 c 1
 525.5 918 l 1x18
479.5 959 m 1
 334.5 1089 l 2
 330.5 1093 320.5 1101 308.5 1101 c 0
 286.5 1101 269.5 1081 273.5 1059 c 0
 275.5 1047 284.5 1037 295.5 1032 c 2
 465.5 938 l 1
 479.5 959 l 1
EndSplineSet
Position2: "'cpsp' Capital Spacing lookup 0 subtable" dx=7 dy=0 dh=14 dv=0
EndChar

StartChar: abrevegrave
Encoding: 7857 7857 136
Width: 500
Flags: HMW
HStem: -11 22<167 214 167 217.5> -6 31<398 404> 288 90 426 22<186.5 227> 518 38<212 273 212 281.5> 670 20G<93.5 115.5 115.5 115.5 370.5 392.5 392.5 392.5>
VStem: 24.5 77<71 117> 308.5 69<140 240 240 240 261 275> 450.5 25<89 145>
LayerCount: 2
Fore
SplineSet
475.5 89 m 2x7380
 475.5 8 414.5 -6 393.5 -6 c 0x4080
 346.5 -6 319.5 36 315.5 76 c 1
 296.5 29 250.5 -11 184.5 -11 c 0x80
 121.5 -11 24.5 14 24.5 95 c 0
 24.5 139 49.5 191 124.5 225 c 1
 187.5 255 257.5 258 308.5 261 c 1
 308.5 298 l 2
 308.5 387 251.5 426 202.5 426 c 0
 170.5 426 121.5 415 94.5 380 c 1
 140.5 379 145.5 346 145.5 334 c 0
 145.5 308 127.5 288 99.5 288 c 0
 73.5 288 53.5 305 53.5 335 c 0
 53.5 401 122.5 448 204.5 448 c 0
 252.5 448 302.5 432 341.5 393 c 0
 377.5 356 377.5 317 377.5 275 c 2
 377.5 75 l 2
 377.5 70 381.5 25 414.5 25 c 0
 425.5 25 450.5 31 450.5 89 c 2
 450.5 145 l 1
 475.5 145 l 1
 475.5 89 l 2x7380
308.5 140 m 2
 308.5 240 l 1
 143.5 234 101.5 151 101.5 96 c 0
 101.5 46 142.5 11 191.5 11 c 0x83
 236.5 11 308.5 45 308.5 140 c 2
392.5 690 m 1x0c
 390.5 585 320.5 518 242.5 518 c 0
 168.5 518 95.5 582 93.5 690 c 1
 115.5 690 l 1
 117.5 605 180.5 556 243.5 556 c 0
 302.5 556 368.5 603 370.5 690 c 1
 392.5 690 l 1x0c
346.5 731 m 1
 201.5 861 l 2
 197.5 865 187.5 873 175.5 873 c 0
 153.5 873 136.5 853 140.5 831 c 0
 142.5 819 151.5 809 162.5 804 c 2
 332.5 710 l 1
 346.5 731 l 1
EndSplineSet
EndChar

StartChar: Abrevehookabove
Encoding: 7858 7858 137
Width: 750
Flags: HMW
HStem: 0 31<32.5 32.5> 228 31<233.5 458.5 233.5 469.5 222.5 458.5> 696 20G<351.5 383.5 367.5 398.5> 746 38<345 406 345 414.5> 1107 20G<346 384>
LayerCount: 2
Fore
SplineSet
717.5 0 m 1
 586.5 3 l 2
 548.5 3 478.5 3 442.5 0 c 1
 442.5 31 l 1
 469.5 31 525.5 31 525.5 61 c 0
 525.5 65 523.5 71 522.5 75 c 2
 469.5 228 l 1
 222.5 228 l 1
 176.5 97 l 2
 175.5 95 174.5 85 174.5 82 c 0
 174.5 56 199.5 31 249.5 31 c 1
 249.5 0 l 1
 134.5 3 l 1
 32.5 0 l 1
 32.5 31 l 1
 86.5 32 126.5 47 144.5 98 c 2
 351.5 696 l 2
 356.5 710 359.5 716 375.5 716 c 0
 391.5 716 393.5 709 398.5 696 c 2
 614.5 71 l 2
 625.5 38 639.5 31 699.5 31 c 2
 717.5 31 l 1
 717.5 0 l 1
458.5 259 m 1
 345.5 584 l 1
 233.5 259 l 1
 458.5 259 l 1
525.5 918 m 1x18
 523.5 813 453.5 746 375.5 746 c 0
 301.5 746 228.5 810 226.5 918 c 1
 248.5 918 l 1
 250.5 833 313.5 784 376.5 784 c 0
 435.5 784 501.5 831 503.5 918 c 1
 525.5 918 l 1x18
473.5 1060 m 0
 473.5 1041 461.5 1025 443.5 1017 c 0
 403.5 997 379.5 975 379.5 947 c 2
 379.5 928 l 2
 379.5 922 375.5 918 369.5 918 c 0
 364.5 918 359.5 922 359.5 928 c 2
 359.5 947 l 2
 359.5 980 379.5 1010 407.5 1033 c 0
 415.5 1039 419.5 1049 419.5 1060 c 0
 419.5 1079 418.5 1089 411.5 1095 c 0
 400.5 1105 384.5 1108 369.5 1108 c 0
 346.5 1108 326.5 1101 313.5 1090 c 1
 327.5 1088 338.5 1077 338.5 1060 c 0
 338.5 1042 324.5 1031 309.5 1031 c 0
 293.5 1031 279.5 1042 279.5 1061 c 0
 279.5 1102 322.5 1127 369.5 1127 c 0
 398.5 1127 423.5 1123 444.5 1111 c 0
 462.5 1100 473.5 1081 473.5 1060 c 0
EndSplineSet
Position2: "'cpsp' Capital Spacing lookup 0 subtable" dx=7 dy=0 dh=14 dv=0
EndChar

StartChar: abrevehookabove
Encoding: 7859 7859 138
Width: 500
Flags: HMW
HStem: -11 22<167 214 167 217.5> -6 31<398 404> 288 90 426 22<186.5 227> 518 38<212 273 212 281.5> 879 20G<213 251>
VStem: 24.5 77<71 117> 308.5 69<140 240 240 240 261 275> 450.5 25<89 145>
LayerCount: 2
Fore
SplineSet
475.5 89 m 2x7380
 475.5 8 414.5 -6 393.5 -6 c 0x4080
 346.5 -6 319.5 36 315.5 76 c 1
 296.5 29 250.5 -11 184.5 -11 c 0x80
 121.5 -11 24.5 14 24.5 95 c 0
 24.5 139 49.5 191 124.5 225 c 1
 187.5 255 257.5 258 308.5 261 c 1
 308.5 298 l 2
 308.5 387 251.5 426 202.5 426 c 0
 170.5 426 121.5 415 94.5 380 c 1
 140.5 379 145.5 346 145.5 334 c 0
 145.5 308 127.5 288 99.5 288 c 0
 73.5 288 53.5 305 53.5 335 c 0
 53.5 401 122.5 448 204.5 448 c 0
 252.5 448 302.5 432 341.5 393 c 0
 377.5 356 377.5 317 377.5 275 c 2
 377.5 75 l 2
 377.5 70 381.5 25 414.5 25 c 0
 425.5 25 450.5 31 450.5 89 c 2
 450.5 145 l 1
 475.5 145 l 1
 475.5 89 l 2x7380
308.5 140 m 2
 308.5 240 l 1
 143.5 234 101.5 151 101.5 96 c 0
 101.5 46 142.5 11 191.5 11 c 0x83
 236.5 11 308.5 45 308.5 140 c 2
392.5 690 m 1x0c
 390.5 585 320.5 518 242.5 518 c 0
 168.5 518 95.5 582 93.5 690 c 1
 115.5 690 l 1
 117.5 605 180.5 556 243.5 556 c 0
 302.5 556 368.5 603 370.5 690 c 1
 392.5 690 l 1x0c
340.5 832 m 0
 340.5 813 328.5 797 310.5 789 c 0
 270.5 769 246.5 747 246.5 719 c 2
 246.5 700 l 2
 246.5 694 242.5 690 236.5 690 c 0
 231.5 690 226.5 694 226.5 700 c 2
 226.5 719 l 2
 226.5 752 246.5 782 274.5 805 c 0
 282.5 811 286.5 821 286.5 832 c 0
 286.5 851 285.5 861 278.5 867 c 0
 267.5 877 251.5 880 236.5 880 c 0
 213.5 880 193.5 873 180.5 862 c 1
 194.5 860 205.5 849 205.5 832 c 0
 205.5 814 191.5 803 176.5 803 c 0
 160.5 803 146.5 814 146.5 833 c 0
 146.5 874 189.5 899 236.5 899 c 0
 265.5 899 290.5 895 311.5 883 c 0
 329.5 872 340.5 853 340.5 832 c 0
EndSplineSet
EndChar

StartChar: Abrevetilde
Encoding: 7860 7860 139
Width: 750
Flags: HMW
HStem: 0 31<32.5 32.5> 228 31<233.5 458.5 233.5 469.5 222.5 458.5> 696 20G<351.5 383.5 367.5 398.5> 746 38<345 406 345 414.5> 958 45<433 453.5> 1006 45<298.5 319>
LayerCount: 2
Fore
SplineSet
717.5 0 m 1
 586.5 3 l 2
 548.5 3 478.5 3 442.5 0 c 1
 442.5 31 l 1
 469.5 31 525.5 31 525.5 61 c 0
 525.5 65 523.5 71 522.5 75 c 2
 469.5 228 l 1
 222.5 228 l 1
 176.5 97 l 2
 175.5 95 174.5 85 174.5 82 c 0
 174.5 56 199.5 31 249.5 31 c 1
 249.5 0 l 1
 134.5 3 l 1
 32.5 0 l 1
 32.5 31 l 1
 86.5 32 126.5 47 144.5 98 c 2
 351.5 696 l 2
 356.5 710 359.5 716 375.5 716 c 0
 391.5 716 393.5 709 398.5 696 c 2
 614.5 71 l 2
 625.5 38 639.5 31 699.5 31 c 2
 717.5 31 l 1
 717.5 0 l 1
458.5 259 m 1
 345.5 584 l 1
 233.5 259 l 1
 458.5 259 l 1
525.5 918 m 1x1c
 523.5 813 453.5 746 375.5 746 c 0
 301.5 746 228.5 810 226.5 918 c 1
 248.5 918 l 1
 250.5 833 313.5 784 376.5 784 c 0
 435.5 784 501.5 831 503.5 918 c 1
 525.5 918 l 1x1c
542.5 1036 m 1
 491.5 980 472.5 958 434.5 958 c 0
 417.5 958 399.5 965 372.5 981 c 0
 355.5 991 330.5 1006 307.5 1006 c 0
 263.5 1006 225.5 958 225.5 958 c 1
 209.5 973 l 1
 260.5 1029 279.5 1051 317.5 1051 c 0
 334.5 1051 352.5 1044 379.5 1028 c 0
 396.5 1018 421.5 1003 444.5 1003 c 0
 488.5 1003 526.5 1051 526.5 1051 c 1
 542.5 1036 l 1
EndSplineSet
Position2: "'cpsp' Capital Spacing lookup 0 subtable" dx=7 dy=0 dh=14 dv=0
EndChar

StartChar: abrevetilde
Encoding: 7861 7861 140
Width: 500
Flags: HMW
HStem: -11 22<167 214 167 217.5> -6 31<398 404> 288 90 426 22<186.5 227> 518 38<212 273 212 281.5> 730 45<300 320.5> 778 45<165.5 186>
VStem: 24.5 77<71 117> 308.5 69<140 240 240 240 261 275> 450.5 25<89 145>
LayerCount: 2
Fore
SplineSet
475.5 89 m 2x71c0
 475.5 8 414.5 -6 393.5 -6 c 0x4040
 346.5 -6 319.5 36 315.5 76 c 1
 296.5 29 250.5 -11 184.5 -11 c 0x80
 121.5 -11 24.5 14 24.5 95 c 0
 24.5 139 49.5 191 124.5 225 c 1
 187.5 255 257.5 258 308.5 261 c 1
 308.5 298 l 2
 308.5 387 251.5 426 202.5 426 c 0
 170.5 426 121.5 415 94.5 380 c 1
 140.5 379 145.5 346 145.5 334 c 0
 145.5 308 127.5 288 99.5 288 c 0
 73.5 288 53.5 305 53.5 335 c 0
 53.5 401 122.5 448 204.5 448 c 0
 252.5 448 302.5 432 341.5 393 c 0
 377.5 356 377.5 317 377.5 275 c 2
 377.5 75 l 2
 377.5 70 381.5 25 414.5 25 c 0
 425.5 25 450.5 31 450.5 89 c 2
 450.5 145 l 1
 475.5 145 l 1
 475.5 89 l 2x71c0
308.5 140 m 2
 308.5 240 l 1
 143.5 234 101.5 151 101.5 96 c 0
 101.5 46 142.5 11 191.5 11 c 0x8180
 236.5 11 308.5 45 308.5 140 c 2
392.5 690 m 1x0e
 390.5 585 320.5 518 242.5 518 c 0
 168.5 518 95.5 582 93.5 690 c 1
 115.5 690 l 1
 117.5 605 180.5 556 243.5 556 c 0
 302.5 556 368.5 603 370.5 690 c 1
 392.5 690 l 1x0e
409.5 808 m 1
 358.5 752 339.5 730 301.5 730 c 0
 284.5 730 266.5 737 239.5 753 c 0
 222.5 763 197.5 778 174.5 778 c 0
 130.5 778 92.5 730 92.5 730 c 1
 76.5 745 l 1
 127.5 801 146.5 823 184.5 823 c 0
 201.5 823 219.5 816 246.5 800 c 0
 263.5 790 288.5 775 311.5 775 c 0
 355.5 775 393.5 823 393.5 823 c 1
 409.5 808 l 1
EndSplineSet
EndChar

StartChar: Acaron
Encoding: 461 461 141
Width: 750
Flags: HMW
HStem: 0 31<32.5 32.5> 228 31<233.5 458.5 233.5 469.5 222.5 458.5> 696 20G<351.5 383.5 367.5 398.5> 736 21G<375.5 375.5> 849 20G<236.5 236.5 516.5 516.5>
LayerCount: 2
Fore
SplineSet
717.5 0 m 1
 586.5 3 l 2
 548.5 3 478.5 3 442.5 0 c 1
 442.5 31 l 1
 469.5 31 525.5 31 525.5 61 c 0
 525.5 65 523.5 71 522.5 75 c 2
 469.5 228 l 1
 222.5 228 l 1
 176.5 97 l 2
 175.5 95 174.5 85 174.5 82 c 0
 174.5 56 199.5 31 249.5 31 c 1
 249.5 0 l 1
 134.5 3 l 1
 32.5 0 l 1
 32.5 31 l 1
 86.5 32 126.5 47 144.5 98 c 2
 351.5 696 l 2
 356.5 710 359.5 716 375.5 716 c 0
 391.5 716 393.5 709 398.5 696 c 2
 614.5 71 l 2
 625.5 38 639.5 31 699.5 31 c 2
 717.5 31 l 1
 717.5 0 l 1
458.5 259 m 1
 345.5 584 l 1
 233.5 259 l 1
 458.5 259 l 1
526.5 853 m 1x18
 375.5 736 l 1
 224.5 853 l 1
 236.5 869 l 1
 376.5 803 l 1
 516.5 869 l 1
 526.5 853 l 1x18
EndSplineSet
EndChar

StartChar: acaron
Encoding: 462 462 142
Width: 500
Flags: HMW
HStem: -11 22<167 214 167 217.5> -6 31<398 404> 288 90 426 22<186.5 227> 516 21G<242.5 242.5> 672 20G<103.5 103.5 381.5 381.5>
VStem: 24.5 77<71 117> 308.5 69<140 240 240 240 261 275> 450.5 25<89 145>
LayerCount: 2
Fore
SplineSet
475.5 89 m 2x7380
 475.5 8 414.5 -6 393.5 -6 c 0x4080
 346.5 -6 319.5 36 315.5 76 c 1
 296.5 29 250.5 -11 184.5 -11 c 0x80
 121.5 -11 24.5 14 24.5 95 c 0
 24.5 139 49.5 191 124.5 225 c 1
 187.5 255 257.5 258 308.5 261 c 1
 308.5 298 l 2
 308.5 387 251.5 426 202.5 426 c 0
 170.5 426 121.5 415 94.5 380 c 1
 140.5 379 145.5 346 145.5 334 c 0
 145.5 308 127.5 288 99.5 288 c 0
 73.5 288 53.5 305 53.5 335 c 0
 53.5 401 122.5 448 204.5 448 c 0
 252.5 448 302.5 432 341.5 393 c 0
 377.5 356 377.5 317 377.5 275 c 2
 377.5 75 l 2
 377.5 70 381.5 25 414.5 25 c 0
 425.5 25 450.5 31 450.5 89 c 2
 450.5 145 l 1
 475.5 145 l 1
 475.5 89 l 2x7380
308.5 140 m 2
 308.5 240 l 1
 143.5 234 101.5 151 101.5 96 c 0
 101.5 46 142.5 11 191.5 11 c 0x83
 236.5 11 308.5 45 308.5 140 c 2
394.5 678 m 1x0c
 242.5 516 l 1
 90.5 678 l 1
 103.5 692 l 1
 242.5 584 l 1
 381.5 692 l 1
 394.5 678 l 1x0c
EndSplineSet
EndChar

StartChar: Acircumflex
Encoding: 194 194 143
Width: 547
Flags: HMW
HStem: 0 31<23.4747 23.4747> 228 31<170.205 334.455 170.205 342.485 162.175 334.455> 696 20G<256.345 279.705 268.025 290.655> 736 21G<170.935 170.935 375.335 375.335> 849 20G<273.865 273.865>
LayerCount: 2
Fore
SplineSet
523.525 0 m 1
 427.895 3 l 2
 400.154 3 349.055 3 322.775 0 c 1
 322.775 31 l 1
 342.484 31 383.365 31 383.365 61 c 0
 383.365 65 381.904 71 381.174 75 c 2
 342.484 228 l 1
 162.174 228 l 1
 128.596 97 l 2
 127.865 95 127.135 85 127.135 82 c 0
 127.135 56 145.385 31 181.885 31 c 1
 181.885 0 l 1
 97.9355 3 l 1
 23.4746 0 l 1
 23.4746 31 l 1
 62.8945 32 92.0957 47 105.234 98 c 2
 256.346 696 l 2
 259.994 710 262.186 716 273.865 716 c 0
 285.545 716 287.004 709 290.654 696 c 2
 448.334 71 l 2
 456.365 38 466.584 31 510.385 31 c 2
 523.525 31 l 1
 523.525 0 l 1
334.455 259 m 1
 251.965 584 l 1
 170.205 259 l 1
 334.455 259 l 1
384.096 752 m 1x18
 375.334 736 l 1
 273.135 802 l 1
 170.936 736 l 1
 163.635 752 l 1
 273.865 869 l 1
 384.096 752 l 1x18
EndSplineSet
Position2: "'cpsp' Capital Spacing lookup 0 subtable" dx=5 dy=0 dh=10 dv=0
EndChar

StartChar: acircumflex
Encoding: 226 226 144
Width: 500
Flags: HMW
HStem: -11 22<167 214 167 217.5> -6 31<398 404> 288 90 426 22<186.5 227> 516 21G<103.5 103.5 381.5 381.5> 672 20G<242.5 242.5>
VStem: 24.5 77<71 117> 308.5 69<140 240 240 240 261 275> 450.5 25<89 145>
LayerCount: 2
Fore
SplineSet
475.5 89 m 2x7380
 475.5 8 414.5 -6 393.5 -6 c 0x4080
 346.5 -6 319.5 36 315.5 76 c 1
 296.5 29 250.5 -11 184.5 -11 c 0x80
 121.5 -11 24.5 14 24.5 95 c 0
 24.5 139 49.5 191 124.5 225 c 1
 187.5 255 257.5 258 308.5 261 c 1
 308.5 298 l 2
 308.5 387 251.5 426 202.5 426 c 0
 170.5 426 121.5 415 94.5 380 c 1
 140.5 379 145.5 346 145.5 334 c 0
 145.5 308 127.5 288 99.5 288 c 0
 73.5 288 53.5 305 53.5 335 c 0
 53.5 401 122.5 448 204.5 448 c 0
 252.5 448 302.5 432 341.5 393 c 0
 377.5 356 377.5 317 377.5 275 c 2
 377.5 75 l 2
 377.5 70 381.5 25 414.5 25 c 0
 425.5 25 450.5 31 450.5 89 c 2
 450.5 145 l 1
 475.5 145 l 1
 475.5 89 l 2x7380
308.5 140 m 2
 308.5 240 l 1
 143.5 234 101.5 151 101.5 96 c 0
 101.5 46 142.5 11 191.5 11 c 0x83
 236.5 11 308.5 45 308.5 140 c 2
394.5 530 m 1x0c
 381.5 516 l 1
 242.5 624 l 1
 103.5 516 l 1
 90.5 530 l 1
 242.5 692 l 1
 394.5 530 l 1x0c
EndSplineSet
EndChar

StartChar: Acircumflexacute
Encoding: 7844 7844 145
Width: 750
Flags: HMW
HStem: 0 31<32.5 32.5> 228 31<233.5 458.5 233.5 469.5 222.5 458.5> 696 20G<351.5 383.5 367.5 398.5> 736 21G<234.5 234.5 514.5 514.5> 1032 20G<437.5 454.5>
LayerCount: 2
Fore
SplineSet
717.5 0 m 1
 586.5 3 l 2
 548.5 3 478.5 3 442.5 0 c 1
 442.5 31 l 1
 469.5 31 525.5 31 525.5 61 c 0
 525.5 65 523.5 71 522.5 75 c 2
 469.5 228 l 1
 222.5 228 l 1
 176.5 97 l 2
 175.5 95 174.5 85 174.5 82 c 0
 174.5 56 199.5 31 249.5 31 c 1
 249.5 0 l 1
 134.5 3 l 1
 32.5 0 l 1
 32.5 31 l 1
 86.5 32 126.5 47 144.5 98 c 2
 351.5 696 l 2
 356.5 710 359.5 716 375.5 716 c 0
 391.5 716 393.5 709 398.5 696 c 2
 614.5 71 l 2
 625.5 38 639.5 31 699.5 31 c 2
 717.5 31 l 1
 717.5 0 l 1
458.5 259 m 1
 345.5 584 l 1
 233.5 259 l 1
 458.5 259 l 1
526.5 752 m 1x18
 514.5 736 l 1
 374.5 802 l 1
 234.5 736 l 1
 224.5 752 l 1
 375.5 869 l 1
 526.5 752 l 1x18
478.5 1010 m 0
 476.5 998 467.5 988 456.5 983 c 2
 286.5 889 l 1
 272.5 910 l 1
 417.5 1040 l 2
 421.5 1044 431.5 1052 443.5 1052 c 0
 465.5 1052 482.5 1032 478.5 1010 c 0
EndSplineSet
Position2: "'cpsp' Capital Spacing lookup 0 subtable" dx=7 dy=0 dh=14 dv=0
EndChar

StartChar: acircumflexacute
Encoding: 7845 7845 146
Width: 500
Flags: HMW
HStem: -11 22<167 214 167 217.5> -6 31<398 404> 288 90 426 22<186.5 227> 516 21G<101.5 101.5 381.5 381.5> 812 20G<304.5 321.5>
VStem: 24.5 77<71 117> 308.5 69<140 240 240 240 261 275> 450.5 25<89 145>
LayerCount: 2
Fore
SplineSet
475.5 89 m 2x7380
 475.5 8 414.5 -6 393.5 -6 c 0x4080
 346.5 -6 319.5 36 315.5 76 c 1
 296.5 29 250.5 -11 184.5 -11 c 0x80
 121.5 -11 24.5 14 24.5 95 c 0
 24.5 139 49.5 191 124.5 225 c 1
 187.5 255 257.5 258 308.5 261 c 1
 308.5 298 l 2
 308.5 387 251.5 426 202.5 426 c 0
 170.5 426 121.5 415 94.5 380 c 1
 140.5 379 145.5 346 145.5 334 c 0
 145.5 308 127.5 288 99.5 288 c 0
 73.5 288 53.5 305 53.5 335 c 0
 53.5 401 122.5 448 204.5 448 c 0
 252.5 448 302.5 432 341.5 393 c 0
 377.5 356 377.5 317 377.5 275 c 2
 377.5 75 l 2
 377.5 70 381.5 25 414.5 25 c 0
 425.5 25 450.5 31 450.5 89 c 2
 450.5 145 l 1
 475.5 145 l 1
 475.5 89 l 2x7380
308.5 140 m 2
 308.5 240 l 1
 143.5 234 101.5 151 101.5 96 c 0
 101.5 46 142.5 11 191.5 11 c 0x83
 236.5 11 308.5 45 308.5 140 c 2
393.5 532 m 1x0e
 381.5 516 l 1
 241.5 582 l 1
 101.5 516 l 1
 91.5 532 l 1
 242.5 649 l 1
 393.5 532 l 1x0e
345.5 790 m 0
 343.5 778 334.5 768 323.5 763 c 2
 153.5 669 l 1
 139.5 690 l 1
 284.5 820 l 2
 288.5 824 298.5 832 310.5 832 c 0
 332.5 832 349.5 812 345.5 790 c 0
EndSplineSet
EndChar

StartChar: Acircumflexdotbelow
Encoding: 7852 7852 147
Width: 750
Flags: HMW
HStem: -200 106<359.5 390.5 358.5 391.5> 0 31<32.5 32.5> 228 31<233.5 458.5 233.5 469.5 222.5 458.5> 696 20G<351.5 383.5 367.5 398.5> 736 21G<234.5 234.5 514.5 514.5> 849 20G<375.5 375.5>
VStem: 321.5 107<-159.5 -134.5>
LayerCount: 2
Fore
SplineSet
717.5 0 m 1
 586.5 3 l 2
 548.5 3 478.5 3 442.5 0 c 1
 442.5 31 l 1
 469.5 31 525.5 31 525.5 61 c 0
 525.5 65 523.5 71 522.5 75 c 2
 469.5 228 l 1
 222.5 228 l 1
 176.5 97 l 2
 175.5 95 174.5 85 174.5 82 c 0
 174.5 56 199.5 31 249.5 31 c 1
 249.5 0 l 1
 134.5 3 l 1
 32.5 0 l 1
 32.5 31 l 1
 86.5 32 126.5 47 144.5 98 c 2
 351.5 696 l 2
 356.5 710 359.5 716 375.5 716 c 0
 391.5 716 393.5 709 398.5 696 c 2
 614.5 71 l 2
 625.5 38 639.5 31 699.5 31 c 2
 717.5 31 l 1
 717.5 0 l 1
458.5 259 m 1
 345.5 584 l 1
 233.5 259 l 1
 458.5 259 l 1
526.5 752 m 1
 514.5 736 l 1
 374.5 802 l 1
 234.5 736 l 1
 224.5 752 l 1
 375.5 869 l 1
 526.5 752 l 1
428.5 -147 m 0x82
 428.5 -172 408.5 -200 374.5 -200 c 0
 344.5 -200 321.5 -174 321.5 -147 c 0
 321.5 -122 341.5 -94 375.5 -94 c 0
 405.5 -94 428.5 -120 428.5 -147 c 0x82
EndSplineSet
Position2: "'cpsp' Capital Spacing lookup 0 subtable" dx=7 dy=0 dh=14 dv=0
EndChar

StartChar: acircumflexdotbelow
Encoding: 7853 7853 148
Width: 500
Flags: HMW
HStem: -200 106<226.5 257.5 225.5 258.5> -11 22<167 214 167 217.5> -6 31<398 404> 288 90 426 22<186.5 227> 516 21G<103.5 103.5 381.5 381.5> 672 20G<242.5 242.5>
VStem: 24.5 77<71 117> 188.5 107<-159.5 -134.5> 308.5 69<140 240 240 240 261 275> 450.5 25<89 145>
LayerCount: 2
Fore
SplineSet
475.5 89 m 2x3960
 475.5 8 414.5 -6 393.5 -6 c 0x2020
 346.5 -6 319.5 36 315.5 76 c 1
 296.5 29 250.5 -11 184.5 -11 c 0x40
 121.5 -11 24.5 14 24.5 95 c 0
 24.5 139 49.5 191 124.5 225 c 1
 187.5 255 257.5 258 308.5 261 c 1
 308.5 298 l 2
 308.5 387 251.5 426 202.5 426 c 0
 170.5 426 121.5 415 94.5 380 c 1
 140.5 379 145.5 346 145.5 334 c 0
 145.5 308 127.5 288 99.5 288 c 0
 73.5 288 53.5 305 53.5 335 c 0
 53.5 401 122.5 448 204.5 448 c 0
 252.5 448 302.5 432 341.5 393 c 0
 377.5 356 377.5 317 377.5 275 c 2
 377.5 75 l 2
 377.5 70 381.5 25 414.5 25 c 0
 425.5 25 450.5 31 450.5 89 c 2
 450.5 145 l 1
 475.5 145 l 1
 475.5 89 l 2x3960
308.5 140 m 2
 308.5 240 l 1
 143.5 234 101.5 151 101.5 96 c 0
 101.5 46 142.5 11 191.5 11 c 0x4740
 236.5 11 308.5 45 308.5 140 c 2
394.5 530 m 1
 381.5 516 l 1
 242.5 624 l 1
 103.5 516 l 1
 90.5 530 l 1
 242.5 692 l 1
 394.5 530 l 1
295.5 -147 m 0x8080
 295.5 -172 275.5 -200 241.5 -200 c 0
 211.5 -200 188.5 -174 188.5 -147 c 0
 188.5 -122 208.5 -94 242.5 -94 c 0
 272.5 -94 295.5 -120 295.5 -147 c 0x8080
EndSplineSet
EndChar

StartChar: Acircumflexgrave
Encoding: 7846 7846 149
Width: 750
Flags: HMW
HStem: 0 31<32.5 32.5> 228 31<233.5 458.5 233.5 469.5 222.5 458.5> 696 20G<351.5 383.5 367.5 398.5> 736 21G<234.5 234.5 514.5 514.5> 849 20G<375.5 375.5>
LayerCount: 2
Fore
SplineSet
717.5 0 m 1
 586.5 3 l 2
 548.5 3 478.5 3 442.5 0 c 1
 442.5 31 l 1
 469.5 31 525.5 31 525.5 61 c 0
 525.5 65 523.5 71 522.5 75 c 2
 469.5 228 l 1
 222.5 228 l 1
 176.5 97 l 2
 175.5 95 174.5 85 174.5 82 c 0
 174.5 56 199.5 31 249.5 31 c 1
 249.5 0 l 1
 134.5 3 l 1
 32.5 0 l 1
 32.5 31 l 1
 86.5 32 126.5 47 144.5 98 c 2
 351.5 696 l 2
 356.5 710 359.5 716 375.5 716 c 0
 391.5 716 393.5 709 398.5 696 c 2
 614.5 71 l 2
 625.5 38 639.5 31 699.5 31 c 2
 717.5 31 l 1
 717.5 0 l 1
458.5 259 m 1
 345.5 584 l 1
 233.5 259 l 1
 458.5 259 l 1
526.5 752 m 1x18
 514.5 736 l 1
 374.5 802 l 1
 234.5 736 l 1
 224.5 752 l 1
 375.5 869 l 1
 526.5 752 l 1x18
478.5 910 m 1
 333.5 1040 l 2
 329.5 1044 319.5 1052 307.5 1052 c 0
 285.5 1052 268.5 1032 272.5 1010 c 0
 274.5 998 283.5 988 294.5 983 c 2
 464.5 889 l 1
 478.5 910 l 1
EndSplineSet
Position2: "'cpsp' Capital Spacing lookup 0 subtable" dx=7 dy=0 dh=14 dv=0
EndChar

StartChar: acircumflexgrave
Encoding: 7847 7847 150
Width: 500
Flags: HMW
HStem: -11 22<167 214 167 217.5> -6 31<398 404> 288 90 426 22<186.5 227> 516 21G<101.5 101.5 381.5 381.5> 629 20G<242.5 242.5>
VStem: 24.5 77<71 117> 308.5 69<140 240 240 240 261 275> 450.5 25<89 145>
LayerCount: 2
Fore
SplineSet
475.5 89 m 2x7380
 475.5 8 414.5 -6 393.5 -6 c 0x4080
 346.5 -6 319.5 36 315.5 76 c 1
 296.5 29 250.5 -11 184.5 -11 c 0x80
 121.5 -11 24.5 14 24.5 95 c 0
 24.5 139 49.5 191 124.5 225 c 1
 187.5 255 257.5 258 308.5 261 c 1
 308.5 298 l 2
 308.5 387 251.5 426 202.5 426 c 0
 170.5 426 121.5 415 94.5 380 c 1
 140.5 379 145.5 346 145.5 334 c 0
 145.5 308 127.5 288 99.5 288 c 0
 73.5 288 53.5 305 53.5 335 c 0
 53.5 401 122.5 448 204.5 448 c 0
 252.5 448 302.5 432 341.5 393 c 0
 377.5 356 377.5 317 377.5 275 c 2
 377.5 75 l 2
 377.5 70 381.5 25 414.5 25 c 0
 425.5 25 450.5 31 450.5 89 c 2
 450.5 145 l 1
 475.5 145 l 1
 475.5 89 l 2x7380
308.5 140 m 2
 308.5 240 l 1
 143.5 234 101.5 151 101.5 96 c 0
 101.5 46 142.5 11 191.5 11 c 0x83
 236.5 11 308.5 45 308.5 140 c 2
393.5 532 m 1x0e
 381.5 516 l 1
 241.5 582 l 1
 101.5 516 l 1
 91.5 532 l 1
 242.5 649 l 1
 393.5 532 l 1x0e
345.5 690 m 1
 200.5 820 l 2
 196.5 824 186.5 832 174.5 832 c 0
 152.5 832 135.5 812 139.5 790 c 0
 141.5 778 150.5 768 161.5 763 c 2
 331.5 669 l 1
 345.5 690 l 1
EndSplineSet
EndChar

StartChar: Acircumflexhookabove
Encoding: 7848 7848 151
Width: 750
Flags: HMW
HStem: 0 31<32.5 32.5> 228 31<233.5 458.5 233.5 469.5 222.5 458.5> 696 20G<351.5 383.5 367.5 398.5> 736 21G<234.5 234.5 514.5 514.5> 1058 20G<442 480>
LayerCount: 2
Fore
SplineSet
717.5 0 m 1
 586.5 3 l 2
 548.5 3 478.5 3 442.5 0 c 1
 442.5 31 l 1
 469.5 31 525.5 31 525.5 61 c 0
 525.5 65 523.5 71 522.5 75 c 2
 469.5 228 l 1
 222.5 228 l 1
 176.5 97 l 2
 175.5 95 174.5 85 174.5 82 c 0
 174.5 56 199.5 31 249.5 31 c 1
 249.5 0 l 1
 134.5 3 l 1
 32.5 0 l 1
 32.5 31 l 1
 86.5 32 126.5 47 144.5 98 c 2
 351.5 696 l 2
 356.5 710 359.5 716 375.5 716 c 0
 391.5 716 393.5 709 398.5 696 c 2
 614.5 71 l 2
 625.5 38 639.5 31 699.5 31 c 2
 717.5 31 l 1
 717.5 0 l 1
458.5 259 m 1
 345.5 584 l 1
 233.5 259 l 1
 458.5 259 l 1
526.5 752 m 1x18
 514.5 736 l 1
 374.5 802 l 1
 234.5 736 l 1
 224.5 752 l 1
 375.5 869 l 1
 526.5 752 l 1x18
569.5 1011 m 0
 569.5 992 557.5 976 539.5 968 c 0
 499.5 948 475.5 926 475.5 898 c 2
 475.5 879 l 2
 475.5 873 471.5 869 465.5 869 c 0
 460.5 869 455.5 873 455.5 879 c 2
 455.5 898 l 2
 455.5 931 475.5 961 503.5 984 c 0
 511.5 990 515.5 1000 515.5 1011 c 0
 515.5 1030 514.5 1040 507.5 1046 c 0
 496.5 1056 480.5 1059 465.5 1059 c 0
 442.5 1059 422.5 1052 409.5 1041 c 1
 423.5 1039 434.5 1028 434.5 1011 c 0
 434.5 993 420.5 982 405.5 982 c 0
 389.5 982 375.5 993 375.5 1012 c 0
 375.5 1053 418.5 1078 465.5 1078 c 0
 494.5 1078 519.5 1074 540.5 1062 c 0
 558.5 1051 569.5 1032 569.5 1011 c 0
EndSplineSet
Position2: "'cpsp' Capital Spacing lookup 0 subtable" dx=7 dy=0 dh=14 dv=0
EndChar

StartChar: acircumflexhookabove
Encoding: 7849 7849 152
Width: 500
Flags: HMW
HStem: -11 22<167 214 167 217.5> -6 31<398 404> 288 90 426 22<186.5 227> 516 21G<101.5 101.5 381.5 381.5> 838 20G<309 347>
VStem: 24.5 77<71 117> 308.5 69<140 240 240 240 261 275> 450.5 25<89 145>
LayerCount: 2
Fore
SplineSet
475.5 89 m 2x7380
 475.5 8 414.5 -6 393.5 -6 c 0x4080
 346.5 -6 319.5 36 315.5 76 c 1
 296.5 29 250.5 -11 184.5 -11 c 0x80
 121.5 -11 24.5 14 24.5 95 c 0
 24.5 139 49.5 191 124.5 225 c 1
 187.5 255 257.5 258 308.5 261 c 1
 308.5 298 l 2
 308.5 387 251.5 426 202.5 426 c 0
 170.5 426 121.5 415 94.5 380 c 1
 140.5 379 145.5 346 145.5 334 c 0
 145.5 308 127.5 288 99.5 288 c 0
 73.5 288 53.5 305 53.5 335 c 0
 53.5 401 122.5 448 204.5 448 c 0
 252.5 448 302.5 432 341.5 393 c 0
 377.5 356 377.5 317 377.5 275 c 2
 377.5 75 l 2
 377.5 70 381.5 25 414.5 25 c 0
 425.5 25 450.5 31 450.5 89 c 2
 450.5 145 l 1
 475.5 145 l 1
 475.5 89 l 2x7380
308.5 140 m 2
 308.5 240 l 1
 143.5 234 101.5 151 101.5 96 c 0
 101.5 46 142.5 11 191.5 11 c 0x83
 236.5 11 308.5 45 308.5 140 c 2
393.5 532 m 1x0e
 381.5 516 l 1
 241.5 582 l 1
 101.5 516 l 1
 91.5 532 l 1
 242.5 649 l 1
 393.5 532 l 1x0e
436.5 791 m 0
 436.5 772 424.5 756 406.5 748 c 0
 366.5 728 342.5 706 342.5 678 c 2
 342.5 659 l 2
 342.5 653 338.5 649 332.5 649 c 0
 327.5 649 322.5 653 322.5 659 c 2
 322.5 678 l 2
 322.5 711 342.5 741 370.5 764 c 0
 378.5 770 382.5 780 382.5 791 c 0
 382.5 810 381.5 820 374.5 826 c 0
 363.5 836 347.5 839 332.5 839 c 0
 309.5 839 289.5 832 276.5 821 c 1
 290.5 819 301.5 808 301.5 791 c 0
 301.5 773 287.5 762 272.5 762 c 0
 256.5 762 242.5 773 242.5 792 c 0
 242.5 833 285.5 858 332.5 858 c 0
 361.5 858 386.5 854 407.5 842 c 0
 425.5 831 436.5 812 436.5 791 c 0
EndSplineSet
EndChar

StartChar: Acircumflextilde
Encoding: 7850 7850 153
Width: 750
Flags: HMW
HStem: 0 31<32.5 32.5> 228 31<233.5 458.5 233.5 469.5 222.5 458.5> 696 20G<351.5 383.5 367.5 398.5> 736 21G<234.5 234.5 514.5 514.5> 909 45<433 453.5> 957 45<298.5 319>
LayerCount: 2
Fore
SplineSet
717.5 0 m 1
 586.5 3 l 2
 548.5 3 478.5 3 442.5 0 c 1
 442.5 31 l 1
 469.5 31 525.5 31 525.5 61 c 0
 525.5 65 523.5 71 522.5 75 c 2
 469.5 228 l 1
 222.5 228 l 1
 176.5 97 l 2
 175.5 95 174.5 85 174.5 82 c 0
 174.5 56 199.5 31 249.5 31 c 1
 249.5 0 l 1
 134.5 3 l 1
 32.5 0 l 1
 32.5 31 l 1
 86.5 32 126.5 47 144.5 98 c 2
 351.5 696 l 2
 356.5 710 359.5 716 375.5 716 c 0
 391.5 716 393.5 709 398.5 696 c 2
 614.5 71 l 2
 625.5 38 639.5 31 699.5 31 c 2
 717.5 31 l 1
 717.5 0 l 1
458.5 259 m 1
 345.5 584 l 1
 233.5 259 l 1
 458.5 259 l 1
526.5 752 m 1x1c
 514.5 736 l 1
 374.5 802 l 1
 234.5 736 l 1
 224.5 752 l 1
 375.5 869 l 1
 526.5 752 l 1x1c
542.5 987 m 1
 491.5 931 472.5 909 434.5 909 c 0
 417.5 909 399.5 916 372.5 932 c 0
 355.5 942 330.5 957 307.5 957 c 0
 263.5 957 225.5 909 225.5 909 c 1
 209.5 924 l 1
 260.5 980 279.5 1002 317.5 1002 c 0
 334.5 1002 352.5 995 379.5 979 c 0
 396.5 969 421.5 954 444.5 954 c 0
 488.5 954 526.5 1002 526.5 1002 c 1
 542.5 987 l 1
EndSplineSet
Position2: "'cpsp' Capital Spacing lookup 0 subtable" dx=7 dy=0 dh=14 dv=0
EndChar

StartChar: acircumflextilde
Encoding: 7851 7851 154
Width: 500
Flags: HMW
HStem: -11 22<167 214 167 217.5> -6 31<398 404> 288 90 426 22<186.5 227> 516 21G<101.5 101.5 381.5 381.5> 689 45<300 320.5> 737 45<165.5 186>
VStem: 24.5 77<71 117> 308.5 69<140 240 240 240 261 275> 450.5 25<89 145>
LayerCount: 2
Fore
SplineSet
475.5 89 m 2x71c0
 475.5 8 414.5 -6 393.5 -6 c 0x4040
 346.5 -6 319.5 36 315.5 76 c 1
 296.5 29 250.5 -11 184.5 -11 c 0x80
 121.5 -11 24.5 14 24.5 95 c 0
 24.5 139 49.5 191 124.5 225 c 1
 187.5 255 257.5 258 308.5 261 c 1
 308.5 298 l 2
 308.5 387 251.5 426 202.5 426 c 0
 170.5 426 121.5 415 94.5 380 c 1
 140.5 379 145.5 346 145.5 334 c 0
 145.5 308 127.5 288 99.5 288 c 0
 73.5 288 53.5 305 53.5 335 c 0
 53.5 401 122.5 448 204.5 448 c 0
 252.5 448 302.5 432 341.5 393 c 0
 377.5 356 377.5 317 377.5 275 c 2
 377.5 75 l 2
 377.5 70 381.5 25 414.5 25 c 0
 425.5 25 450.5 31 450.5 89 c 2
 450.5 145 l 1
 475.5 145 l 1
 475.5 89 l 2x71c0
308.5 140 m 2
 308.5 240 l 1
 143.5 234 101.5 151 101.5 96 c 0
 101.5 46 142.5 11 191.5 11 c 0x8180
 236.5 11 308.5 45 308.5 140 c 2
393.5 532 m 1x0f
 381.5 516 l 1
 241.5 582 l 1
 101.5 516 l 1
 91.5 532 l 1
 242.5 649 l 1
 393.5 532 l 1x0f
409.5 767 m 1
 358.5 711 339.5 689 301.5 689 c 0
 284.5 689 266.5 696 239.5 712 c 0
 222.5 722 197.5 737 174.5 737 c 0
 130.5 737 92.5 689 92.5 689 c 1
 76.5 704 l 1
 127.5 760 146.5 782 184.5 782 c 0
 201.5 782 219.5 775 246.5 759 c 0
 263.5 749 288.5 734 311.5 734 c 0
 355.5 734 393.5 782 393.5 782 c 1
 409.5 767 l 1
EndSplineSet
EndChar

StartChar: acute
Encoding: 180 180 155
Width: 500
Flags: HMW
HStem: 510 21G<174 174> 678 20G<299.5 316>
LayerCount: 2
Fore
SplineSet
343 662 m 0
 343 650 335 639 326 632 c 2
 174 510 l 1
 157 528 l 1
 277 681 l 2
 281 687 292 698 307 698 c 0
 325 698 343 680 343 662 c 0
EndSplineSet
EndChar

StartChar: uni0301
Encoding: 769 769 156
Width: 0
Flags: HMW
HStem: 510 21G<-76 -76> 678 20G<49.5 66>
LayerCount: 2
Fore
SplineSet
93 662 m 0
 93 650 85 639 76 632 c 2
 -76 510 l 1
 -93 528 l 1
 27 681 l 2
 31 687 42 698 57 698 c 0
 75 698 93 680 93 662 c 0
EndSplineSet
EndChar

StartChar: Adblgrave
Encoding: 512 512 157
Width: 750
Flags: HMW
HStem: 0 31<32.5 32.5> 228 31<233.5 458.5 233.5 469.5 222.5 458.5> 696 20G<351.5 383.5 367.5 398.5> 746 21G<281.5 281.5 448.5 448.5> 912 20G<205 226 372 393>
LayerCount: 2
Fore
SplineSet
717.5 0 m 1
 586.5 3 l 2
 548.5 3 478.5 3 442.5 0 c 1
 442.5 31 l 1
 469.5 31 525.5 31 525.5 61 c 0
 525.5 65 523.5 71 522.5 75 c 2
 469.5 228 l 1
 222.5 228 l 1
 176.5 97 l 2
 175.5 95 174.5 85 174.5 82 c 0
 174.5 56 199.5 31 249.5 31 c 1
 249.5 0 l 1
 134.5 3 l 1
 32.5 0 l 1
 32.5 31 l 1
 86.5 32 126.5 47 144.5 98 c 2
 351.5 696 l 2
 356.5 710 359.5 716 375.5 716 c 0
 391.5 716 393.5 709 398.5 696 c 2
 614.5 71 l 2
 625.5 38 639.5 31 699.5 31 c 2
 717.5 31 l 1
 717.5 0 l 1
458.5 259 m 1
 345.5 584 l 1
 233.5 259 l 1
 458.5 259 l 1
469.5 758 m 1x18
 465.5 755 450.5 747 448.5 746 c 1
 356.5 872 l 2
 347.5 884 344.5 888 344.5 898 c 0
 344.5 916 362.5 932 381.5 932 c 0
 404.5 932 410.5 915 415.5 903 c 2
 469.5 758 l 1x18
302.5 758 m 1
 298.5 755 283.5 747 281.5 746 c 1
 189.5 872 l 2
 180.5 884 177.5 888 177.5 898 c 0
 177.5 916 195.5 932 214.5 932 c 0
 237.5 932 243.5 915 248.5 903 c 2
 302.5 758 l 1
EndSplineSet
Position2: "'cpsp' Capital Spacing lookup 0 subtable" dx=7 dy=0 dh=14 dv=0
EndChar

StartChar: adblgrave
Encoding: 513 513 158
Width: 500
Flags: HMW
HStem: -11 22<167 214 167 217.5> -6 31<398 404> 288 90 426 22<186.5 227> 511 21G<176.5 176.5 343.5 343.5> 677 20G<100 121 267 288>
VStem: 24.5 77<71 117> 308.5 69<140 240 240 240 261 275> 450.5 25<89 145>
LayerCount: 2
Fore
SplineSet
475.5 89 m 2x7380
 475.5 8 414.5 -6 393.5 -6 c 0x4080
 346.5 -6 319.5 36 315.5 76 c 1
 296.5 29 250.5 -11 184.5 -11 c 0x80
 121.5 -11 24.5 14 24.5 95 c 0
 24.5 139 49.5 191 124.5 225 c 1
 187.5 255 257.5 258 308.5 261 c 1
 308.5 298 l 2
 308.5 387 251.5 426 202.5 426 c 0
 170.5 426 121.5 415 94.5 380 c 1
 140.5 379 145.5 346 145.5 334 c 0
 145.5 308 127.5 288 99.5 288 c 0
 73.5 288 53.5 305 53.5 335 c 0
 53.5 401 122.5 448 204.5 448 c 0
 252.5 448 302.5 432 341.5 393 c 0
 377.5 356 377.5 317 377.5 275 c 2
 377.5 75 l 2
 377.5 70 381.5 25 414.5 25 c 0
 425.5 25 450.5 31 450.5 89 c 2
 450.5 145 l 1
 475.5 145 l 1
 475.5 89 l 2x7380
308.5 140 m 2
 308.5 240 l 1
 143.5 234 101.5 151 101.5 96 c 0
 101.5 46 142.5 11 191.5 11 c 0x83
 236.5 11 308.5 45 308.5 140 c 2
364.5 523 m 1x0c
 360.5 520 345.5 512 343.5 511 c 1
 251.5 637 l 2
 242.5 649 239.5 653 239.5 663 c 0
 239.5 681 257.5 697 276.5 697 c 0
 299.5 697 305.5 680 310.5 668 c 2
 364.5 523 l 1x0c
197.5 523 m 1
 193.5 520 178.5 512 176.5 511 c 1
 84.5 637 l 2
 75.5 649 72.5 653 72.5 663 c 0
 72.5 681 90.5 697 109.5 697 c 0
 132.5 697 138.5 680 143.5 668 c 2
 197.5 523 l 1
EndSplineSet
EndChar

StartChar: Adieresis
Encoding: 196 196 159
Width: 547
Flags: HMW
HStem: 0 31<23.4747 23.4747> 228 31<170.205 334.455 170.205 342.485 162.175 334.455> 696 20G<256.345 279.705 268.025 290.655> 736 95<187.36 207.8 186.63 208.53 340.66 361.1>
VStem: 162.175 70.81<772.5 795> 315.475 70.81<772.5 795>
LayerCount: 2
Fore
SplineSet
523.525 0 m 1
 427.895 3 l 2
 400.154 3 349.055 3 322.775 0 c 1
 322.775 31 l 1
 342.484 31 383.365 31 383.365 61 c 0
 383.365 65 381.904 71 381.174 75 c 2
 342.484 228 l 1
 162.174 228 l 1
 128.596 97 l 2
 127.865 95 127.135 85 127.135 82 c 0
 127.135 56 145.385 31 181.885 31 c 1
 181.885 0 l 1
 97.9355 3 l 1
 23.4746 0 l 1
 23.4746 31 l 1
 62.8945 32 92.0957 47 105.234 98 c 2
 256.346 696 l 2
 259.994 710 262.186 716 273.865 716 c 0
 285.545 716 287.004 709 290.654 696 c 2
 448.334 71 l 2
 456.365 38 466.584 31 510.385 31 c 2
 523.525 31 l 1
 523.525 0 l 1
334.455 259 m 1
 251.965 584 l 1
 170.205 259 l 1
 334.455 259 l 1
232.984 784 m 0x1c
 232.984 761 219.846 736 197.215 736 c 0
 177.504 736 162.174 759 162.174 784 c 0
 162.174 806 175.314 831 197.945 831 c 0
 217.654 831 232.984 808 232.984 784 c 0x1c
386.285 784 m 0
 386.285 761 373.145 736 350.516 736 c 0
 330.805 736 315.475 759 315.475 784 c 0
 315.475 806 328.615 831 351.244 831 c 0
 370.955 831 386.285 808 386.285 784 c 0
EndSplineSet
Position2: "'cpsp' Capital Spacing lookup 0 subtable" dx=5 dy=0 dh=10 dv=0
EndChar

StartChar: adieresis
Encoding: 228 228 160
Width: 500
Flags: HMW
HStem: -11 22<167 214 167 217.5> -6 31<398 404> 288 90 426 22<186.5 227> 557 95<140 168 139 169 318 346>
VStem: 24.5 77<71 117> 105.5 97<593.5 616> 283.5 97<593.5 616> 308.5 69<140 240 240 240 261 275> 450.5 25<89 145>
LayerCount: 2
Fore
SplineSet
475.5 89 m 2x76c0
 475.5 8 414.5 -6 393.5 -6 c 0x4040
 346.5 -6 319.5 36 315.5 76 c 1
 296.5 29 250.5 -11 184.5 -11 c 0x80
 121.5 -11 24.5 14 24.5 95 c 0
 24.5 139 49.5 191 124.5 225 c 1
 187.5 255 257.5 258 308.5 261 c 1
 308.5 298 l 2
 308.5 387 251.5 426 202.5 426 c 0
 170.5 426 121.5 415 94.5 380 c 1
 140.5 379 145.5 346 145.5 334 c 0
 145.5 308 127.5 288 99.5 288 c 0
 73.5 288 53.5 305 53.5 335 c 0
 53.5 401 122.5 448 204.5 448 c 0
 252.5 448 302.5 432 341.5 393 c 0
 377.5 356 377.5 317 377.5 275 c 2
 377.5 75 l 2
 377.5 70 381.5 25 414.5 25 c 0
 425.5 25 450.5 31 450.5 89 c 2
 450.5 145 l 1
 475.5 145 l 1
 475.5 89 l 2x76c0
308.5 140 m 2
 308.5 240 l 1
 143.5 234 101.5 151 101.5 96 c 0
 101.5 46 142.5 11 191.5 11 c 0x8480
 236.5 11 308.5 45 308.5 140 c 2
202.5 605 m 0x0b
 202.5 582 184.5 557 153.5 557 c 0
 126.5 557 105.5 580 105.5 605 c 0
 105.5 627 123.5 652 154.5 652 c 0
 181.5 652 202.5 629 202.5 605 c 0x0b
380.5 605 m 0
 380.5 582 362.5 557 331.5 557 c 0
 304.5 557 283.5 580 283.5 605 c 0
 283.5 627 301.5 652 332.5 652 c 0
 359.5 652 380.5 629 380.5 605 c 0
EndSplineSet
EndChar

StartChar: Adotbelow
Encoding: 7840 7840 161
Width: 750
Flags: HMW
HStem: -200 106<359.5 390.5 358.5 391.5> 0 31<32.5 32.5> 228 31<233.5 458.5 233.5 469.5 222.5 458.5> 696 20G<351.5 383.5 367.5 398.5>
VStem: 321.5 107<-159.5 -134.5>
LayerCount: 2
Fore
SplineSet
717.5 0 m 1
 586.5 3 l 2
 548.5 3 478.5 3 442.5 0 c 1
 442.5 31 l 1
 469.5 31 525.5 31 525.5 61 c 0
 525.5 65 523.5 71 522.5 75 c 2
 469.5 228 l 1
 222.5 228 l 1
 176.5 97 l 2
 175.5 95 174.5 85 174.5 82 c 0
 174.5 56 199.5 31 249.5 31 c 1
 249.5 0 l 1
 134.5 3 l 1
 32.5 0 l 1
 32.5 31 l 1
 86.5 32 126.5 47 144.5 98 c 2
 351.5 696 l 2
 356.5 710 359.5 716 375.5 716 c 0
 391.5 716 393.5 709 398.5 696 c 2
 614.5 71 l 2
 625.5 38 639.5 31 699.5 31 c 2
 717.5 31 l 1
 717.5 0 l 1
458.5 259 m 1
 345.5 584 l 1
 233.5 259 l 1
 458.5 259 l 1
428.5 -147 m 0x88
 428.5 -172 408.5 -200 374.5 -200 c 0
 344.5 -200 321.5 -174 321.5 -147 c 0
 321.5 -122 341.5 -94 375.5 -94 c 0
 405.5 -94 428.5 -120 428.5 -147 c 0x88
EndSplineSet
Position2: "'cpsp' Capital Spacing lookup 0 subtable" dx=7 dy=0 dh=14 dv=0
EndChar

StartChar: adotbelow
Encoding: 7841 7841 162
Width: 500
Flags: HMW
HStem: -200 106<226.5 257.5 225.5 258.5> -11 22<167 214 167 217.5> -6 31<398 404> 288 90 426 22<186.5 227>
VStem: 24.5 77<71 117> 188.5 107<-159.5 -134.5> 308.5 69<140 240 240 240 261 275> 450.5 25<89 145>
LayerCount: 2
Fore
SplineSet
475.5 89 m 2x3d80
 475.5 8 414.5 -6 393.5 -6 c 0x2080
 346.5 -6 319.5 36 315.5 76 c 1
 296.5 29 250.5 -11 184.5 -11 c 0x40
 121.5 -11 24.5 14 24.5 95 c 0
 24.5 139 49.5 191 124.5 225 c 1
 187.5 255 257.5 258 308.5 261 c 1
 308.5 298 l 2
 308.5 387 251.5 426 202.5 426 c 0
 170.5 426 121.5 415 94.5 380 c 1
 140.5 379 145.5 346 145.5 334 c 0
 145.5 308 127.5 288 99.5 288 c 0
 73.5 288 53.5 305 53.5 335 c 0
 53.5 401 122.5 448 204.5 448 c 0
 252.5 448 302.5 432 341.5 393 c 0
 377.5 356 377.5 317 377.5 275 c 2
 377.5 75 l 2
 377.5 70 381.5 25 414.5 25 c 0
 425.5 25 450.5 31 450.5 89 c 2
 450.5 145 l 1
 475.5 145 l 1
 475.5 89 l 2x3d80
308.5 140 m 2
 308.5 240 l 1
 143.5 234 101.5 151 101.5 96 c 0
 101.5 46 142.5 11 191.5 11 c 0x45
 236.5 11 308.5 45 308.5 140 c 2
295.5 -147 m 0x82
 295.5 -172 275.5 -200 241.5 -200 c 0
 211.5 -200 188.5 -174 188.5 -147 c 0
 188.5 -122 208.5 -94 242.5 -94 c 0
 272.5 -94 295.5 -120 295.5 -147 c 0x82
EndSplineSet
EndChar

StartChar: AE
Encoding: 198 198 163
Width: 659
Flags: HMW
HStem: 0 31<22.1701 47.7201 246.28 270.37 398.85 468.2 468.2 529.52> 313 31<192.99 302.49 192.99 302.49 184.96 302.49 363.08 425.13> 652 31<187.15 220 187.15 595.95 381.695 398.85 398.85 468.2>
VStem: 126.56 60.59 302.49 60.59<76 313 344 604 604 612> 500.32 18.25<196 238 419 461> 598.14 18.25<458 458> 618.58 18.25<258 258>
LayerCount: 2
Fore
SplineSet
636.83 258 m 1
 606.17 0 l 1
 246.279 0 l 1
 246.279 31 l 1
 294.461 31 302.49 31 302.49 76 c 2
 302.49 313 l 1
 184.961 313 l 1
 130.211 103 l 2
 126.561 90 126.561 89 126.561 81 c 0
 126.561 56 144.08 32 180.58 31 c 1
 180.58 0 l 1
 96.6309 3 l 1
 67.4297 3 38.2305 1 22.1699 0 c 1
 22.1699 31 l 1
 73.2695 31 94.4395 59 104.66 98 c 2
 249.199 651 l 1
 239.711 651 229.49 652 220 652 c 2
 187.15 652 l 1
 187.15 683 l 1
 595.949 683 l 1
 616.391 458 l 1
 598.141 458 l 1
 586.461 594 571.859 652 468.199 652 c 2
 398.85 652 l 2
 364.541 652 363.08 645 363.08 612 c 2
 363.08 344 l 1
 425.131 344 l 2
 493.75 344 500.32 377 500.32 461 c 1
 518.57 461 l 1
 518.57 196 l 1
 500.32 196 l 1
 500.32 280 493.75 313 425.131 313 c 2
 363.08 313 l 1
 363.08 71 l 2
 363.08 38 364.541 31 398.85 31 c 2
 468.199 31 l 2
 590.84 31 600.33 110 618.58 258 c 1
 636.83 258 l 1
302.49 344 m 1
 302.49 604 l 2
 302.49 620 302.49 647 272.561 648 c 1
 192.99 344 l 1
 302.49 344 l 1
EndSplineSet
Position2: "'cpsp' Capital Spacing lookup 0 subtable" dx=5 dy=0 dh=10 dv=0
EndChar

StartChar: ae
Encoding: 230 230 164
Width: 722
Flags: HMW
HStem: -11 22<177.5 236.5> 111 21 132 22 229 21<318 318> 231 21<388 619 388 660 387 619> 288 93 426 22<194 237.5 499 564.5>
VStem: 37 77<68.5 119 68.5 140> 155 57 330 57<122.5 133.5> 619 66<252 252>
LayerCount: 2
Fore
SplineSet
685 119 m 0x4ee0
 685 100 643 -11 530 -11 c 0
 500 -11 422 -3 363 78 c 1
 339 29 277 -11 196 -11 c 0
 129 -11 37 13 37 92 c 0
 37 188 156 250 318 250 c 1x9120
 318 298 l 2
 318 385 263 426 212 426 c 0
 176 426 129 412 104 380 c 1
 150 379 155 346 155 334 c 0
 155 308 137 288 109 288 c 0
 83 288 63 305 63 335 c 0
 63 402 134 448 214 448 c 0
 278 448 338 419 367 371 c 1
 418 432 474 448 518 448 c 0
 627 448 685 363 685 252 c 0
 685 231 682 231 660 231 c 2
 387 231 l 1
 387 14 524 14 534 14 c 0
 596 14 642 61 657 111 c 0
 662 127 663 131 672 131 c 0
 677 131 685 129 685 119 c 0x4ee0
619 252 m 1
 617 291 612 426 517 426 c 0
 481 426 398 398 388 252 c 1x8b20
 619 252 l 1
330 132 m 0
 330 135 330 143 327 154 c 0
 318 185 318 205 318 229 c 1x3040
 156 223 114 146 114 92 c 0
 114 45 154 11 201 11 c 0
 273 11 330 68 330 132 c 0
EndSplineSet
EndChar

StartChar: AEacute
Encoding: 508 508 165
Width: 903
Flags: HMW
HStem: 0 31<30.5 65.5 337.5 370.5 546.5 641.5 641.5 725.5> 313 31<264.5 414.5 264.5 414.5 253.5 414.5 497.5 582.5> 652 31<256.5 301.5 256.5 816.5 523 546.5 546.5 641.5> 746 21G<380.5 394.5> 889 20G<545.5 562.5>
VStem: 173.5 83 414.5 83<76 313 344 604 604 612> 685.5 25<196 238 419 461> 819.5 25<458 458> 847.5 25<258 258>
LayerCount: 2
Fore
SplineSet
872.5 258 m 1
 830.5 0 l 1
 337.5 0 l 1
 337.5 31 l 1
 403.5 31 414.5 31 414.5 76 c 2
 414.5 313 l 1
 253.5 313 l 1
 178.5 103 l 2
 173.5 90 173.5 89 173.5 81 c 0
 173.5 56 197.5 32 247.5 31 c 1
 247.5 0 l 1
 132.5 3 l 1
 92.5 3 52.5 1 30.5 0 c 1
 30.5 31 l 1
 100.5 31 129.5 59 143.5 98 c 2
 341.5 651 l 1
 328.5 651 314.5 652 301.5 652 c 2
 256.5 652 l 1
 256.5 683 l 1
 816.5 683 l 1
 844.5 458 l 1
 819.5 458 l 1
 803.5 594 783.5 652 641.5 652 c 2
 546.5 652 l 2
 499.5 652 497.5 645 497.5 612 c 2
 497.5 344 l 1
 582.5 344 l 2
 676.5 344 685.5 377 685.5 461 c 1
 710.5 461 l 1
 710.5 196 l 1
 685.5 196 l 1
 685.5 280 676.5 313 582.5 313 c 2
 497.5 313 l 1
 497.5 71 l 2
 497.5 38 499.5 31 546.5 31 c 2
 641.5 31 l 2
 809.5 31 822.5 110 847.5 258 c 1
 872.5 258 l 1
414.5 344 m 1
 414.5 604 l 2
 414.5 620 414.5 647 373.5 648 c 1
 264.5 344 l 1
 414.5 344 l 1
586.5 867 m 0x18
 584.5 855 575.5 845 564.5 840 c 2
 394.5 746 l 1
 380.5 767 l 1
 525.5 897 l 2
 529.5 901 539.5 909 551.5 909 c 0
 573.5 909 590.5 889 586.5 867 c 0x18
EndSplineSet
Position2: "'cpsp' Capital Spacing lookup 0 subtable" dx=7 dy=0 dh=14 dv=0
EndChar

StartChar: aeacute
Encoding: 509 509 166
Width: 722
Flags: HMW
HStem: -11 22<177.5 236.5> 111 21 132 22 229 21<318 318> 231 21<388 619 388 660 387 619> 288 93 426 22<194 237.5 499 564.5> 510 21G<308 308> 678 20G<433.5 450>
VStem: 37 77<68.5 119 68.5 140> 155 57 330 57<122.5 133.5> 619 66<252 252>
LayerCount: 2
Fore
SplineSet
685 119 m 0x4e38
 685 100 643 -11 530 -11 c 0
 500 -11 422 -3 363 78 c 1
 339 29 277 -11 196 -11 c 0
 129 -11 37 13 37 92 c 0
 37 188 156 250 318 250 c 1x9048
 318 298 l 2
 318 385 263 426 212 426 c 0
 176 426 129 412 104 380 c 1
 150 379 155 346 155 334 c 0
 155 308 137 288 109 288 c 0
 83 288 63 305 63 335 c 0
 63 402 134 448 214 448 c 0
 278 448 338 419 367 371 c 1
 418 432 474 448 518 448 c 0
 627 448 685 363 685 252 c 0
 685 231 682 231 660 231 c 2
 387 231 l 1
 387 14 524 14 534 14 c 0
 596 14 642 61 657 111 c 0
 662 127 663 131 672 131 c 0
 677 131 685 129 685 119 c 0x4e38
619 252 m 1
 617 291 612 426 517 426 c 0
 481 426 398 398 388 252 c 1x8a48
 619 252 l 1
330 132 m 0
 330 135 330 143 327 154 c 0
 318 185 318 205 318 229 c 1x3010
 156 223 114 146 114 92 c 0
 114 45 154 11 201 11 c 0
 273 11 330 68 330 132 c 0
477 662 m 0x0180
 477 650 469 639 460 632 c 2
 308 510 l 1
 291 528 l 1
 411 681 l 2
 415 687 426 698 441 698 c 0
 459 698 477 680 477 662 c 0x0180
EndSplineSet
EndChar

StartChar: Agrave
Encoding: 192 192 167
Width: 547
Flags: HMW
HStem: 0 31<23.4747 23.4747> 228 31<170.205 334.455 170.205 342.485 162.175 334.455> 696 20G<256.345 279.705 268.025 290.655> 746 21G<314.015 324.235> 889 20G<191.375 203.785>
LayerCount: 2
Fore
SplineSet
523.525 0 m 1
 427.895 3 l 2
 400.154 3 349.055 3 322.775 0 c 1
 322.775 31 l 1
 342.484 31 383.365 31 383.365 61 c 0
 383.365 65 381.904 71 381.174 75 c 2
 342.484 228 l 1
 162.174 228 l 1
 128.596 97 l 2
 127.865 95 127.135 85 127.135 82 c 0
 127.135 56 145.385 31 181.885 31 c 1
 181.885 0 l 1
 97.9355 3 l 1
 23.4746 0 l 1
 23.4746 31 l 1
 62.8945 32 92.0957 47 105.234 98 c 2
 256.346 696 l 2
 259.994 710 262.186 716 273.865 716 c 0
 285.545 716 287.004 709 290.654 696 c 2
 448.334 71 l 2
 456.365 38 466.584 31 510.385 31 c 2
 523.525 31 l 1
 523.525 0 l 1
334.455 259 m 1
 251.965 584 l 1
 170.205 259 l 1
 334.455 259 l 1
324.234 767 m 1x18
 314.016 746 l 1
 189.914 840 l 2
 181.885 845 175.314 855 173.855 867 c 0
 170.936 889 183.346 909 199.404 909 c 0
 208.164 909 215.465 901 218.385 897 c 2
 324.234 767 l 1x18
EndSplineSet
Position2: "'cpsp' Capital Spacing lookup 0 subtable" dx=5 dy=0 dh=10 dv=0
EndChar

StartChar: agrave
Encoding: 224 224 168
Width: 500
Flags: HMW
HStem: -11 22<167 214 167 217.5> -6 31<398 404> 288 90 426 22<186.5 227> 510 21G<287.5 287.5> 678 20G<145.5 162>
VStem: 24.5 77<71 117> 308.5 69<140 240 240 240 261 275> 450.5 25<89 145>
LayerCount: 2
Fore
SplineSet
475.5 89 m 2x7380
 475.5 8 414.5 -6 393.5 -6 c 0x4080
 346.5 -6 319.5 36 315.5 76 c 1
 296.5 29 250.5 -11 184.5 -11 c 0x80
 121.5 -11 24.5 14 24.5 95 c 0
 24.5 139 49.5 191 124.5 225 c 1
 187.5 255 257.5 258 308.5 261 c 1
 308.5 298 l 2
 308.5 387 251.5 426 202.5 426 c 0
 170.5 426 121.5 415 94.5 380 c 1
 140.5 379 145.5 346 145.5 334 c 0
 145.5 308 127.5 288 99.5 288 c 0
 73.5 288 53.5 305 53.5 335 c 0
 53.5 401 122.5 448 204.5 448 c 0
 252.5 448 302.5 432 341.5 393 c 0
 377.5 356 377.5 317 377.5 275 c 2
 377.5 75 l 2
 377.5 70 381.5 25 414.5 25 c 0
 425.5 25 450.5 31 450.5 89 c 2
 450.5 145 l 1
 475.5 145 l 1
 475.5 89 l 2x7380
308.5 140 m 2
 308.5 240 l 1
 143.5 234 101.5 151 101.5 96 c 0
 101.5 46 142.5 11 191.5 11 c 0x83
 236.5 11 308.5 45 308.5 140 c 2
304.5 528 m 1x0c
 287.5 510 l 1
 135.5 632 l 2
 126.5 639 118.5 650 118.5 662 c 0
 118.5 680 136.5 698 154.5 698 c 0
 169.5 698 180.5 687 184.5 681 c 2
 304.5 528 l 1x0c
EndSplineSet
EndChar

StartChar: Ahookabove
Encoding: 7842 7842 169
Width: 750
Flags: HMW
HStem: 0 31<32.5 32.5> 228 31<233.5 458.5 233.5 469.5 222.5 458.5> 696 20G<351.5 383.5 367.5 398.5> 758 21G<366 371.5> 947 20G<345 383>
LayerCount: 2
Fore
SplineSet
717.5 0 m 1
 586.5 3 l 2
 548.5 3 478.5 3 442.5 0 c 1
 442.5 31 l 1
 469.5 31 525.5 31 525.5 61 c 0
 525.5 65 523.5 71 522.5 75 c 2
 469.5 228 l 1
 222.5 228 l 1
 176.5 97 l 2
 175.5 95 174.5 85 174.5 82 c 0
 174.5 56 199.5 31 249.5 31 c 1
 249.5 0 l 1
 134.5 3 l 1
 32.5 0 l 1
 32.5 31 l 1
 86.5 32 126.5 47 144.5 98 c 2
 351.5 696 l 2
 356.5 710 359.5 716 375.5 716 c 0
 391.5 716 393.5 709 398.5 696 c 2
 614.5 71 l 2
 625.5 38 639.5 31 699.5 31 c 2
 717.5 31 l 1
 717.5 0 l 1
458.5 259 m 1
 345.5 584 l 1
 233.5 259 l 1
 458.5 259 l 1
472.5 900 m 0x18
 472.5 881 460.5 865 442.5 857 c 0
 402.5 837 378.5 815 378.5 787 c 2
 378.5 768 l 2
 378.5 762 374.5 758 368.5 758 c 0
 363.5 758 358.5 762 358.5 768 c 2
 358.5 787 l 2
 358.5 820 378.5 850 406.5 873 c 0
 414.5 879 418.5 889 418.5 900 c 0
 418.5 919 417.5 929 410.5 935 c 0
 399.5 945 383.5 948 368.5 948 c 0
 345.5 948 325.5 941 312.5 930 c 1
 326.5 928 337.5 917 337.5 900 c 0
 337.5 882 323.5 871 308.5 871 c 0
 292.5 871 278.5 882 278.5 901 c 0
 278.5 942 321.5 967 368.5 967 c 0
 397.5 967 422.5 963 443.5 951 c 0
 461.5 940 472.5 921 472.5 900 c 0x18
EndSplineSet
Position2: "'cpsp' Capital Spacing lookup 0 subtable" dx=7 dy=0 dh=14 dv=0
EndChar

StartChar: ahookabove
Encoding: 7843 7843 170
Width: 500
Flags: HMW
HStem: -11 22<167 214 167 217.5> -6 31<398 404> 288 90 426 22<186.5 227> 500 21G<233 238.5> 689 20G<212 250>
VStem: 24.5 77<71 117> 308.5 69<140 240 240 240 261 275> 450.5 25<89 145>
LayerCount: 2
Fore
SplineSet
475.5 89 m 2x7380
 475.5 8 414.5 -6 393.5 -6 c 0x4080
 346.5 -6 319.5 36 315.5 76 c 1
 296.5 29 250.5 -11 184.5 -11 c 0x80
 121.5 -11 24.5 14 24.5 95 c 0
 24.5 139 49.5 191 124.5 225 c 1
 187.5 255 257.5 258 308.5 261 c 1
 308.5 298 l 2
 308.5 387 251.5 426 202.5 426 c 0
 170.5 426 121.5 415 94.5 380 c 1
 140.5 379 145.5 346 145.5 334 c 0
 145.5 308 127.5 288 99.5 288 c 0
 73.5 288 53.5 305 53.5 335 c 0
 53.5 401 122.5 448 204.5 448 c 0
 252.5 448 302.5 432 341.5 393 c 0
 377.5 356 377.5 317 377.5 275 c 2
 377.5 75 l 2
 377.5 70 381.5 25 414.5 25 c 0
 425.5 25 450.5 31 450.5 89 c 2
 450.5 145 l 1
 475.5 145 l 1
 475.5 89 l 2x7380
308.5 140 m 2
 308.5 240 l 1
 143.5 234 101.5 151 101.5 96 c 0
 101.5 46 142.5 11 191.5 11 c 0x83
 236.5 11 308.5 45 308.5 140 c 2
339.5 642 m 0x0c
 339.5 623 327.5 607 309.5 599 c 0
 269.5 579 245.5 557 245.5 529 c 2
 245.5 510 l 2
 245.5 504 241.5 500 235.5 500 c 0
 230.5 500 225.5 504 225.5 510 c 2
 225.5 529 l 2
 225.5 562 245.5 592 273.5 615 c 0
 281.5 621 285.5 631 285.5 642 c 0
 285.5 661 284.5 671 277.5 677 c 0
 266.5 687 250.5 690 235.5 690 c 0
 212.5 690 192.5 683 179.5 672 c 1
 193.5 670 204.5 659 204.5 642 c 0
 204.5 624 190.5 613 175.5 613 c 0
 159.5 613 145.5 624 145.5 643 c 0
 145.5 684 188.5 709 235.5 709 c 0
 264.5 709 289.5 705 310.5 693 c 0
 328.5 682 339.5 663 339.5 642 c 0x0c
EndSplineSet
EndChar

StartChar: Alpha
Encoding: 913 913 171
Width: 750
Flags: HMW
HStem: 0 31<32.5 32.5> 228 31<233.5 458.5 233.5 469.5 222.5 458.5> 696 20G<351.5 383.5 367.5 398.5>
LayerCount: 2
Fore
SplineSet
717.5 0 m 1
 586.5 3 l 2
 548.5 3 478.5 3 442.5 0 c 1
 442.5 31 l 1
 469.5 31 525.5 31 525.5 61 c 0
 525.5 65 523.5 71 522.5 75 c 2
 469.5 228 l 1
 222.5 228 l 1
 176.5 97 l 2
 175.5 95 174.5 85 174.5 82 c 0
 174.5 56 199.5 31 249.5 31 c 1
 249.5 0 l 1
 134.5 3 l 1
 32.5 0 l 1
 32.5 31 l 1
 86.5 32 126.5 47 144.5 98 c 2
 351.5 696 l 2
 356.5 710 359.5 716 375.5 716 c 0
 391.5 716 393.5 709 398.5 696 c 2
 614.5 71 l 2
 625.5 38 639.5 31 699.5 31 c 2
 717.5 31 l 1
 717.5 0 l 1
458.5 259 m 1
 345.5 584 l 1
 233.5 259 l 1
 458.5 259 l 1
EndSplineSet
EndChar

StartChar: Amacron
Encoding: 256 256 172
Width: 750
Flags: HMW
HStem: 0 31<32.5 32.5> 228 31<233.5 458.5 233.5 469.5 222.5 458.5> 696 20G<351.5 383.5 367.5 398.5> 756 31<195.5 556.5 195.5 556.5>
LayerCount: 2
Fore
SplineSet
717.5 0 m 1
 586.5 3 l 2
 548.5 3 478.5 3 442.5 0 c 1
 442.5 31 l 1
 469.5 31 525.5 31 525.5 61 c 0
 525.5 65 523.5 71 522.5 75 c 2
 469.5 228 l 1
 222.5 228 l 1
 176.5 97 l 2
 175.5 95 174.5 85 174.5 82 c 0
 174.5 56 199.5 31 249.5 31 c 1
 249.5 0 l 1
 134.5 3 l 1
 32.5 0 l 1
 32.5 31 l 1
 86.5 32 126.5 47 144.5 98 c 2
 351.5 696 l 2
 356.5 710 359.5 716 375.5 716 c 0
 391.5 716 393.5 709 398.5 696 c 2
 614.5 71 l 2
 625.5 38 639.5 31 699.5 31 c 2
 717.5 31 l 1
 717.5 0 l 1
458.5 259 m 1
 345.5 584 l 1
 233.5 259 l 1
 458.5 259 l 1
556.5 756 m 1x10
 195.5 756 l 1
 195.5 787 l 1
 556.5 787 l 1
 556.5 756 l 1x10
EndSplineSet
Position2: "'cpsp' Capital Spacing lookup 0 subtable" dx=5 dy=0 dh=10 dv=0
EndChar

StartChar: amacron
Encoding: 257 257 173
Width: 500
Flags: HMW
HStem: -11 22<167 214 167 217.5> -6 31<398 404> 288 90 426 22<186.5 227> 589 31<62.5 423.5 62.5 423.5>
VStem: 24.5 77<71 117> 308.5 69<140 240 240 240 261 275> 450.5 25<89 145>
LayerCount: 2
Fore
SplineSet
475.5 89 m 2x77
 475.5 8 414.5 -6 393.5 -6 c 0x41
 346.5 -6 319.5 36 315.5 76 c 1
 296.5 29 250.5 -11 184.5 -11 c 0x80
 121.5 -11 24.5 14 24.5 95 c 0
 24.5 139 49.5 191 124.5 225 c 1
 187.5 255 257.5 258 308.5 261 c 1
 308.5 298 l 2
 308.5 387 251.5 426 202.5 426 c 0
 170.5 426 121.5 415 94.5 380 c 1
 140.5 379 145.5 346 145.5 334 c 0
 145.5 308 127.5 288 99.5 288 c 0
 73.5 288 53.5 305 53.5 335 c 0
 53.5 401 122.5 448 204.5 448 c 0
 252.5 448 302.5 432 341.5 393 c 0
 377.5 356 377.5 317 377.5 275 c 2
 377.5 75 l 2
 377.5 70 381.5 25 414.5 25 c 0
 425.5 25 450.5 31 450.5 89 c 2
 450.5 145 l 1
 475.5 145 l 1
 475.5 89 l 2x77
308.5 140 m 2
 308.5 240 l 1
 143.5 234 101.5 151 101.5 96 c 0
 101.5 46 142.5 11 191.5 11 c 0x86
 236.5 11 308.5 45 308.5 140 c 2
423.5 589 m 1x08
 62.5 589 l 1
 62.5 620 l 1
 423.5 620 l 1
 423.5 589 l 1x08
EndSplineSet
EndChar

StartChar: anglearc
Encoding: 8738 8738 174
Width: 778
Flags: HMW
HStem: -83 21G<462 470.5> 563 20G<462 470.5>
VStem: 557.5 40<225 275>
LayerCount: 2
Fore
SplineSet
721.5 20 m 0
 721.5 6 707.5 -4 694.5 1 c 2
 558.5 51 l 1
 539.5 6 514.5 -37 483.5 -75 c 0
 479.5 -80 473.5 -83 467.5 -83 c 0
 456.5 -83 447.5 -74 447.5 -63 c 0
 447.5 -58 449.5 -54 451.5 -51 c 0
 480.5 -15 503.5 24 520.5 65 c 1
 69.5 231 l 2
 61.5 234 56.5 241 56.5 250 c 0
 56.5 259 61.5 266 69.5 269 c 2
 520.5 435 l 1
 503.5 476 480.5 515 451.5 551 c 0
 449.5 554 447.5 558 447.5 563 c 0
 447.5 574 456.5 583 467.5 583 c 0
 473.5 583 479.5 580 483.5 575 c 0
 514.5 537 539.5 494 558.5 449 c 1
 694.5 499 l 2
 707.5 504 721.5 494 721.5 480 c 0
 721.5 471 716.5 464 708.5 461 c 2
 571.5 411 l 1
 588.5 359 597.5 305 597.5 250 c 0
 597.5 195 588.5 141 571.5 89 c 1
 708.5 39 l 2
 716.5 36 721.5 29 721.5 20 c 0
557.5 250 m 0
 557.5 300 549.5 350 534.5 397 c 1
 134.5 250 l 1
 534.5 103 l 1
 549.5 150 557.5 200 557.5 250 c 0
EndSplineSet
EndChar

StartChar: angleleft
Encoding: 9001 9001 175
Width: 389
Flags: HMW
HStem: -249 21G<276 291.5> 731 20G<287 292.5>
LayerCount: 2
Fore
SplineSet
306 -229 m 0
 306 -239 297 -249 286 -249 c 0
 266 -249 259 -217 253 -198 c 1
 92 224 l 2
 89 232 83 242 83 251 c 0
 83 261 90 272 93 282 c 2
 117 345 l 1
 255 705 l 2
 260 720 266 747 281 750 c 0
 283 751 287 751 287 751 c 1
 298 751 305 741 305 730 c 0
 305 727 305 724 304 722 c 0
 289 677 270 632 253 587 c 2
 137 283 l 1
 129 263 l 2
 128 259 126 255 126 251 c 0
 126 243 131 234 134 226 c 2
 154 174 l 1
 292 -187 l 1
 296 -198 l 2
 299 -207 306 -219 306 -229 c 0
EndSplineSet
EndChar

StartChar: angleright
Encoding: 9002 9002 176
Width: 389
Flags: HMW
HStem: -249 21G<97.5 103 103 105> 731 20G
LayerCount: 2
Fore
SplineSet
306 251 m 0
 306 241 299 230 296 220 c 2
 272 157 l 1
 134 -205 l 1
 126 -226 l 2
 122 -236 117 -248 105 -249 c 1
 103 -249 l 2
 92 -249 83 -240 83 -229 c 0
 83 -223 86 -217 88 -212 c 2
 252 219 l 1
 260 239 l 2
 261 243 263 247 263 251 c 0
 263 260 257 270 254 278 c 2
 96 694 l 2
 91 705 84 717 83 729 c 1
 83 731 l 2
 83 740 90 748 98 750 c 0
 100 751 104 751 104 751 c 1
 124 751 132 710 136 702 c 2
 296 280 l 2
 300 271 306 261 306 251 c 0
EndSplineSet
EndChar

StartChar: Aogonek
Encoding: 260 260 177
Width: 750
Flags: HMW
HStem: -211 47<598.5 617.5> 0 31<32.5 32.5> 228 31<233.5 458.5 233.5 469.5 222.5 458.5> 696 20G<351.5 383.5 367.5 398.5>
VStem: 174.5 48 481.5 48<-118 -95>
LayerCount: 2
Fore
SplineSet
717.5 0 m 1
 679.5 2 640.5 4 601.5 4 c 1
 566.5 -20 529.5 -55 529.5 -95 c 0
 529.5 -141 580.5 -164 616.5 -164 c 0
 648.5 -164 676.5 -144 693.5 -108 c 0
 698.5 -98 713.5 -103 710.5 -115 c 0
 694.5 -172 642.5 -211 592.5 -211 c 0
 528.5 -211 481.5 -167 481.5 -121 c 0
 481.5 -69 514.5 -30 562.5 3 c 1
 523.5 3 471.5 2 442.5 0 c 1
 442.5 31 l 1
 469.5 31 525.5 31 525.5 61 c 0
 525.5 65 523.5 71 522.5 75 c 2
 469.5 228 l 1
 222.5 228 l 1
 176.5 97 l 2
 175.5 95 174.5 85 174.5 82 c 0
 174.5 56 199.5 31 249.5 31 c 1
 249.5 0 l 1
 134.5 3 l 1
 32.5 0 l 1
 32.5 31 l 1
 86.5 32 126.5 47 144.5 98 c 2
 351.5 696 l 2
 356.5 710 359.5 716 375.5 716 c 0
 391.5 716 393.5 709 398.5 696 c 2
 614.5 71 l 2
 625.5 38 639.5 31 699.5 31 c 2
 717.5 31 l 1
 717.5 0 l 1
458.5 259 m 1
 345.5 584 l 1
 233.5 259 l 1
 458.5 259 l 1
EndSplineSet
Position2: "'cpsp' Capital Spacing lookup 0 subtable" dx=5 dy=0 dh=10 dv=0
EndChar

StartChar: aogonek
Encoding: 261 261 178
Width: 500
Flags: HMW
HStem: -211 47<360.5 379.5> -11 22<167 214 167 217.5> -6 31<398 404> 426 22<186.5 227>
VStem: 24.5 77<71 117> 53.5 48 243.5 48<-118 -95> 308.5 69<140 240 240 240 261 275> 450.5 25<89 145>
LayerCount: 2
Fore
SplineSet
475.5 89 m 2x3580
 475.5 8 414.5 -6 393.5 -6 c 0x2080
 382.5 -6 372.5 -4 364.5 0 c 1
 329.5 -24 291.5 -55 291.5 -95 c 0
 291.5 -141 342.5 -164 378.5 -164 c 0
 410.5 -164 438.5 -144 455.5 -108 c 0
 460.5 -98 475.5 -103 472.5 -115 c 0
 456.5 -172 404.5 -211 354.5 -211 c 0
 290.5 -211 243.5 -167 243.5 -121 c 0
 243.5 -69 294.5 -15 343.5 15 c 1
 327.5 31 317.5 54 315.5 76 c 1
 296.5 29 250.5 -11 184.5 -11 c 0
 121.5 -11 24.5 14 24.5 95 c 0xca
 24.5 139 49.5 191 124.5 225 c 1
 187.5 255 257.5 258 308.5 261 c 1
 308.5 298 l 2
 308.5 387 251.5 426 202.5 426 c 0
 170.5 426 121.5 415 94.5 380 c 1
 140.5 379 145.5 346 145.5 334 c 0
 145.5 308 127.5 288 99.5 288 c 0
 73.5 288 53.5 305 53.5 335 c 0
 53.5 401 122.5 448 204.5 448 c 0
 252.5 448 302.5 432 341.5 393 c 0
 377.5 356 377.5 317 377.5 275 c 2
 377.5 75 l 2
 377.5 70 381.5 25 414.5 25 c 0
 425.5 25 450.5 31 450.5 89 c 2
 450.5 145 l 1
 475.5 145 l 1
 475.5 89 l 2x3580
308.5 140 m 2
 308.5 240 l 1
 143.5 234 101.5 151 101.5 96 c 0
 101.5 46 142.5 11 191.5 11 c 0x45
 236.5 11 308.5 45 308.5 140 c 2
EndSplineSet
EndChar

StartChar: Aring
Encoding: 197 197 179
Width: 547
Flags: HMW
HStem: 0 31<23.4747 23.4747> 228 31<170.205 334.455 170.205 342.485 162.175 334.455> 716 30<259.995 288.1 259.995 293.575 268.025 279.705> 862 30<259.63 287.735>
VStem: 203.785 24.09<783.5 824 783.5 827> 319.855 24.09<784 824.5>
LayerCount: 2
Fore
SplineSet
523.525 0 m 1
 427.895 3 l 2
 400.154 3 349.055 3 322.775 0 c 1
 322.775 31 l 1
 342.484 31 383.365 31 383.365 61 c 0
 383.365 65 381.904 71 381.174 75 c 2
 342.484 228 l 1
 162.174 228 l 1
 128.596 97 l 2
 127.865 95 127.135 85 127.135 82 c 0
 127.135 56 145.385 31 181.885 31 c 1
 181.885 0 l 1
 97.9355 3 l 1
 23.4746 0 l 1
 23.4746 31 l 1
 62.8945 32 92.0957 47 105.234 98 c 2
 256.346 696 l 2
 259.994 710 262.186 716 273.865 716 c 0
 285.545 716 287.004 709 290.654 696 c 2
 448.334 71 l 2
 456.365 38 466.584 31 510.385 31 c 2
 523.525 31 l 1
 523.525 0 l 1
334.455 259 m 1
 251.965 584 l 1
 170.205 259 l 1
 334.455 259 l 1
319.855 804 m 0x3c
 319.855 845 301.605 862 273.865 862 c 0
 245.395 862 227.875 844 227.875 804 c 0
 227.875 763 246.125 746 273.865 746 c 0
 302.334 746 319.855 764 319.855 804 c 0x3c
343.945 805 m 0
 343.945 756 314.016 716 273.135 716 c 0
 235.904 716 203.785 754 203.785 805 c 0
 203.785 849 232.254 892 274.596 892 c 0
 314.016 892 343.945 851 343.945 805 c 0
EndSplineSet
Position2: "'cpsp' Capital Spacing lookup 0 subtable" dx=5 dy=0 dh=10 dv=0
EndChar

StartChar: aring
Encoding: 229 229 180
Width: 500
Flags: HMW
HStem: -11 22<167 214 167 217.5> -6 31<398 404> 288 90 426 22<186.5 227> 529 30<223.5 262 223.5 269.5> 675 30<223 261.5>
VStem: 24.5 77<71 117> 146.5 33<596.5 637 596.5 640> 305.5 33<597 637.5> 308.5 69<140 240 240 240 261 275> 450.5 25<89 145>
LayerCount: 2
Fore
SplineSet
475.5 89 m 2x7260
 475.5 8 414.5 -6 393.5 -6 c 0x4020
 346.5 -6 319.5 36 315.5 76 c 1
 296.5 29 250.5 -11 184.5 -11 c 0x80
 121.5 -11 24.5 14 24.5 95 c 0
 24.5 139 49.5 191 124.5 225 c 1
 187.5 255 257.5 258 308.5 261 c 1
 308.5 298 l 2
 308.5 387 251.5 426 202.5 426 c 0
 170.5 426 121.5 415 94.5 380 c 1
 140.5 379 145.5 346 145.5 334 c 0
 145.5 308 127.5 288 99.5 288 c 0
 73.5 288 53.5 305 53.5 335 c 0
 53.5 401 122.5 448 204.5 448 c 0
 252.5 448 302.5 432 341.5 393 c 0
 377.5 356 377.5 317 377.5 275 c 2
 377.5 75 l 2
 377.5 70 381.5 25 414.5 25 c 0
 425.5 25 450.5 31 450.5 89 c 2
 450.5 145 l 1
 475.5 145 l 1
 475.5 89 l 2x7260
308.5 140 m 2
 308.5 240 l 1
 143.5 234 101.5 151 101.5 96 c 0
 101.5 46 142.5 11 191.5 11 c 0x8240
 236.5 11 308.5 45 308.5 140 c 2
305.5 617 m 0x0d80
 305.5 658 280.5 675 242.5 675 c 0
 203.5 675 179.5 657 179.5 617 c 0
 179.5 576 204.5 559 242.5 559 c 0
 281.5 559 305.5 577 305.5 617 c 0x0d80
338.5 618 m 0
 338.5 569 297.5 529 241.5 529 c 0
 190.5 529 146.5 567 146.5 618 c 0
 146.5 662 185.5 705 243.5 705 c 0
 297.5 705 338.5 664 338.5 618 c 0
EndSplineSet
EndChar

StartChar: Aringacute
Encoding: 506 506 181
Width: 750
Flags: HMW
HStem: 0 31<32.5 32.5> 228 31<233.5 458.5 233.5 469.5 222.5 458.5> 716 30<356.5 395 356.5 402.5 367.5 383.5> 862 30<356 394.5> 1033 30 1055 20G<437.5 454.5>
VStem: 279.5 33<783.5 824 783.5 827> 438.5 33<784 824.5>
LayerCount: 2
Fore
SplineSet
717.5 0 m 1xe0
 586.5 3 l 2
 548.5 3 478.5 3 442.5 0 c 1
 442.5 31 l 1
 469.5 31 525.5 31 525.5 61 c 0
 525.5 65 523.5 71 522.5 75 c 2
 469.5 228 l 1
 222.5 228 l 1
 176.5 97 l 2
 175.5 95 174.5 85 174.5 82 c 0
 174.5 56 199.5 31 249.5 31 c 1
 249.5 0 l 1
 134.5 3 l 1
 32.5 0 l 1
 32.5 31 l 1
 86.5 32 126.5 47 144.5 98 c 2
 351.5 696 l 2
 356.5 710 359.5 716 375.5 716 c 0
 391.5 716 393.5 709 398.5 696 c 2
 614.5 71 l 2
 625.5 38 639.5 31 699.5 31 c 2
 717.5 31 l 1
 717.5 0 l 1xe0
458.5 259 m 1
 345.5 584 l 1
 233.5 259 l 1
 458.5 259 l 1
438.5 804 m 0x37
 438.5 845 413.5 862 375.5 862 c 0
 336.5 862 312.5 844 312.5 804 c 0
 312.5 763 337.5 746 375.5 746 c 0
 414.5 746 438.5 764 438.5 804 c 0x37
471.5 805 m 0
 471.5 756 430.5 716 374.5 716 c 0
 323.5 716 279.5 754 279.5 805 c 0
 279.5 849 318.5 892 376.5 892 c 0
 430.5 892 471.5 851 471.5 805 c 0
478.5 1033 m 0
 476.5 1021 467.5 1011 456.5 1006 c 2
 286.5 912 l 1
 272.5 933 l 1
 417.5 1063 l 2x08
 421.5 1067 431.5 1075 443.5 1075 c 0
 465.5 1075 482.5 1055 478.5 1033 c 0
EndSplineSet
Position2: "'cpsp' Capital Spacing lookup 0 subtable" dx=7 dy=0 dh=14 dv=0
EndChar

StartChar: aringacute
Encoding: 507 507 182
Width: 500
Flags: HMW
HStem: -11 22<167 214 167 217.5> -6 31<398 404> 288 90 426 22<186.5 227> 529 30<223.5 262 223.5 269.5> 675 30<223 261.5> 846 30 868 20G<304.5 321.5>
VStem: 24.5 77<71 117> 146.5 33<596.5 637 596.5 640> 305.5 33<597 637.5> 308.5 69<140 240 240 240 261 275> 450.5 25<89 145>
LayerCount: 2
Fore
SplineSet
475.5 89 m 2x7098
 475.5 8 414.5 -6 393.5 -6 c 0x4008
 346.5 -6 319.5 36 315.5 76 c 1
 296.5 29 250.5 -11 184.5 -11 c 0x80
 121.5 -11 24.5 14 24.5 95 c 0
 24.5 139 49.5 191 124.5 225 c 1
 187.5 255 257.5 258 308.5 261 c 1
 308.5 298 l 2
 308.5 387 251.5 426 202.5 426 c 0
 170.5 426 121.5 415 94.5 380 c 1
 140.5 379 145.5 346 145.5 334 c 0
 145.5 308 127.5 288 99.5 288 c 0
 73.5 288 53.5 305 53.5 335 c 0
 53.5 401 122.5 448 204.5 448 c 0
 252.5 448 302.5 432 341.5 393 c 0
 377.5 356 377.5 317 377.5 275 c 2
 377.5 75 l 2
 377.5 70 381.5 25 414.5 25 c 0
 425.5 25 450.5 31 450.5 89 c 2
 450.5 145 l 1
 475.5 145 l 1
 475.5 89 l 2x7098
308.5 140 m 2
 308.5 240 l 1
 143.5 234 101.5 151 101.5 96 c 0
 101.5 46 142.5 11 191.5 11 c 0x8090
 236.5 11 308.5 45 308.5 140 c 2
305.5 617 m 0x0d60
 305.5 658 280.5 675 242.5 675 c 0
 203.5 675 179.5 657 179.5 617 c 0
 179.5 576 204.5 559 242.5 559 c 0
 281.5 559 305.5 577 305.5 617 c 0x0d60
338.5 618 m 0
 338.5 569 297.5 529 241.5 529 c 0
 190.5 529 146.5 567 146.5 618 c 0
 146.5 662 185.5 705 243.5 705 c 0
 297.5 705 338.5 664 338.5 618 c 0
345.5 846 m 0
 343.5 834 334.5 824 323.5 819 c 2
 153.5 725 l 1
 139.5 746 l 1
 284.5 876 l 2x02
 288.5 880 298.5 888 310.5 888 c 0
 332.5 888 349.5 868 345.5 846 c 0
EndSplineSet
EndChar

StartChar: uni2193
Encoding: 8595 8595 183
Width: 500
Flags: MW
VStem: 230 40<-62 674 -62 687.5>
LayerCount: 2
Fore
SplineSet
472 36 m 1
 359 10 272 -80 250 -194 c 1
 228 -80 141 10 28 36 c 1
 28 76 l 1
 112 57 183 7 230 -62 c 1
 230 674 l 2
 230 701 270 701 270 674 c 2
 270 -62 l 1
 317 7 388 57 472 76 c 1
 472 36 l 1
EndSplineSet
EndChar

StartChar: uni2190
Encoding: 8592 8592 184
Width: 1000
Flags: MW
HStem: 1 21G<257 297 257 257> 230 41 231 41 481 20G<257 297 297 297>
LayerCount: 2
Fore
SplineSet
944 251 m 0x40
 944 233 929 231 917 231 c 2x20
 162 230 l 1x40
 169 226 174 221 180 215 c 0
 239 166 285 81 297 1 c 1
 257 1 l 1
 237 102 179 182 87 236 c 0
 77 241 66 245 56 251 c 1
 66 257 77 261 87 266 c 0
 179 320 237 400 257 501 c 1
 297 501 l 1
 287 436 256 372 214 322 c 0
 198 303 179 282 162 272 c 1xb0
 917 271 l 2
 929 271 944 269 944 251 c 0x40
EndSplineSet
EndChar

StartChar: uni2192
Encoding: 8594 8594 185
Width: 1000
Flags: HMW
HStem: 1 21G<703 743 703 703> 230 41 231 41 481 20G<703 743 743 743>
LayerCount: 2
Fore
SplineSet
944 251 m 1x30
 934 245 923 241 913 236 c 0
 821 182 763 102 743 1 c 1
 703 1 l 1
 713 66 744 130 786 180 c 0
 802 199 821 220 838 230 c 1xc0
 83 231 l 2x20
 71 231 56 233 56 251 c 0
 56 269 71 271 83 271 c 2x40
 838 272 l 1
 831 276 826 281 820 287 c 0
 761 336 715 421 703 501 c 1
 743 501 l 1
 763 400 821 320 913 266 c 0
 923 261 934 257 944 251 c 1x30
EndSplineSet
EndChar

StartChar: uni2191
Encoding: 8593 8593 186
Width: 500
Flags: MW
VStem: 230 40<-174 562>
LayerCount: 2
Fore
SplineSet
472 424 m 1
 388 443 317 493 270 562 c 1
 270 -174 l 2
 270 -201 230 -201 230 -174 c 2
 230 562 l 1
 183 493 112 443 28 424 c 1
 28 464 l 1
 141 490 228 580 250 694 c 1
 272 580 359 490 472 464 c 1
 472 424 l 1
EndSplineSet
EndChar

StartChar: asterisk.math
Encoding: 8727 8727 187
Width: 500
Flags: MW
HStem: 36 21G<242.5 250 250 252> 446 20G<250 252 252 260.5>
VStem: 222 53<83 83 83 91> 237 197<150.5 229 150.5 300.5>
LayerCount: 2
Fore
SplineSet
434 158 m 0x10
 434 143 421 130 406 130 c 0
 392 130 380 142 369 150 c 2
 262 229 l 1
 262 211 265 192 267 174 c 2
 275 83 l 2
 276 77 277 71 277 65 c 0
 277 52 267 36 252 36 c 2
 250 36 l 2
 235 36 222 48 222 64 c 0xa0
 222 118 237 175 237 229 c 1
 130 150 l 2
 119 142 107 130 93 130 c 0
 77 130 66 144 66 158 c 0
 66 179 86 185 101 192 c 2
 140 210 l 2
 167 223 196 241 225 250 c 1
 225 252 l 1
 196 261 167 279 140 292 c 2
 101 310 l 2
 86 317 66 323 66 344 c 0
 66 358 77 372 93 372 c 0
 107 372 119 360 130 352 c 2
 237 273 l 1x10
 237 328 222 382 222 438 c 0
 222 454 235 466 250 466 c 2
 252 466 l 2
 269 466 277 448 277 437 c 0
 277 431 276 425 275 419 c 2x60
 267 328 l 2
 265 310 262 291 262 273 c 1
 369 352 l 2
 380 360 392 372 406 372 c 0
 421 372 434 359 434 344 c 0
 434 324 412 317 398 310 c 2
 359 292 l 2
 332 279 303 261 274 252 c 1
 274 250 l 1
 303 241 332 223 359 210 c 2
 398 192 l 2
 412 185 434 178 434 158 c 0x10
EndSplineSet
EndChar

StartChar: Atilde
Encoding: 195 195 188
Width: 547
Flags: HMW
HStem: 0 31<23.4747 23.4747> 228 31<170.205 334.455 170.205 342.485 162.175 334.455> 696 20G<256.345 279.705 268.025 290.655> 736 45<315.84 330.805> 784 45<217.655 232.62>
LayerCount: 2
Fore
SplineSet
523.525 0 m 1
 427.895 3 l 2
 400.154 3 349.055 3 322.775 0 c 1
 322.775 31 l 1
 342.484 31 383.365 31 383.365 61 c 0
 383.365 65 381.904 71 381.174 75 c 2
 342.484 228 l 1
 162.174 228 l 1
 128.596 97 l 2
 127.865 95 127.135 85 127.135 82 c 0
 127.135 56 145.385 31 181.885 31 c 1
 181.885 0 l 1
 97.9355 3 l 1
 23.4746 0 l 1
 23.4746 31 l 1
 62.8945 32 92.0957 47 105.234 98 c 2
 256.346 696 l 2
 259.994 710 262.186 716 273.865 716 c 0
 285.545 716 287.004 709 290.654 696 c 2
 448.334 71 l 2
 456.365 38 466.584 31 510.385 31 c 2
 523.525 31 l 1
 523.525 0 l 1
334.455 259 m 1
 251.965 584 l 1
 170.205 259 l 1
 334.455 259 l 1
395.775 814 m 1x18
 358.545 758 344.674 736 316.936 736 c 0
 304.525 736 291.385 743 271.674 759 c 0
 259.266 769 241.016 784 224.225 784 c 0
 192.105 784 164.365 736 164.365 736 c 1
 152.686 751 l 1
 189.914 807 203.785 829 231.525 829 c 0
 243.936 829 257.074 822 276.785 806 c 0
 289.195 796 307.445 781 324.234 781 c 0
 356.355 781 384.096 829 384.096 829 c 1
 395.775 814 l 1x18
EndSplineSet
Position2: "'cpsp' Capital Spacing lookup 0 subtable" dx=5 dy=0 dh=10 dv=0
EndChar

StartChar: atilde
Encoding: 227 227 189
Width: 500
Flags: HMW
HStem: -11 22<167 214 167 217.5> -6 31<398 404> 288 90 426 22<186.5 227> 558 45<300 320.5> 606 45<165.5 186>
VStem: 24.5 77<71 117> 308.5 69<140 240 240 240 261 275> 450.5 25<89 145>
LayerCount: 2
Fore
SplineSet
475.5 89 m 2x7380
 475.5 8 414.5 -6 393.5 -6 c 0x4080
 346.5 -6 319.5 36 315.5 76 c 1
 296.5 29 250.5 -11 184.5 -11 c 0x80
 121.5 -11 24.5 14 24.5 95 c 0
 24.5 139 49.5 191 124.5 225 c 1
 187.5 255 257.5 258 308.5 261 c 1
 308.5 298 l 2
 308.5 387 251.5 426 202.5 426 c 0
 170.5 426 121.5 415 94.5 380 c 1
 140.5 379 145.5 346 145.5 334 c 0
 145.5 308 127.5 288 99.5 288 c 0
 73.5 288 53.5 305 53.5 335 c 0
 53.5 401 122.5 448 204.5 448 c 0
 252.5 448 302.5 432 341.5 393 c 0
 377.5 356 377.5 317 377.5 275 c 2
 377.5 75 l 2
 377.5 70 381.5 25 414.5 25 c 0
 425.5 25 450.5 31 450.5 89 c 2
 450.5 145 l 1
 475.5 145 l 1
 475.5 89 l 2x7380
308.5 140 m 2
 308.5 240 l 1
 143.5 234 101.5 151 101.5 96 c 0
 101.5 46 142.5 11 191.5 11 c 0x83
 236.5 11 308.5 45 308.5 140 c 2
409.5 636 m 1x0c
 358.5 580 339.5 558 301.5 558 c 0
 284.5 558 266.5 565 239.5 581 c 0
 222.5 591 197.5 606 174.5 606 c 0
 130.5 606 92.5 558 92.5 558 c 1
 76.5 573 l 1
 127.5 629 146.5 651 184.5 651 c 0
 201.5 651 219.5 644 246.5 628 c 0
 263.5 618 288.5 603 311.5 603 c 0
 355.5 603 393.5 651 393.5 651 c 1
 409.5 636 l 1x0c
EndSplineSet
EndChar

StartChar: baht
Encoding: 3647 3647 190
Width: 708
Flags: HMW
HStem: 0 31<46.5 70.5 70.5 109 281.5 341.5 46.5 70.5 371.5 406.5 406.5 438.5> 344 22<232.5 341.5 232.5 341.5 371.5 377.5 377.5 420.5> 652 31<46.5 70.5 46.5 341.5 258 281.5 281.5 341.5 46.5 371.5 371.5 405.5>
VStem: 149.5 83<78 344 366 605 605 612> 341.5 97<-30 0 0 0 0 344> 371.5 97 537.5 97<482 540.5> 561.5 100<148.5 217.5>
LayerCount: 2
Fore
SplineSet
661.5 183 m 0x26
 661.5 89 571.5 0 438.5 0 c 2xc9
 371.5 0 l 1
 371.5 -30 l 2x84
 371.5 -38 364.5 -45 356.5 -45 c 0
 348.5 -45 341.5 -38 341.5 -30 c 2
 341.5 0 l 1
 46.5 0 l 1
 46.5 31 l 1
 70.5 31 l 2
 147.5 31 149.5 42 149.5 78 c 2
 149.5 605 l 2
 149.5 641 147.5 652 70.5 652 c 2
 46.5 652 l 1
 46.5 683 l 1
 341.5 683 l 1
 341.5 713 l 2xb8
 341.5 722 348.5 728 356.5 728 c 0
 364.5 728 371.5 722 371.5 713 c 2
 371.5 683 l 1
 412.5 683 l 2
 542.5 683 634.5 601 634.5 514 c 0
 634.5 440 565.5 376 468.5 357 c 1
 579.5 345 661.5 270 661.5 183 c 0x26
537.5 514 m 0
 537.5 567 502.5 652 405.5 652 c 2
 371.5 652 l 1
 371.5 366 l 1x76
 377.5 366 l 2
 488.5 366 537.5 450 537.5 514 c 0
341.5 366 m 1
 341.5 652 l 1xe8
 281.5 652 l 2
 234.5 652 232.5 645 232.5 612 c 2
 232.5 366 l 1
 341.5 366 l 1
561.5 184 m 0
 561.5 251 519.5 344 420.5 344 c 2
 371.5 344 l 1
 371.5 31 l 1xd5
 406.5 31 l 2
 509.5 31 561.5 113 561.5 184 c 0
341.5 31 m 1
 341.5 344 l 1xc8
 232.5 344 l 1
 232.5 71 l 2
 232.5 38 234.5 31 281.5 31 c 2
 341.5 31 l 1
EndSplineSet
EndChar

StartChar: Beta
Encoding: 914 914 191
Width: 708
Flags: HMW
HStem: 0 31<46.5 70.5 70.5 109 281.5 406.5 406.5 438.5 46.5 70.5> 344 22<232.5 377.5 377.5 420.5 232.5 377.5> 652 31<46.5 70.5 46.5 412.5 258 281.5 281.5 405.5>
VStem: 149.5 83<78 344 366 605 605 612> 537.5 97<482 540.5> 561.5 100<148.5 217.5>
LayerCount: 2
Fore
SplineSet
661.5 183 m 0xb8
 661.5 89 571.5 0 438.5 0 c 2
 46.5 0 l 1
 46.5 31 l 1
 70.5 31 l 2
 147.5 31 149.5 42 149.5 78 c 2
 149.5 605 l 2
 149.5 641 147.5 652 70.5 652 c 2
 46.5 652 l 1
 46.5 683 l 1
 412.5 683 l 2
 542.5 683 634.5 601 634.5 514 c 0
 634.5 440 565.5 376 468.5 357 c 1
 579.5 345 661.5 270 661.5 183 c 0xb8
537.5 514 m 0
 537.5 567 502.5 652 405.5 652 c 2
 281.5 652 l 2
 234.5 652 232.5 645 232.5 612 c 2
 232.5 366 l 1
 377.5 366 l 2
 488.5 366 537.5 450 537.5 514 c 0
561.5 184 m 0
 561.5 251 519.5 344 420.5 344 c 2
 232.5 344 l 1
 232.5 71 l 2
 232.5 38 234.5 31 281.5 31 c 2
 406.5 31 l 2
 509.5 31 561.5 113 561.5 184 c 0
EndSplineSet
EndChar

StartChar: blanksymbol
Encoding: 9250 9250 192
Width: 556
Flags: HMW
HStem: -11 22<275 324.5 275 361> 72 42 420 22<295.5 330> 435 22<36.5 56.5> 485 42<109.5 109.5> 548 42<175.5 175.5> 635 22<246.5 267.5> 652 42 661 22
VStem: 109.5 66<377 485 485 485 527 548 590 596 596 620.5> 109.5 83 246.5 66 441.5 83<198.5 237.5>
LayerCount: 2
Fore
SplineSet
524.5 216 m 0x26d0
 524.5 87 420.5 -11 301.5 -11 c 0
 227.5 -11 185.5 39 170.5 62 c 1
 134.5 0 l 1
 109.5 0 l 1
 109.5 485 l 1
 56.5 435 l 2
 54.5 433 50.5 431 46.5 431 c 0
 38.5 431 31.5 438 31.5 446 c 0
 31.5 450 33.5 454 36.5 457 c 2
 109.5 527 l 1
 109.5 596 l 2
 109.5 645 101.5 652 31.5 652 c 1xd928
 31.5 683 l 1x0080
 175.5 694 l 1x0140
 175.5 590 l 1
 246.5 657 l 2
 249.5 660 252.5 661 256.5 661 c 0
 265.5 661 271.5 655 271.5 646 c 0
 271.5 642 270.5 638 267.5 635 c 2
 175.5 548 l 1
 175.5 377 l 1
 191.5 395 234.5 442 312.5 442 c 0
 426.5 442 524.5 343 524.5 216 c 0x26d0
441.5 217 m 0
 441.5 258 438.5 315 412.5 356 c 0
 388.5 394 352.5 420 307.5 420 c 0x2008
 283.5 420 228.5 412 189.5 356 c 0
 178.5 340 178.5 339 178.5 320 c 2
 178.5 114 l 2
 178.5 96 178.5 93 192.5 72 c 0
 216.5 35 252.5 11 297.5 11 c 0
 351.5 11 389.5 44 410.5 75 c 0
 439.5 120 441.5 180 441.5 217 c 0
EndSplineSet
EndChar

StartChar: breve
Encoding: 728 728 193
Width: 500
Flags: HMW
HStem: 518 38<219 280 219 288.5> 670 20G<100.5 122.5 122.5 122.5 377.5 399.5 399.5 399.5>
LayerCount: 2
Fore
SplineSet
399.5 690 m 1
 397.5 585 327.5 518 249.5 518 c 0
 175.5 518 102.5 582 100.5 690 c 1
 122.5 690 l 1
 124.5 605 187.5 556 250.5 556 c 0
 309.5 556 375.5 603 377.5 690 c 1
 399.5 690 l 1
EndSplineSet
EndChar

StartChar: uni032E
Encoding: 814 814 194
Width: 0
Flags: HMW
HStem: -233 38<-31 30 -31 38.5> -81 20G<-149.5 -127.5 -127.5 -127.5 127.5 149.5 149.5 149.5>
LayerCount: 2
Fore
SplineSet
149.5 -61 m 1
 147.5 -166 77.5 -233 -0.5 -233 c 0
 -74.5 -233 -147.5 -169 -149.5 -61 c 1
 -127.5 -61 l 1
 -125.5 -146 -62.5 -195 0.5 -195 c 0
 59.5 -195 125.5 -148 127.5 -61 c 1
 149.5 -61 l 1
EndSplineSet
EndChar

StartChar: uni032F
Encoding: 815 815 195
Width: 0
Flags: HMW
HStem: -233 21G<-149.5 -127.5 -149.5 -149.5 127.5 149.5 127.5 127.5> -99 38<-30 31>
LayerCount: 2
Fore
SplineSet
149.5 -233 m 1
 127.5 -233 l 1
 125.5 -148 62.5 -99 -0.5 -99 c 0
 -59.5 -99 -125.5 -146 -127.5 -233 c 1
 -149.5 -233 l 1
 -147.5 -128 -77.5 -61 0.5 -61 c 0
 74.5 -61 147.5 -125 149.5 -233 c 1
EndSplineSet
EndChar

StartChar: uni0306
Encoding: 774 774 196
Width: 0
Flags: HMW
HStem: 518 38<-31 30 -31 38.5> 670 20G<-149.5 -127.5 -127.5 -127.5 127.5 149.5 149.5 149.5>
LayerCount: 2
Fore
SplineSet
149.5 690 m 1
 147.5 585 77.5 518 -0.5 518 c 0
 -74.5 518 -147.5 582 -149.5 690 c 1
 -127.5 690 l 1
 -125.5 605 -62.5 556 0.5 556 c 0
 59.5 556 125.5 603 127.5 690 c 1
 149.5 690 l 1
EndSplineSet
EndChar

StartChar: uni0311
Encoding: 785 785 197
Width: 0
Flags: HMW
HStem: 518 21G<-149.5 -127.5 -149.5 -149.5 127.5 149.5 127.5 127.5> 652 38<-30 31>
LayerCount: 2
Fore
SplineSet
149.5 518 m 1
 127.5 518 l 1
 125.5 603 62.5 652 -0.5 652 c 0
 -59.5 652 -125.5 605 -127.5 518 c 1
 -149.5 518 l 1
 -147.5 623 -77.5 690 0.5 690 c 0
 74.5 690 147.5 626 149.5 518 c 1
EndSplineSet
EndChar

StartChar: brokenbar
Encoding: 166 166 198
Width: 278
Flags: MW
HStem: -250 21G<129 149> 730 20G<129 149>
VStem: 119 40<-217 157 343 717>
LayerCount: 2
Fore
SplineSet
159 343 m 2
 159 334 149 328 139 328 c 0
 129 328 119 334 119 343 c 2
 119 717 l 2
 119 731 119 750 139 750 c 0
 159 750 159 731 159 717 c 2
 159 343 l 2
159 -217 m 2
 159 -231 159 -250 139 -250 c 0
 119 -250 119 -231 119 -217 c 2
 119 157 l 2
 119 166 129 172 139 172 c 0
 149 172 159 166 159 157 c 2
 159 -217 l 2
EndSplineSet
EndChar

StartChar: bullet
Encoding: 8226 8226 199
Width: 778
Flags: MW
HStem: 87 288<349.5 428.5>
VStem: 245 288<191.5 270.5>
LayerCount: 2
Fore
SplineSet
533 231 m 0
 533 152 468 87 389 87 c 0
 310 87 245 152 245 231 c 0
 245 310 310 375 389 375 c 0
 468 375 533 310 533 231 c 0
EndSplineSet
EndChar

StartChar: Cacute
Encoding: 262 262 200
Width: 722
Flags: HMW
HStem: -22 31<386 471 386 486> 674 31<385 452.5 311 470> 746 21G<328.5 342.5> 889 20G<493.5 510.5>
VStem: 56.5 103<238.5 444> 635.5 30
LayerCount: 2
Fore
SplineSet
665.5 233 m 0
 665.5 117 567.5 -22 404.5 -22 c 0
 218.5 -22 56.5 135 56.5 342 c 0
 56.5 546 217.5 705 404.5 705 c 0
 500.5 705 551.5 655 588.5 619 c 1
 638.5 693 l 2
 646.5 705 650.5 705 654.5 705 c 0
 665.5 705 665.5 698 665.5 681 c 2
 665.5 444 l 2
 665.5 423 665.5 420 649.5 420 c 0
 635.5 420 635.5 423 633.5 437 c 0
 613.5 583 524.5 674 415.5 674 c 0
 354.5 674 159.5 640 159.5 341 c 0
 159.5 43 355.5 9 416.5 9 c 0
 525.5 9 632.5 91 640.5 234 c 0
 641.5 244 641.5 250 652.5 250 c 0
 665.5 250 665.5 243 665.5 233 c 0
534.5 867 m 0x30
 532.5 855 523.5 845 512.5 840 c 2
 342.5 746 l 1
 328.5 767 l 1
 473.5 897 l 2
 477.5 901 487.5 909 499.5 909 c 0
 521.5 909 538.5 889 534.5 867 c 0x30
EndSplineSet
Position2: "'cpsp' Capital Spacing lookup 0 subtable" dx=5 dy=0 dh=10 dv=0
EndChar

StartChar: cacute
Encoding: 263 263 201
Width: 444
Flags: HMW
HStem: -11 25<229 274 229 313.5> 294 92<355.5 355.5> 423 25<223 254> 510 21G<196.5 196.5> 678 20G<322 338.5>
VStem: 31.5 83<152 278> 309.5 92<327 346.5>
LayerCount: 2
Fore
SplineSet
412.5 119 m 0
 412.5 109 380.5 -11 246.5 -11 c 0
 130.5 -11 31.5 88 31.5 216 c 0
 31.5 340 123.5 448 248.5 448 c 0
 325.5 448 401.5 409 401.5 341 c 0
 401.5 311 381.5 294 355.5 294 c 0
 327.5 294 309.5 314 309.5 340 c 0
 309.5 353 315.5 383 356.5 386 c 1
 321.5 422 258.5 423 249.5 423 c 0
 196.5 423 114.5 381 114.5 218 c 0
 114.5 57 202.5 14 255.5 14 c 0
 292.5 14 357.5 26 386.5 119 c 0
 388.5 125 390.5 129 399.5 129 c 0
 402.5 129 412.5 129 412.5 119 c 0
365.5 662 m 0x18
 365.5 650 357.5 639 348.5 632 c 2
 196.5 510 l 1
 179.5 528 l 1
 299.5 681 l 2
 303.5 687 314.5 698 329.5 698 c 0
 347.5 698 365.5 680 365.5 662 c 0x18
EndSplineSet
EndChar

StartChar: caron
Encoding: 711 711 202
Width: 500
Flags: MW
HStem: 516 21G<250 250> 672 20G<111 111 389 389>
LayerCount: 2
Fore
SplineSet
402 678 m 1
 250 516 l 1
 98 678 l 1
 111 692 l 1
 250 584 l 1
 389 692 l 1
 402 678 l 1
EndSplineSet
EndChar

StartChar: uni030C
Encoding: 780 780 203
Width: 0
Flags: HMW
HStem: 516 21G<0 0> 672 20G<-139 -139 139 139>
LayerCount: 2
Fore
SplineSet
152 678 m 1
 0 516 l 1
 -152 678 l 1
 -139 692 l 1
 0 584 l 1
 139 692 l 1
 152 678 l 1
EndSplineSet
EndChar

